SplineFontDB: 3.2
FontName: SeriousShannsBoldItalic
FullName: Serious Shanns Bold Italic
FamilyName: Serious Shanns Bold Italic
Weight: Bold
Copyright: https://github.com/kaBeech/serious-shanns/blob/main/LICENSE
Version: 4.0.0
ItalicAngle: -12.5
UnderlinePosition: 0
UnderlineWidth: 0
Ascent: 1638
Descent: 410
InvalidEm: 0
sfntRevision: 0x00003333
LayerCount: 2
Layer: 0 0 "Back" 1
Layer: 1 0 "Fore" 0
XUID: [1021 45 630387186 10904090]
StyleMap: 0x0040
FSType: 4
OS2Version: 3
OS2_WeightWidthSlopeOnly: 0
OS2_UseTypoMetrics: 0
CreationTime: 1532631502
ModificationTime: 315532800
PfmFamily: 81
TTFWeight: 700
TTFWidth: 5
LineGap: 0
VLineGap: 0
Panose: 0 0 0 0 0 0 0 0 0 0
OS2TypoAscent: 1255
OS2TypoAOffset: 0
OS2TypoDescent: -385
OS2TypoDOffset: 0
OS2TypoLinegap: 201
OS2WinAscent: 1593
OS2WinAOffset: 0
OS2WinDescent: 631
OS2WinDOffset: 0
HheadAscent: 1630
HheadAOffset: 0
HheadDescent: -649
HheadDOffset: 0
OS2SubXSize: 649
OS2SubYSize: 600
OS2SubXOff: 0
OS2SubYOff: 76
OS2SupXSize: 649
OS2SupYSize: 600
OS2SupXOff: 0
OS2SupYOff: 350
OS2StrikeYSize: 0
OS2StrikeYPos: 270
OS2CapHeight: 1180
OS2XHeight: 993
OS2Vendor: 'NONE'
OS2CodePages: 00000001.00000000
OS2UnicodeRanges: 00000001.00000000.00000000.00000000
MarkAttachClasses: 1
DEI: 91125
LangName: 1033 "" "" "Normal" "" "" "Version 0.2.0"
Encoding: UnicodeBmp
UnicodeInterp: none
NameList: AGL For New Fonts
DisplaySize: -48
AntiAlias: 1
FitToEm: 0
WinInfo: 64 16 14
BeginPrivate: 9
BlueValues 39 [-82 -12 1022 1071 1446 1470 1567 1575]
OtherBlues 11 [-608 -588]
BlueScale 9 0.0291667
BlueShift 1 0
StdHW 5 [227]
StdVW 5 [242]
StemSnapH 33 [205 217 225 227 233 238 244 367]
StemSnapV 5 [242]
ForceBold 4 true
EndPrivate
BeginChars: 65537 121

StartChar: .notdef
Encoding: 65536 -1 0
Width: 1128
GlyphClass: 1
Flags: HW
LayerCount: 2
Fore
SplineSet
-113 -573 m 1
 381 1559 l 1
 1241 1559 l 1
 750 -573 l 1
 -113 -573 l 1
492 1399 m 1
 74 -414 l 1
 639 -414 l 1
 1057 1399 l 1
 492 1399 l 1
EndSplineSet
Validated: 1
EndChar

StartChar: exclam
Encoding: 33 33 8
Width: 1128
GlyphClass: 2
Flags: HMW
HStem: -76 367<346 502 369 502>
VStem: 248 635
LayerCount: 2
Fore
SplineSet
883 1511 m 0
 880 1499 860 1423 823 1282 c 0
 786 1141 758 1029 739 944 c 0
 729 904 721 863 712 820 c 0
 703 777 695 741 687 710 c 0
 679 679 674 658 670 646 c 0
 666 634 661 620 658 602 c 0
 655 584 651 568 647 553 c 0
 635 515 615 485 586 465 c 0
 559 446 530 435 500 434 c 2
 494 434 l 2
 463 434 439 446 424 469 c 0
 415 483 410 500 410 520 c 0
 410 530 412 541 414 553 c 0
 418 569 425 590 435 617 c 0
 445 644 453 664 457 676 c 0
 461 688 466 709 474 738 c 0
 482 767 489 796 495 823 c 0
 501 850 509 892 520 948 c 0
 532 1014 545 1077 559 1137 c 0
 573 1197 584 1244 593 1278 c 0
 602 1312 613 1354 626 1405 c 0
 639 1456 647 1489 651 1505 c 0
 662 1549 682 1583 710 1607 c 0
 738 1631 768 1642 799 1642 c 2
 807 1642 l 2
 837 1642 859 1632 874 1610 c 0
 883 1597 888 1579 888 1557 c 0
 888 1543 887 1528 883 1511 c 0
369 -76 m 2
 324 -76 290 -60 268 -27 c 0
 250 -1 242 29 242 62 c 0
 242 78 244 94 248 111 c 0
 259 160 287 202 332 236 c 0
 381 273 430 291 478 291 c 0
 526 291 563 275 586 242 c 0
 602 219 610 192 610 162 c 0
 610 147 608 131 604 114 c 0
 592 63 566 20 527 -14 c 0
 488 -48 442 -69 389 -76 c 2
 369 -76 l 2
EndSplineSet
Validated: 1
EndChar

StartChar: quotedbl
Encoding: 34 34 9
Width: 1128
GlyphClass: 2
Flags: HW
LayerCount: 2
Fore
SplineSet
598 1513 m 0
 595 1495 590 1467 580 1427 c 0
 570 1387 551 1314 524 1206 c 0
 495 1093 473 1014 457 969 c 0
 445 935 424 909 397 891 c 0
 372 875 349 866 326 866 c 0
 295 866 267 877 244 897 c 0
 231 910 224 927 224 947 c 0
 224 956 225 965 227 975 c 2
 231 987 l 2
 246 1040 263 1106 281 1184 c 0
 286 1206 291 1228 295 1253 c 0
 325 1391 344 1484 354 1532 c 0
 358 1550 366 1565 377 1579 c 0
 391 1595 406 1608 424 1616 c 0
 446 1624 467 1628 487 1628 c 0
 490 1628 493 1628 496 1628 c 0
 515 1628 530 1626 542 1623 c 0
 554 1620 564 1614 575 1606 c 0
 586 1598 594 1585 598 1569 c 0
 602 1553 602 1533 598 1513 c 0
903 1511 m 0
 900 1497 898 1485 895 1473 c 0
 879 1403 856 1314 829 1206 c 0
 800 1093 779 1014 764 969 c 0
 752 935 731 909 702 891 c 0
 677 875 654 866 629 866 c 0
 598 866 571 877 551 897 c 0
 537 911 530 929 530 950 c 0
 530 958 530 966 532 975 c 2
 537 987 l 2
 551 1033 565 1089 580 1155 c 0
 611 1293 637 1416 657 1522 c 1
 657 1528 l 2
 661 1547 670 1564 683 1580 c 0
 696 1596 711 1608 729 1616 c 0
 751 1624 772 1628 792 1628 c 0
 795 1628 798 1628 801 1628 c 0
 820 1628 835 1626 847 1623 c 0
 859 1620 870 1615 881 1608 c 0
 893 1600 901 1587 904 1570 c 0
 907 1553 907 1533 903 1511 c 0
EndSplineSet
Validated: 1
EndChar

StartChar: numbersign
Encoding: 35 35 10
Width: 1128
GlyphClass: 2
Flags: HMW
HStem: -29 43G<55 70> 366 222<426 426> 887 223<645 725 553 811>
LayerCount: 2
Fore
SplineSet
313 883 m 1
 278 882 258 882 254 883 c 0
 220 883 195 891 180 909 c 0
 168 923 163 941 163 961 c 0
 163 969 164 978 166 987 c 2
 166 993 l 2
 173 1022 189 1047 214 1069 c 0
 239 1091 271 1103 309 1104 c 0
 331 1105 362 1106 403 1106 c 1
 524 1405 l 2
 546 1447 572 1477 602 1493 c 0
 622 1504 644 1509 664 1509 c 0
 672 1509 680 1508 690 1505 c 0
 721 1498 743 1481 754 1454 c 0
 759 1443 761 1430 761 1416 c 0
 761 1407 760 1397 758 1387 c 0
 755 1375 750 1362 743 1350 c 2
 645 1110 l 1
 811 1110 l 1
 924 1389 l 2
 946 1433 971 1463 1001 1479 c 0
 1021 1490 1043 1494 1063 1493 c 0
 1073 1493 1082 1492 1092 1491 c 0
 1123 1484 1145 1467 1157 1440 c 0
 1162 1429 1164 1417 1164 1404 c 0
 1164 1395 1163 1386 1161 1376 c 0
 1158 1362 1153 1348 1145 1333 c 0
 1120 1282 1089 1209 1051 1112 c 1
 1085 1111 1110 1099 1128 1079 c 0
 1145 1060 1154 1039 1154 1016 c 0
 1154 1011 1154 1006 1153 1001 c 0
 1146 970 1130 944 1105 922 c 0
 1080 900 1049 888 1012 887 c 2
 1010 887 l 1
 961 887 l 1
 844 586 l 1
 895 586 l 2
 932 586 956 576 967 557 c 0
 974 544 978 529 978 512 c 0
 978 504 977 495 975 485 c 2
 975 483 l 2
 968 450 955 426 936 408 c 0
 911 382 881 369 844 369 c 2
 758 369 l 1
 701 224 660 125 637 70 c 0
 615 35 586 7 551 -12 c 0
 530 -23 511 -29 493 -29 c 0
 491 -29 489 -29 487 -29 c 0
 476 -29 467 -28 457 -25 c 0
 428 -18 409 4 401 39 c 0
 397 58 398 77 403 96 c 0
 407 112 414 129 422 147 c 0
 445 196 476 270 516 367 c 1
 493 367 463 367 426 366 c 0
 389 365 359 365 336 365 c 1
 258 181 218 85 215 78 c 0
 196 44 167 16 129 -6 c 0
 103 -21 79 -29 59 -29 c 0
 49 -29 40 -28 29 -25 c 0
 0 -18 -18 5 -23 43 c 0
 -26 62 -24 81 -20 99 c 0
 -16 117 -10 137 0 156 c 0
 16 189 48 257 94 362 c 1
 66 362 l 2
 29 362 2 371 -14 387 c 0
 -27 400 -34 416 -34 436 c 0
 -34 444 -33 452 -31 461 c 2
 -31 469 l 2
 -24 498 -9 523 15 543 c 0
 39 563 71 575 109 578 c 0
 120 578 134 578 150 579 c 0
 166 580 178 580 186 580 c 2
 313 883 l 1
725 887 m 1
 553 887 l 1
 428 588 l 1
 604 588 l 1
 645 685 685 785 725 887 c 1
EndSplineSet
Validated: 1
EndChar

StartChar: dollar
Encoding: 36 36 11
Width: 1128
GlyphClass: 2
Flags: HMW
HStem: 1276 207
VStem: 821 241
LayerCount: 2
Fore
SplineSet
433 -266 m 0
 404 -286 372 -297 338 -297 c 2
 336 -297 l 2
 302 -297 278 -285 266 -260 c 0
 260 -250 258 -238 258 -223 c 0
 258 -213 259 -201 262 -188 c 0
 263 -181 266 -170 271 -153 c 0
 276 -136 284 -107 295 -66 c 1
 250 -65 207 -57 166 -45 c 0
 128 -34 95 -18 68 4 c 0
 16 45 -17 95 -31 152 c 0
 -34 169 -35 185 -35 200 c 0
 -35 212 -35 222 -33 233 c 0
 -32 241 -29 249 -25 256 c 0
 -11 286 12 309 43 324 c 0
 61 332 75 337 85 339 c 0
 95 341 104 342 110 342 c 2
 127 342 l 2
 142 341 155 334 165 322 c 0
 175 310 185 293 193 274 c 0
 209 236 231 206 258 184 c 0
 281 166 312 157 350 154 c 1
 399 357 443 540 481 702 c 1
 477 702 470 704 459 707 c 0
 452 708 442 709 430 709 c 0
 378 714 334 728 297 750 c 0
 263 772 236 797 218 827 c 0
 200 857 187 890 182 925 c 0
 180 939 179 952 179 966 c 0
 179 987 181 1008 186 1028 c 0
 198 1079 218 1128 243 1174 c 0
 268 1220 300 1264 340 1304 c 0
 380 1344 428 1378 485 1407 c 0
 540 1433 598 1452 659 1464 c 1
 666 1491 674 1524 684 1561 c 0
 700 1627 731 1668 776 1686 c 0
 791 1691 809 1694 829 1694 c 0
 871 1694 899 1680 911 1651 c 0
 916 1639 919 1625 919 1610 c 0
 919 1597 917 1583 913 1567 c 0
 903 1526 897 1498 893 1483 c 1
 922 1480 960 1472 1006 1460 c 0
 1051 1449 1085 1440 1110 1430 c 0
 1137 1419 1154 1400 1161 1374 c 0
 1166 1355 1167 1335 1163 1315 c 0
 1162 1308 1160 1300 1157 1292 c 0
 1150 1272 1139 1255 1123 1243 c 0
 1107 1231 1091 1224 1073 1221 c 0
 1065 1220 1058 1219 1051 1219 c 0
 1044 1219 1036 1219 1028 1220 c 0
 1020 1221 1010 1223 999 1227 c 0
 985 1230 970 1235 952 1243 c 0
 919 1261 884 1272 844 1276 c 1
 811 1144 780 1018 750 899 c 1
 805 889 854 875 899 856 c 0
 940 836 972 811 995 782 c 0
 1018 753 1036 721 1047 685 c 0
 1057 651 1062 617 1062 583 c 0
 1062 554 1059 514 1047 467 c 0
 1032 403 1007 342 973 285 c 0
 939 228 898 177 852 135 c 0
 806 93 753 57 696 27 c 0
 641 0 585 -23 526 -39 c 1
 510 -109 501 -155 498 -180 c 0
 484 -217 462 -246 433 -266 c 0
498 1198 m 0
 460 1167 435 1129 424 1087 c 0
 422 1078 421 1070 421 1062 c 0
 421 1037 431 1013 449 991 c 0
 469 966 498 948 535 936 c 1
 555 1021 581 1130 612 1262 c 1
 568 1247 531 1225 498 1198 c 0
721 281 m 0
 770 323 801 371 813 426 c 0
 818 451 821 471 821 489 c 0
 821 509 817 531 807 553 c 0
 792 591 753 623 690 649 c 1
 653 492 629 390 617 343 c 0
 605 296 594 245 580 190 c 1
 633 215 680 246 721 281 c 0
EndSplineSet
Validated: 1
EndChar

StartChar: percent
Encoding: 37 37 12
Width: 1128
GlyphClass: 2
Flags: HMW
HStem: -82 207<645 741 672 741> 326 201<799 801> 860 203<318 412> 1245 199<432 546>
VStem: 477 201<211 213 213 213> 512 209 844 197
LayerCount: 2
Fore
SplineSet
155 1007 m 0xf6
 151 1026 149 1044 149 1064 c 0
 149 1088 152 1113 158 1139 c 0
 158 1140 159 1142 160 1143 c 0
 180 1229 221 1301 282 1358 c 0
 343 1415 418 1444 508 1444 c 0
 584 1444 643 1419 684 1370 c 0
 706 1344 718 1311 721 1270 c 0
 722 1263 722 1255 722 1247 c 0
 722 1220 718 1191 711 1159 c 0
 686 1055 641 979 575 928 c 0
 516 883 440 860 344 860 c 0
 292 860 250 874 217 902 c 0
 184 930 164 965 155 1007 c 0xf6
-33 -92 m 0
 -48 -84 -60 -73 -68 -61 c 0
 -78 -45 -79 -26 -74 -3 c 0
 -69 20 -56 44 -37 70 c 0
 3 127 94 246 236 428 c 0
 536 794 686 978 686 979 c 0
 836 1163 939 1295 995 1376 c 0
 1022 1405 1053 1424 1087 1432 c 2
 1116 1436 l 2
 1136 1436 1154 1430 1169 1419 c 0
 1194 1405 1206 1385 1206 1360 c 0
 1206 1351 1205 1345 1204 1339 c 0
 1199 1316 1185 1291 1163 1264 c 0
 1097 1183 932 977 666 647 c 0
 398 317 220 93 133 -23 c 0
 92 -78 52 -104 13 -104 c 0
 12 -104 11 -104 10 -104 c 0
 -5 -104 -19 -100 -33 -92 c 0
507 1224 m 0
 495 1238 474 1245 444 1245 c 0
 419 1245 401 1238 387 1223 c 0
 369 1205 355 1180 344 1149 c 0
 344 1146 343 1144 342 1141 c 0
 337 1116 337 1097 345 1085 c 0
 353 1073 375 1066 410 1063 c 2
 412 1063 l 2
 437 1063 456 1069 471 1083 c 0
 489 1099 502 1122 512 1149 c 0
 512 1150 513 1152 514 1155 c 0
 517 1167 518 1177 518 1186 c 0
 518 1202 514 1215 507 1224 c 0
474 70 m 0
 469 90 467 110 467 131 c 0
 467 156 470 182 477 209 c 1
 477 213 l 1xfa
 497 303 540 378 606 437 c 0
 672 496 752 526 846 526 c 0
 918 526 973 502 1010 451 c 0
 1029 424 1039 388 1040 344 c 0
 1040 340 1041 336 1041 332 c 0
 1041 303 1036 271 1028 236 c 0
 1025 222 1022 209 1018 195 c 0
 993 106 953 38 898 -10 c 0
 843 -58 771 -82 682 -82 c 2
 672 -82 l 2
 619 -82 575 -68 541 -39 c 0
 507 -10 484 26 474 70 c 0
741 125 m 2
 748 125 l 2
 771 125 789 131 803 145 c 0
 821 163 834 187 844 217 c 1
 844 223 l 2
 848 241 849 257 849 270 c 0
 849 281 848 290 846 297 c 0
 838 316 817 326 784 326 c 0
 759 326 739 317 723 299 c 0
 704 279 689 251 678 217 c 1
 678 211 l 2
 671 184 671 162 679 148 c 0
 687 134 707 126 741 125 c 2
EndSplineSet
Validated: 1
EndChar

StartChar: ampersand
Encoding: 38 38 13
Width: 1128
GlyphClass: 2
Flags: HMW
HStem: -111 242<289 399> 1296 211<715 806>
LayerCount: 2
Fore
SplineSet
956 23 m 0
 955 16 953 8 950 0 c 0
 935 -48 913 -79 883 -94 c 0
 857 -104 841 -109 834 -109 c 2
 831 -109 l 2
 815 -109 798 -103 782 -92 c 0
 753 -74 733 -44 721 0 c 0
 720 7 717 22 714 46 c 2
 707 96 l 1
 691 78 678 65 669 56 c 0
 660 47 646 34 627 17 c 0
 608 0 592 -13 579 -23 c 0
 566 -33 548 -43 526 -56 c 0
 504 -69 484 -79 465 -85 c 0
 446 -91 424 -97 400 -102 c 0
 376 -107 353 -111 328 -111 c 0
 252 -111 187 -90 134 -48 c 0
 81 -6 46 49 27 117 c 0
 17 152 12 189 12 227 c 0
 12 263 16 300 25 338 c 0
 52 457 97 558 158 643 c 0
 229 743 321 821 436 877 c 1
 416 933 l 2
 408 956 401 973 397 985 c 0
 393 997 389 1013 384 1033 c 0
 379 1053 377 1070 377 1085 c 0
 377 1126 381 1166 391 1206 c 0
 396 1232 406 1258 419 1285 c 0
 432 1312 449 1339 472 1366 c 0
 495 1393 521 1418 550 1438 c 0
 579 1458 614 1475 655 1488 c 0
 696 1501 740 1507 786 1507 c 0
 826 1507 863 1501 898 1487 c 0
 933 1473 963 1453 989 1428 c 0
 1015 1403 1032 1369 1041 1327 c 0
 1045 1309 1047 1290 1047 1271 c 0
 1047 1244 1043 1216 1036 1186 c 0
 1025 1140 1010 1096 990 1056 c 0
 970 1016 949 981 926 954 c 0
 903 927 875 902 844 878 c 0
 813 854 786 835 765 823 c 0
 744 811 722 801 702 791 c 1
 716 750 737 698 764 636 c 0
 791 574 810 528 821 498 c 1
 826 506 835 519 846 536 c 0
 857 553 868 570 879 586 c 0
 890 602 898 615 905 623 c 0
 939 664 970 688 999 698 c 0
 1010 702 1021 705 1032 705 c 0
 1050 705 1067 700 1083 690 c 0
 1106 676 1119 654 1119 621 c 0
 1119 618 1118 614 1118 610 c 0
 1118 602 1117 594 1114 586 c 0
 1107 557 1093 527 1071 496 c 0
 1061 482 1037 455 997 415 c 0
 957 375 925 338 899 307 c 1
 907 282 918 248 931 204 c 0
 944 160 951 133 954 125 c 0
 959 107 962 89 962 71 c 0
 962 55 960 39 956 23 c 0
610 1171 m 0
 607 1156 605 1140 605 1124 c 0
 605 1108 607 1091 610 1073 c 0
 617 1038 627 1007 639 981 c 1
 662 988 682 996 700 1005 c 0
 718 1014 737 1024 755 1038 c 0
 773 1052 788 1070 800 1090 c 0
 812 1110 820 1135 827 1165 c 0
 830 1179 832 1193 832 1205 c 0
 832 1228 826 1248 814 1263 c 0
 796 1286 768 1296 733 1296 c 0
 698 1296 669 1285 649 1262 c 0
 633 1242 620 1211 610 1171 c 0
266 356 m 0
 260 330 257 305 257 283 c 0
 257 249 264 220 278 195 c 0
 301 153 336 131 385 131 c 0
 414 131 444 136 477 147 c 0
 488 150 501 156 515 166 c 2
 549 188 l 2
 557 193 568 203 580 215 c 0
 592 227 601 236 606 241 c 0
 611 246 619 253 627 263 c 0
 635 273 640 280 643 283 c 0
 635 324 626 360 618 393 c 0
 610 424 593 473 566 538 c 0
 539 603 520 651 508 684 c 1
 477 669 448 651 422 631 c 0
 392 606 367 580 347 551 c 0
 327 522 311 492 298 461 c 0
 285 430 274 394 266 356 c 0
EndSplineSet
Validated: 1
EndChar

StartChar: quotesingle
Encoding: 39 39 14
Width: 1128
GlyphClass: 2
Flags: HW
LayerCount: 2
Fore
SplineSet
745 1491 m 0
 741 1473 735 1446 727 1408 c 0
 719 1370 705 1313 686 1237 c 0
 656 1118 632 1036 616 991 c 0
 604 956 584 929 555 911 c 0
 530 896 506 889 483 889 c 0
 450 889 423 900 401 920 c 0
 388 933 381 950 381 970 c 0
 381 979 383 987 385 997 c 0
 385 1001 386 1006 389 1010 c 0
 405 1065 420 1126 434 1194 c 0
 456 1291 478 1393 500 1499 c 1
 500 1505 l 2
 504 1524 512 1541 524 1556 c 0
 538 1574 553 1586 571 1593 c 0
 596 1603 620 1608 645 1608 c 0
 664 1608 679 1606 690 1602 c 0
 701 1598 712 1592 723 1585 c 0
 735 1577 743 1564 746 1547 c 0
 749 1530 749 1511 745 1491 c 0
EndSplineSet
Validated: 1
EndChar

StartChar: parenleft
Encoding: 40 40 15
Width: 1128
GlyphClass: 2
Flags: HMW
HStem: -295 223<422 534> 1477 215<859 943>
LayerCount: 2
Fore
SplineSet
590 -190 m 0
 583 -220 567 -245 541 -265 c 0
 515 -285 490 -295 467 -295 c 0
 377 -295 303 -260 246 -190 c 0
 189 -120 151 -27 134 92 c 0
 127 144 123 200 123 259 c 0
 123 334 129 415 141 502 c 0
 146 544 157 597 172 660 c 0
 187 725 209 804 238 897 c 0
 289 1059 345 1192 406 1296 c 0
 433 1344 466 1391 506 1436 c 0
 546 1481 588 1523 633 1562 c 0
 678 1601 726 1632 779 1656 c 0
 832 1680 881 1692 926 1692 c 0
 961 1692 985 1680 997 1657 c 0
 1003 1647 1006 1634 1006 1619 c 0
 1006 1608 1004 1596 1001 1583 c 0
 993 1546 976 1519 950 1501 c 0
 927 1485 901 1477 873 1477 c 0
 845 1477 816 1467 786 1449 c 0
 756 1431 727 1404 700 1370 c 0
 644 1304 595 1223 553 1126 c 0
 520 1054 487 959 453 840 c 0
 435 777 421 721 409 671 c 0
 397 621 388 577 383 539 c 0
 372 469 367 400 367 333 c 0
 367 322 368 311 368 300 c 0
 370 223 378 157 393 103 c 0
 408 49 428 6 451 -27 c 0
 473 -56 495 -71 518 -72 c 0
 549 -72 572 -80 585 -98 c 0
 592 -108 596 -123 596 -142 c 0
 596 -156 594 -171 590 -190 c 0
EndSplineSet
Validated: 1
EndChar

StartChar: parenright
Encoding: 41 41 16
Width: 1128
GlyphClass: 2
Flags: HMW
HStem: -295 223<240 250> 1477 215<601 685>
VStem: 776 223
LayerCount: 2
Fore
SplineSet
205 -295 m 0
 182 -295 161 -285 143 -265 c 0
 130 -251 124 -234 124 -214 c 0
 124 -206 125 -198 127 -190 c 0
 137 -146 152 -116 175 -98 c 0
 198 -80 225 -72 256 -72 c 0
 279 -72 309 -57 344 -27 c 0
 382 6 421 49 461 103 c 0
 501 157 540 223 578 301 c 0
 616 379 648 458 674 539 c 0
 686 580 698 625 709 673 c 0
 720 721 731 777 743 840 c 0
 765 960 776 1055 776 1126 c 0
 776 1131 776 1136 776 1141 c 0
 776 1230 764 1307 739 1372 c 0
 727 1405 710 1431 689 1449 c 0
 668 1467 643 1477 615 1477 c 0
 587 1477 565 1485 549 1501 c 0
 537 1513 531 1530 531 1551 c 0
 531 1561 532 1571 535 1583 c 0
 539 1603 546 1622 557 1638 c 0
 568 1654 581 1667 596 1675 c 0
 616 1686 639 1692 662 1692 c 0
 708 1692 752 1680 793 1656 c 0
 834 1632 868 1601 895 1562 c 0
 922 1523 946 1481 964 1436 c 0
 982 1391 994 1344 999 1296 c 0
 1003 1260 1006 1220 1006 1177 c 0
 1006 1096 998 1002 983 897 c 0
 969 803 955 723 940 660 c 0
 925 597 911 544 897 502 c 0
 848 348 787 211 715 92 c 0
 643 -27 562 -120 473 -190 c 0
 384 -260 295 -295 205 -295 c 0
EndSplineSet
Validated: 1
EndChar

StartChar: asterisk
Encoding: 42 42 17
Width: 1128
GlyphClass: 2
Flags: HMW
HStem: 575 262<135 209> 592 244<943 1004> 602 207
LayerCount: 2
Fore
SplineSet
283 209 m 2x20
 264 209 l 2
 256 209 245 210 232 213 c 0
 219 216 208 221 197 230 c 0
 186 239 177 251 170 267 c 0
 163 283 161 302 164 324 c 0
 164 328 165 333 166 340 c 0
 170 362 181 382 197 401 c 2
 342 584 l 1
 259 579 196 575 154 575 c 0
 117 575 90 589 74 616 c 0
 64 634 59 653 59 675 c 0
 59 684 59 693 61 702 c 2
 61 709 l 2
 66 736 80 764 102 791 c 0
 114 807 132 819 152 827 c 0
 167 834 183 838 201 838 c 2
 209 838 l 1
 211 838 l 2x80
 262 834 331 828 420 821 c 1
 394 900 371 963 352 1008 c 0
 345 1026 342 1045 342 1064 c 0
 342 1076 343 1088 346 1100 c 0
 347 1105 349 1111 352 1116 c 0
 366 1154 387 1181 416 1196 c 0
 435 1207 455 1212 476 1212 c 0
 497 1212 517 1206 535 1194 c 0
 554 1180 566 1160 571 1133 c 0
 576 1104 592 1039 618 938 c 1
 673 1009 719 1073 756 1130 c 0
 774 1156 794 1176 817 1189 c 0
 840 1202 862 1208 881 1208 c 0
 901 1208 918 1203 932 1192 c 0
 946 1184 956 1170 962 1151 c 0
 965 1141 966 1130 966 1118 c 0
 966 1108 966 1097 963 1085 c 0
 958 1058 944 1033 922 1010 c 0
 874 955 821 888 764 809 c 1x20
 853 810 916 817 956 829 c 0
 974 833 986 836 991 836 c 0x40
 1016 836 1035 827 1049 809 c 0x20
 1064 790 1072 769 1072 747 c 0
 1072 740 1071 733 1069 725 c 0
 1062 695 1048 666 1028 639 c 0
 1016 623 1001 610 983 600 c 0
 971 595 958 592 946 592 c 0x40
 939 592 933 593 926 594 c 0
 896 599 841 602 760 602 c 2
 717 602 l 1
 780 401 l 2
 784 384 786 369 786 354 c 0
 786 342 784 330 782 319 c 0
 781 314 779 308 776 303 c 0
 765 272 747 248 721 233 c 0
 699 221 675 215 649 215 c 0
 629 215 610 219 592 229 c 0
 569 241 556 262 555 291 c 0
 552 336 540 398 520 479 c 1
 450 378 405 310 385 276 c 0
 374 254 359 238 340 227 c 0
 321 216 302 210 283 209 c 2x20
EndSplineSet
Validated: 1
EndChar

StartChar: plus
Encoding: 43 43 18
Width: 1128
GlyphClass: 2
Flags: HMW
HStem: 709 217<821 834 821 821>
LayerCount: 2
Fore
SplineSet
637 713 m 1
 592 512 l 2
 582 472 567 444 546 428 c 0
 525 412 500 402 473 399 c 2
 471 399 l 2
 441 399 418 408 403 424 c 0
 391 436 385 453 385 473 c 0
 385 485 387 498 391 512 c 2
 436 707 l 1
 266 705 l 2
 228 705 201 715 187 737 c 0
 177 752 173 768 173 787 c 0
 173 796 174 805 176 815 c 0
 176 816 177 819 178 823 c 0
 185 852 200 877 223 899 c 0
 246 921 276 932 311 932 c 0
 314 932 334 932 372 931 c 0
 410 930 447 929 487 928 c 1
 505 1009 518 1077 528 1133 c 0
 536 1171 555 1199 584 1217 c 0
 604 1231 628 1237 657 1237 c 2
 666 1237 l 2
 693 1237 714 1231 729 1217 c 0
 741 1206 746 1191 746 1172 c 0
 746 1162 744 1150 741 1137 c 0
 741 1133 740 1128 739 1124 c 0
 719 1054 702 989 688 926 c 1
 874 926 l 2
 911 926 935 916 946 897 c 0
 953 884 957 869 957 852 c 0
 957 844 956 835 954 825 c 2
 954 823 l 2
 951 808 947 795 942 783 c 0
 937 771 930 760 920 748 c 0
 909 733 893 722 874 717 c 0
 862 713 849 710 834 709 c 2
 821 709 l 2
 802 710 774 711 739 712 c 0
 704 713 670 713 637 713 c 1
EndSplineSet
Validated: 1
EndChar

StartChar: comma
Encoding: 44 44 19
Width: 1128
GlyphClass: 2
Flags: HMW
VStem: 276 573
LayerCount: 2
Fore
SplineSet
422 -457 m 0
 399 -465 380 -469 365 -469 c 0
 350 -469 338 -467 328 -463 c 0
 313 -458 300 -447 290 -431 c 0
 280 -415 275 -396 276 -373 c 0
 276 -369 278 -364 279 -360 c 0
 283 -340 294 -319 313 -299 c 0
 347 -261 403 -173 481 -35 c 0
 559 102 609 198 631 254 c 0
 642 279 658 298 680 312 c 0
 702 326 723 334 743 334 c 0
 744 334 747 335 750 336 c 0
 765 336 780 334 795 330 c 0
 818 322 835 306 846 283 c 0
 851 272 853 259 853 245 c 0
 853 236 852 225 850 215 c 0
 849 205 846 198 842 193 c 0
 813 126 762 21 688 -121 c 0
 613 -263 559 -351 527 -385 c 0
 495 -419 460 -443 422 -457 c 0
EndSplineSet
Validated: 1
EndChar

StartChar: hyphen
Encoding: 45 45 20
Width: 1128
GlyphClass: 2
Flags: HMW
HStem: 471 229<311 411> 480 223
VStem: 246 641<584 606>
LayerCount: 2
Fore
SplineSet
375 700 m 0xa0
 447 700 534 701 634 703 c 0
 734 705 791 707 805 707 c 0
 842 707 866 697 878 678 c 0
 886 665 889 649 889 632 c 0
 889 624 889 615 887 606 c 1
 885 604 l 1
 878 571 866 546 848 528 c 0
 823 502 793 489 756 489 c 0
 740 489 675 486 562 480 c 0x60
 449 474 371 471 326 471 c 0
 296 471 274 480 260 496 c 0
 248 509 242 526 242 549 c 0
 242 559 243 571 246 584 c 0
 246 587 247 590 248 594 c 0
 256 632 274 661 301 680 c 0
 321 694 346 700 375 700 c 0xa0
EndSplineSet
Validated: 1
EndChar

StartChar: period
Encoding: 46 46 21
Width: 1128
GlyphClass: 2
Flags: HMW
HStem: -53 365<485 642 508 642>
VStem: 385 359
LayerCount: 2
Fore
SplineSet
508 -53 m 2
 463 -53 429 -37 406 -4 c 0
 388 22 379 50 379 82 c 0
 379 97 381 113 385 129 c 0
 397 180 426 222 471 256 c 0
 520 293 569 311 617 311 c 0
 665 311 702 295 725 262 c 0
 742 239 750 212 750 181 c 0
 750 166 748 151 744 135 c 0
 732 84 708 42 668 8 c 0
 628 -26 581 -46 528 -53 c 2
 508 -53 l 2
EndSplineSet
Validated: 1
EndChar

StartChar: slash
Encoding: 47 47 22
Width: 1128
GlyphClass: 2
Flags: HMW
HStem: 1528 41G<1130 1151>
LayerCount: 2
Fore
SplineSet
20 -137 m 0
 0 -145 -19 -150 -37 -151 c 0
 -55 -152 -70 -146 -82 -135 c 0
 -99 -122 -108 -99 -108 -67 c 0
 -108 -59 -107 -50 -106 -41 c 0
 -106 -34 -105 -26 -102 -18 c 0
 -94 17 -78 51 -53 84 c 0
 208 412 434 702 625 956 c 0
 744 1112 872 1290 1010 1489 c 0
 1028 1515 1048 1534 1073 1548 c 0
 1098 1562 1121 1569 1141 1569 c 0
 1161 1569 1180 1564 1198 1554 c 0
 1224 1538 1238 1514 1239 1481 c 0
 1239 1471 1238 1461 1235 1450 c 0
 1230 1427 1218 1401 1200 1374 c 0
 1151 1303 1019 1131 803 859 c 0
 587 587 455 418 406 352 c 0
 376 310 326 238 257 137 c 0
 188 36 145 -25 129 -47 c 0
 96 -89 60 -119 20 -137 c 0
EndSplineSet
Validated: 1
EndChar

StartChar: zero
Encoding: 48 48 23
Width: 1128
GlyphClass: 2
Flags: HMW
HStem: -49 221<316 420> 1253 217<669 818>
LayerCount: 2
Fore
SplineSet
1124 1006 m 0
 1123 1001 1123 1000 1124 1004 c 1
 1112 923 1096 841 1077 758 c 0
 1058 675 1037 593 1013 512 c 0
 989 431 966 368 944 322 c 0
 902 235 857 164 809 109 c 0
 786 82 760 58 733 39 c 0
 706 20 679 5 653 -6 c 0
 626 -17 595 -27 561 -35 c 0
 527 -42 494 -46 462 -47 c 0
 430 -48 392 -49 350 -49 c 0
 282 -49 221 -37 168 -14 c 0
 119 9 80 42 51 85 c 0
 22 128 5 180 -1 240 c 0
 -3 256 -4 273 -4 290 c 0
 -4 336 2 383 14 434 c 0
 14 438 15 442 16 446 c 0
 31 512 45 575 59 635 c 0
 69 677 81 730 97 791 c 0
 113 852 127 903 141 943 c 0
 155 983 173 1027 193 1073 c 0
 213 1121 234 1163 254 1198 c 0
 307 1287 378 1355 467 1401 c 0
 563 1447 669 1470 788 1470 c 0
 847 1470 900 1461 948 1442 c 0
 994 1423 1033 1394 1063 1356 c 0
 1093 1318 1113 1268 1124 1209 c 0
 1129 1179 1133 1148 1133 1114 c 0
 1133 1080 1129 1044 1124 1006 c 0
807 1229 m 0
 780 1245 749 1254 713 1254 c 0
 710 1254 708 1253 705 1253 c 0
 634 1253 574 1235 527 1197 c 0
 480 1159 435 1096 393 1006 c 0
 377 971 362 933 348 893 c 0
 336 853 324 807 313 754 c 0
 294 672 274 577 252 469 c 1
 470 696 675 928 866 1167 c 1
 851 1193 832 1214 807 1229 c 0
889 938 m 1
 690 677 479 454 256 270 c 1
 275 206 323 173 401 172 c 0
 438 172 471 175 499 181 c 0
 527 187 555 197 582 211 c 0
 637 240 685 295 729 377 c 0
 737 393 753 437 776 508 c 0
 799 579 823 662 848 758 c 0
 864 821 878 881 889 938 c 1
EndSplineSet
Validated: 1
EndChar

StartChar: one
Encoding: 49 49 24
Width: 1128
GlyphClass: 2
Flags: HMW
HStem: -18 227 -10 233<115 218>
LayerCount: 2
Fore
SplineSet
51 68 m 0x40
 51 78 53 88 55 100 c 0
 55 102 55 107 57 109 c 0
 63 140 78 163 96 186 c 0
 121 211 151 223 190 223 c 0x40
 245 223 340 221 473 219 c 1
 483 258 490 293 494 322 c 0
 496 334 502 369 516 426 c 0
 528 477 539 520 549 555 c 2
 606 776 l 2
 661 983 695 1104 705 1139 c 1
 609 1078 539 1038 492 1022 c 0
 476 1018 465 1016 459 1016 c 0
 436 1016 413 1027 395 1047 c 0
 377 1067 367 1090 367 1110 c 0
 367 1116 369 1122 371 1130 c 0
 377 1157 387 1182 403 1202 c 0
 419 1222 442 1244 471 1262 c 0
 514 1291 569 1329 641 1376 c 1
 666 1380 694 1399 725 1432 c 0
 750 1448 776 1463 803 1477 c 0
 828 1489 848 1495 866 1495 c 2
 872 1495 l 2
 907 1495 940 1481 971 1454 c 0
 987 1440 998 1425 1004 1413 c 0
 1006 1409 1008 1405 1008 1399 c 0
 1008 1376 992 1317 920 1053 c 0
 871 869 842 760 834 729 c 0
 803 602 780 496 762 410 c 2
 762 410 760 405 760 399 c 0
 750 354 737 291 721 211 c 1
 789 209 832 209 850 209 c 2
 922 209 l 2
 953 209 971 207 979 207 c 0
 1022 207 1049 198 1063 178 c 0
 1073 164 1077 145 1077 127 c 0
 1077 119 1077 110 1075 102 c 0
 1075 100 1075 98 1073 96 c 0
 1067 65 1051 39 1028 16 c 0
 1003 -7 969 -18 926 -18 c 0x80
 445 -14 180 -12 133 -10 c 0
 98 -10 73 0 61 23 c 0
 55 37 51 52 51 68 c 0x40
EndSplineSet
Validated: 1
EndChar

StartChar: two
Encoding: 50 50 25
Width: 1128
GlyphClass: 2
Flags: HMW
HStem: -41 231 -25 231<834 834 834 846> 1038 43G<325 332> 1255 223<749 768>
LayerCount: 2
Fore
SplineSet
834 207 m 1x70
 836 207 l 1
 854 225 866 225 874 209 c 0
 878 209 886 209 897 208 c 0
 908 207 917 205 922 202 c 0
 927 199 933 194 938 190 c 0
 946 185 951 177 954 166 c 0
 957 150 956 131 952 109 c 0
 942 69 926 35 901 8 c 0
 881 -14 859 -25 834 -25 c 0x70
 745 -25 599 -29 397 -37 c 0
 329 -40 259 -41 188 -41 c 0
 122 -41 72 -38 35 -33 c 0
 15 -30 -1 -21 -12 -6 c 0
 -20 5 -26 19 -29 37 c 0
 -30 45 -30 54 -30 63 c 0
 -30 95 -24 135 -13 184 c 0
 1 247 28 311 68 374 c 0
 108 437 158 499 219 559 c 0
 280 619 350 667 426 704 c 0
 593 783 701 838 750 868 c 0
 811 906 854 947 877 989 c 0
 891 1015 901 1047 909 1085 c 0
 913 1104 916 1122 916 1138 c 0
 916 1171 906 1196 887 1214 c 0
 857 1241 805 1255 731 1255 c 0
 682 1255 632 1240 579 1210 c 0
 526 1180 482 1147 448 1110 c 0
 430 1091 414 1075 398 1062 c 0
 382 1049 366 1041 350 1040 c 0
 346 1040 340 1039 332 1038 c 0
 318 1038 299 1045 276 1059 c 0
 251 1075 239 1098 238 1128 c 0
 238 1135 239 1143 240 1151 c 0
 245 1176 259 1204 281 1235 c 0
 301 1264 327 1292 360 1320 c 0
 393 1348 430 1374 471 1399 c 0
 513 1424 561 1443 616 1457 c 0
 671 1471 723 1479 774 1479 c 0
 931 1479 1041 1444 1102 1374 c 0
 1141 1329 1160 1269 1160 1195 c 0
 1160 1155 1155 1110 1143 1061 c 0
 1116 948 1065 854 993 782 c 0
 940 731 851 676 727 616 c 0
 696 601 641 577 565 543 c 0
 501 514 445 479 397 437 c 0
 349 395 312 353 285 309 c 0
 262 272 243 232 229 190 c 1xb0
 303 187 373 186 440 185 c 0
 453 185 467 185 479 185 c 0
 528 185 567 186 598 188 c 0
 635 191 714 197 834 207 c 1x70
EndSplineSet
Validated: 1
EndChar

StartChar: three
Encoding: 51 51 26
Width: 1128
GlyphClass: 2
Flags: HMW
HStem: -49 221<361 485> 627 256<459 470> 1067 43G<326 340> 1255 223<662 801>
VStem: 874 236<1069 1103>
LayerCount: 2
Fore
SplineSet
1016 572 m 0
 1017 562 1017 552 1017 541 c 0
 1017 504 1012 463 1001 418 c 0
 968 275 900 161 795 76 c 0
 690 -7 557 -49 395 -49 c 0
 392 -49 390 -49 387 -49 c 0
 335 -49 286 -42 238 -27 c 0
 190 -12 151 8 122 31 c 0
 93 54 68 80 49 109 c 0
 29 138 15 166 8 194 c 0
 4 210 3 225 3 239 c 0
 3 251 4 261 6 272 c 0
 7 280 10 289 14 297 c 0
 28 330 51 354 82 369 c 0
 105 380 125 385 143 385 c 0
 181 385 211 363 231 319 c 0
 250 281 278 247 316 217 c 0
 354 187 397 172 446 172 c 0
 522 172 590 192 648 232 c 0
 706 272 743 324 758 385 c 0
 764 408 766 429 766 448 c 0
 766 462 765 474 762 486 c 0
 755 514 741 539 718 560 c 0
 695 581 660 597 613 609 c 0
 566 621 506 627 434 627 c 0
 399 627 371 641 352 668 c 0
 339 687 332 708 332 730 c 0
 332 740 334 750 336 760 c 0
 344 794 360 823 383 846 c 0
 409 871 440 883 477 883 c 0
 589 883 681 902 752 942 c 0
 818 979 858 1032 874 1102 c 0
 874 1103 875 1105 876 1107 c 0
 876 1108 877 1109 877 1110 c 0
 877 1113 878 1115 879 1116 c 0
 882 1128 883 1140 883 1150 c 0
 883 1180 871 1203 848 1219 c 0
 814 1244 760 1256 686 1256 c 0
 682 1256 678 1255 674 1255 c 0
 649 1255 623 1251 594 1243 c 0
 586 1240 575 1236 563 1228 c 0
 551 1220 542 1214 535 1209 c 0
 528 1204 518 1197 506 1186 c 0
 494 1175 485 1166 481 1161 c 0
 467 1134 458 1125 453 1133 c 1
 420 1099 389 1077 360 1069 c 0
 352 1068 344 1067 336 1067 c 0
 317 1067 298 1072 279 1083 c 0
 257 1097 245 1118 245 1146 c 0
 245 1146 246 1166 248 1180 c 0
 253 1205 267 1231 287 1260 c 0
 328 1317 380 1367 444 1409 c 0
 478 1431 519 1448 567 1460 c 0
 615 1472 665 1479 717 1479 c 0
 885 1479 1001 1445 1065 1378 c 0
 1107 1332 1128 1273 1128 1199 c 0
 1128 1164 1123 1126 1114 1085 c 0
 1114 1082 1113 1080 1112 1077 c 0
 1111 1074 1110 1072 1110 1069 c 0
 1102 1031 1088 996 1070 963 c 0
 1052 930 1031 902 1007 879 c 0
 983 856 956 835 927 817 c 0
 898 799 868 786 838 776 c 1
 857 769 874 763 889 756 c 0
 923 738 952 714 975 684 c 0
 998 654 1012 616 1016 572 c 0
EndSplineSet
Validated: 1
EndChar

StartChar: four
Encoding: 52 52 27
Width: 1128
GlyphClass: 2
Flags: HMW
HStem: -47 43G<666 696> 449 184<588 590 590 676>
LayerCount: 2
Fore
SplineSet
588 633 m 2
 717 633 l 1
 772 869 812 1060 838 1206 c 1
 602 962 432 769 330 627 c 1
 401 631 487 633 588 633 c 2
803 123 m 0
 803 107 801 91 797 76 c 0
 792 49 781 24 766 4 c 0
 741 -30 713 -47 680 -47 c 0
 653 -47 628 -36 608 -15 c 0
 591 3 583 21 583 40 c 0
 583 44 583 47 584 51 c 0
 587 67 592 94 600 129 c 2
 637 285 l 2
 651 341 664 396 676 449 c 1
 590 449 l 2
 402 449 266 440 184 422 c 0
 174 421 165 420 155 420 c 0
 145 420 135 422 127 426 c 0
 111 433 99 443 91 457 c 0
 83 471 79 487 78 505 c 0
 77 523 78 542 82 561 c 0
 87 583 95 604 106 623 c 0
 128 663 177 725 253 810 c 0
 329 895 427 1001 547 1128 c 0
 653 1240 739 1333 805 1405 c 0
 830 1431 855 1450 881 1464 c 0
 907 1478 930 1485 950 1485 c 0
 957 1485 962 1486 965 1487 c 0
 988 1487 1008 1481 1024 1470 c 0
 1043 1457 1053 1437 1053 1407 c 0
 1053 1398 1051 1341 1021 1181 c 0
 1003 1082 986 999 971 932 c 0
 949 831 927 731 907 631 c 1
 926 631 948 630 971 629 c 0
 1004 629 1024 621 1034 605 c 0
 1044 589 1045 570 1040 545 c 0
 1033 516 1023 493 1008 475 c 0
 988 455 961 444 928 444 c 0
 906 444 885 445 866 446 c 1
 824 258 803 150 803 123 c 0
EndSplineSet
Validated: 1
EndChar

StartChar: five
Encoding: 53 53 28
Width: 1128
GlyphClass: 2
Flags: HMW
HStem: -37 223<332 389> 836 231<621 776> 1219 231<1049 1130> 1241 213
LayerCount: 2
Fore
SplineSet
184 1149 m 0xd0
 196 1191 206 1223 211 1243 c 1
 207 1255 205 1269 205 1283 c 0
 205 1297 207 1313 211 1329 c 0
 221 1373 241 1407 272 1432 c 0
 294 1450 317 1458 342 1458 c 0
 390 1458 507 1457 694 1454 c 0xd0
 885 1451 1027 1450 1118 1450 c 0
 1143 1450 1159 1439 1169 1417 c 0
 1176 1402 1180 1384 1180 1365 c 0
 1180 1350 1177 1334 1173 1317 c 0
 1163 1277 1147 1251 1122 1237 c 0
 1115 1233 1109 1229 1102 1226 c 0
 1095 1223 1086 1221 1075 1220 c 0
 1064 1219 1057 1219 1052 1219 c 0xe0
 1047 1219 1040 1219 1031 1220 c 0
 1022 1221 1017 1221 1014 1221 c 0
 996 1221 963 1224 915 1229 c 0
 866 1233 822 1236 784 1238 c 0
 746 1240 695 1241 629 1241 c 0
 563 1241 497 1239 430 1235 c 1
 401 1133 384 1071 379 1051 c 0
 374 1026 370 1008 367 997 c 0
 364 986 360 972 356 954 c 1
 397 981 445 1005 498 1024 c 0
 574 1053 656 1067 743 1067 c 0
 809 1067 865 1055 911 1032 c 0
 953 1007 986 975 1009 934 c 0
 1032 893 1045 846 1049 792 c 0
 1050 780 1050 768 1050 756 c 0
 1050 712 1044 665 1032 616 c 0
 1009 515 976 424 932 341 c 0
 888 258 837 189 780 134 c 0
 723 79 658 36 584 6 c 0
 509 -23 430 -37 348 -37 c 0
 285 -37 229 -30 178 -16 c 0
 127 -2 88 15 59 37 c 0
 30 59 8 83 -8 109 c 0
 -24 135 -37 161 -45 190 c 0
 -48 206 -49 221 -49 235 c 0
 -49 249 -48 262 -45 274 c 0
 -44 282 -42 291 -39 299 c 0
 -25 329 -2 353 31 369 c 0
 49 376 63 380 73 383 c 0
 83 386 91 387 97 387 c 0
 103 387 110 386 115 385 c 0
 131 384 144 376 154 362 c 0
 162 351 170 336 180 317 c 0
 217 230 284 186 380 186 c 0
 476 186 561 222 633 293 c 0
 708 367 761 466 791 592 c 0
 798 623 801 651 801 677 c 0
 801 714 793 746 778 772 c 0
 753 814 707 836 637 836 c 0
 604 836 568 831 530 823 c 0
 511 819 484 810 449 795 c 0
 441 792 429 785 415 775 c 0
 401 765 390 758 385 754 c 0
 359 735 338 719 322 705 c 0
 287 679 249 663 211 659 c 2
 197 659 l 2
 179 659 161 664 145 672 c 0
 120 684 107 710 104 750 c 0
 103 759 103 767 103 777 c 0
 103 806 107 839 113 877 c 0
 117 899 122 920 127 942 c 0
 138 990 157 1059 184 1149 c 0xd0
EndSplineSet
Validated: 1
EndChar

StartChar: six
Encoding: 54 54 29
Width: 1128
GlyphClass: 2
Flags: HMW
HStem: -45 221<375 473> 778 233<608 783>
LayerCount: 2
Fore
SplineSet
1077 739 m 0
 1078 728 1078 716 1078 704 c 0
 1078 648 1071 586 1055 516 c 0
 1037 438 1008 365 967 297 c 0
 885 156 776 57 639 -2 c 0
 567 -31 494 -45 420 -45 c 0
 331 -45 257 -29 197 4 c 0
 140 37 99 84 74 146 c 0
 50 206 38 276 38 355 c 0
 38 419 45 510 72 629 c 0
 101 752 136 861 180 957 c 0
 224 1053 273 1134 326 1199 c 0
 379 1264 439 1319 506 1364 c 0
 577 1409 650 1442 724 1465 c 0
 798 1488 879 1502 965 1509 c 2
 985 1509 l 2
 1014 1509 1038 1504 1057 1493 c 0
 1080 1479 1092 1458 1092 1430 c 0
 1092 1424 1092 1418 1090 1413 c 0
 1086 1393 1072 1372 1047 1350 c 0
 1021 1328 994 1314 967 1307 c 0
 951 1303 925 1297 892 1290 c 0
 859 1283 831 1277 808 1272 c 0
 785 1267 758 1258 727 1247 c 0
 667 1225 601 1183 530 1122 c 0
 495 1089 458 1045 418 989 c 0
 400 960 385 934 371 909 c 1
 411 935 454 956 502 971 c 0
 580 998 663 1012 750 1012 c 0
 817 1012 875 1002 924 983 c 0
 969 964 1004 935 1031 895 c 0
 1058 855 1073 803 1077 739 c 0
381 195 m 0
 407 183 436 176 469 176 c 2
 473 176 l 1
 475 176 l 2
 520 176 567 192 616 223 c 0
 665 254 708 295 744 344 c 0
 780 393 804 443 815 492 c 0
 827 544 833 588 833 624 c 0
 833 670 824 703 805 725 c 0
 789 745 767 759 742 767 c 0
 717 775 683 778 641 778 c 0
 575 778 512 762 449 731 c 0
 386 700 332 660 287 614 c 1
 275 562 265 519 260 485 c 0
 258 468 256 451 256 434 c 0
 256 394 263 355 276 317 c 0
 286 288 299 264 316 244 c 0
 333 224 355 207 381 195 c 0
EndSplineSet
Validated: 1
EndChar

StartChar: seven
Encoding: 55 55 30
Width: 1128
GlyphClass: 2
Flags: HMW
HStem: -47 43G<25 40> 1231 231<571 685 571 872>
LayerCount: 2
Fore
SplineSet
516 1231 m 0
 390 1228 308 1222 270 1212 c 0
 262 1211 254 1210 244 1209 c 0
 234 1208 225 1210 215 1214 c 0
 200 1221 189 1231 184 1245 c 0
 176 1263 172 1283 172 1304 c 0
 172 1312 173 1320 174 1329 c 1
 171 1315 171 1316 174 1331 c 0
 181 1360 194 1384 213 1403 c 0
 233 1422 263 1435 301 1442 c 0
 373 1456 490 1462 651 1462 c 0
 718 1462 809 1459 922 1454 c 0
 1030 1450 1086 1448 1090 1448 c 0
 1106 1448 1122 1445 1137 1437 c 0
 1152 1429 1164 1417 1174 1401 c 0
 1181 1390 1184 1377 1184 1362 c 0
 1184 1353 1183 1342 1180 1331 c 0
 1175 1306 1161 1279 1141 1249 c 0
 1112 1208 1065 1148 1000 1068 c 0
 935 988 868 906 797 823 c 0
 723 740 631 629 520 490 c 0
 409 351 303 211 199 66 c 0
 172 26 139 -4 104 -23 c 0
 77 -39 52 -47 29 -47 c 0
 22 -47 15 -46 8 -45 c 0
 -25 -37 -44 -17 -51 16 c 0
 -54 31 -53 48 -49 65 c 0
 -45 82 -37 101 -25 121 c 0
 72 258 176 393 285 528 c 0
 397 663 488 771 560 851 c 0
 632 931 696 1004 751 1070 c 0
 806 1136 846 1190 872 1231 c 1
 818 1232 761 1233 702 1233 c 0
 643 1233 581 1232 516 1231 c 0
EndSplineSet
Validated: 1
EndChar

StartChar: eight
Encoding: 56 56 31
Width: 1128
GlyphClass: 2
Flags: HMW
HStem: -57 225<438 438> 1274 197<683 785 713 785>
VStem: 823 229
LayerCount: 2
Fore
SplineSet
1063 504 m 0
 1062 479 1058 453 1053 426 c 0
 1043 381 1028 337 1005 293 c 0
 982 249 952 206 915 163 c 0
 878 120 838 82 793 51 c 0
 747 20 689 -7 619 -27 c 0
 549 -47 476 -57 400 -57 c 0
 324 -57 260 -48 205 -29 c 0
 152 -10 111 15 83 46 c 0
 55 77 34 113 20 155 c 0
 7 195 1 235 1 275 c 0
 1 310 5 357 18 414 c 0
 29 460 53 510 88 564 c 0
 123 618 168 669 221 715 c 0
 259 748 299 774 340 793 c 1
 296 823 264 860 244 905 c 0
 226 943 216 983 216 1022 c 0
 216 1042 218 1061 223 1081 c 0
 227 1099 233 1118 241 1137 c 0
 249 1156 258 1178 272 1204 c 0
 286 1230 301 1255 319 1279 c 0
 337 1303 360 1327 388 1351 c 0
 416 1375 446 1395 479 1411 c 0
 514 1429 556 1443 604 1454 c 0
 652 1465 703 1470 758 1470 c 0
 813 1470 861 1465 905 1454 c 0
 949 1443 985 1429 1012 1411 c 0
 1039 1393 1061 1373 1078 1350 c 0
 1095 1327 1107 1303 1114 1279 c 0
 1121 1255 1125 1230 1127 1203 c 0
 1128 1190 1129 1178 1129 1166 c 0
 1129 1154 1128 1144 1127 1134 c 0
 1125 1114 1122 1094 1117 1075 c 0
 1112 1056 1106 1038 1098 1021 c 0
 1090 1004 1081 989 1071 975 c 0
 1061 961 1049 947 1035 933 c 0
 1021 919 1008 907 996 897 c 0
 984 887 970 876 952 864 c 0
 934 852 920 843 909 838 c 0
 898 833 885 824 870 813 c 1
 901 797 928 778 950 758 c 0
 980 729 1004 702 1020 675 c 0
 1036 648 1048 619 1055 588 c 0
 1061 562 1063 537 1063 516 c 0
 1063 512 1063 508 1063 504 c 0
547 1212 m 0
 495 1171 464 1126 453 1077 c 0
 451 1069 450 1061 450 1053 c 0
 450 1026 461 1000 483 977 c 0
 514 946 571 913 653 879 c 1
 709 901 761 930 809 965 c 0
 857 1000 884 1031 891 1057 c 0
 894 1070 896 1082 896 1095 c 0
 896 1115 892 1135 884 1156 c 0
 871 1189 849 1217 819 1240 c 0
 789 1263 755 1274 715 1274 c 2
 713 1274 l 2
 654 1274 599 1253 547 1212 c 0
328 199 m 0
 368 179 412 168 463 168 c 0
 498 168 535 173 574 184 c 0
 613 195 650 211 684 231 c 0
 718 251 748 278 774 309 c 0
 799 340 815 375 823 412 c 0
 827 432 831 451 834 469 c 0
 834 487 830 507 824 530 c 0
 818 553 808 576 792 596 c 0
 776 616 752 637 721 659 c 0
 690 681 651 702 606 721 c 1
 509 695 425 653 354 594 c 0
 284 535 242 472 227 405 c 0
 223 389 221 373 221 358 c 0
 221 331 228 306 240 283 c 0
 260 246 290 218 328 199 c 0
EndSplineSet
Validated: 1
EndChar

StartChar: nine
Encoding: 57 57 32
Width: 1128
GlyphClass: 2
Flags: HMW
HStem: -47 161 457 231<401 569> 1290 223<657 823 680 823>
LayerCount: 2
Fore
SplineSet
139 -45 m 0
 132 -45 126 -46 121 -47 c 0
 92 -47 69 -41 51 -29 c 0
 29 -16 18 4 18 30 c 0
 18 34 17 39 18 43 c 2
 18 49 l 2
 22 71 36 93 61 114 c 0
 86 135 112 150 139 158 c 0
 155 162 182 167 218 174 c 0
 254 181 286 188 314 195 c 0
 342 202 374 210 408 221 c 0
 482 246 549 285 612 338 c 0
 653 375 693 417 731 465 c 0
 746 484 759 502 770 520 c 1
 739 504 705 491 670 481 c 0
 604 465 525 457 434 457 c 0
 368 457 310 472 258 502 c 0
 209 531 171 568 145 615 c 0
 119 662 102 717 94 779 c 0
 91 801 90 823 90 845 c 0
 90 886 94 927 104 969 c 0
 122 1047 151 1119 191 1187 c 0
 231 1255 279 1312 333 1360 c 0
 387 1408 448 1446 518 1473 c 0
 589 1500 661 1513 733 1513 c 0
 912 1513 1027 1449 1079 1319 c 0
 1102 1260 1114 1189 1114 1107 c 0
 1114 1017 1100 914 1073 797 c 0
 1046 680 1010 575 964 484 c 0
 918 393 867 317 810 256 c 0
 753 195 688 142 614 98 c 0
 539 54 463 22 384 -1 c 0
 305 -24 224 -38 139 -45 c 0
414 1137 m 0
 379 1091 355 1042 344 993 c 0
 334 951 330 914 330 881 c 0
 330 754 400 689 541 688 c 0
 598 688 656 700 715 725 c 0
 774 750 822 781 862 819 c 0
 863 824 865 831 866 838 c 0
 874 873 884 922 895 983 c 0
 897 1000 899 1017 899 1034 c 0
 899 1074 892 1113 879 1151 c 0
 869 1180 856 1205 839 1225 c 0
 822 1245 800 1261 773 1273 c 0
 746 1285 717 1290 684 1290 c 2
 680 1290 l 2
 634 1290 587 1276 539 1248 c 0
 491 1220 449 1183 414 1137 c 0
EndSplineSet
Validated: 1
EndChar

StartChar: colon
Encoding: 58 58 33
Width: 1128
GlyphClass: 2
Flags: HMW
HStem: 55 369<443 552> 604 367<586 670 586 670>
VStem: 344 442
LayerCount: 2
Fore
SplineSet
780 827 m 0
 770 787 755 747 735 705 c 0
 720 671 697 645 666 627 c 0
 639 612 614 604 592 604 c 2
 586 604 l 2
 549 605 520 614 500 629 c 0
 477 646 466 670 466 701 c 0
 466 707 466 714 467 721 c 0
 470 746 474 771 480 796 c 0
 486 821 493 844 499 866 c 0
 505 888 515 907 531 923 c 0
 547 939 565 949 583 956 c 0
 601 963 617 968 630 969 c 0
 643 970 652 971 659 971 c 0
 681 971 699 970 712 967 c 0
 725 964 738 958 751 950 c 0
 764 942 773 929 780 913 c 0
 787 897 789 878 786 856 c 0
 783 846 781 837 780 827 c 0
653 256 m 0
 646 223 634 189 616 154 c 0
 600 120 575 94 541 78 c 0
 512 64 485 56 459 55 c 0
 428 55 399 66 374 86 c 0
 353 103 343 125 343 153 c 0
 343 159 343 165 344 172 c 0
 351 210 355 233 356 238 c 0
 357 243 362 255 367 274 c 0
 372 293 376 308 379 319 c 0
 384 341 395 360 411 376 c 0
 427 392 444 403 463 410 c 0
 492 420 518 424 541 424 c 0
 564 424 584 421 600 415 c 0
 616 409 631 397 645 379 c 0
 656 364 662 346 662 325 c 0
 662 321 662 316 662 311 c 0
 661 293 657 275 653 256 c 0
EndSplineSet
Validated: 1
EndChar

StartChar: semicolon
Encoding: 59 59 34
Width: 1128
GlyphClass: 2
Flags: HMW
HStem: 518 369<695 786>
VStem: 580 319
LayerCount: 2
Fore
SplineSet
893 743 m 0
 883 703 868 662 848 618 c 0
 833 584 809 559 778 541 c 0
 751 526 727 518 705 518 c 0
 686 518 666 522 646 530 c 0
 626 538 610 551 598 567 c 0
 585 583 579 602 579 623 c 0
 579 627 580 631 580 635 c 2
 580 637 l 2
 583 662 587 686 594 711 c 0
 601 736 607 758 612 780 c 0
 617 802 628 822 644 838 c 0
 660 854 676 865 694 870 c 0
 724 880 751 886 776 887 c 0
 795 887 811 885 824 882 c 0
 837 879 850 873 863 865 c 0
 876 857 886 845 893 829 c 0
 900 811 902 792 899 770 c 0
 896 762 894 753 893 743 c 0
721 162 m 0
 721 158 720 154 717 150 c 0
 703 105 621 -75 469 -389 c 0
 453 -423 430 -449 403 -467 c 0
 380 -481 359 -488 338 -488 c 0
 336 -488 334 -487 332 -487 c 0
 299 -487 272 -477 252 -457 c 0
 238 -443 231 -424 231 -403 c 0
 231 -395 231 -388 233 -379 c 0
 238 -352 271 -270 328 -135 c 0
 385 0 429 101 459 168 c 0
 470 191 482 210 495 226 c 0
 508 242 522 253 537 258 c 0
 556 265 574 269 590 270 c 0
 595 270 601 269 608 268 c 0
 635 268 661 262 686 248 c 0
 701 240 712 227 719 211 c 0
 724 196 725 180 721 162 c 0
EndSplineSet
Validated: 1
EndChar

StartChar: less
Encoding: 60 60 35
Width: 1128
GlyphClass: 2
Flags: HMW
HStem: -49 43G<682 692 692 711>
LayerCount: 2
Fore
SplineSet
692 -49 m 2
 672 -49 650 -45 627 -37 c 0
 596 -26 560 -1 520 37 c 0
 480 75 439 120 397 173 c 0
 355 226 313 278 272 331 c 0
 231 384 188 438 142 494 c 0
 96 550 57 594 23 627 c 0
 7 643 -2 665 -2 694 c 0
 -2 706 0 720 3 734 c 0
 6 748 11 763 18 778 c 0
 32 807 51 828 76 840 c 0
 161 897 261 969 378 1056 c 0
 495 1143 601 1221 699 1291 c 0
 797 1361 882 1417 956 1458 c 0
 986 1476 1013 1485 1038 1485 c 0
 1057 1485 1073 1480 1085 1470 c 0
 1110 1452 1125 1429 1130 1399 c 0
 1133 1385 1132 1370 1129 1354 c 0
 1126 1338 1117 1321 1102 1303 c 0
 1080 1276 1042 1244 989 1210 c 0
 906 1157 785 1075 627 964 c 0
 469 853 360 777 303 737 c 1
 337 700 377 655 421 600 c 0
 465 545 505 495 540 449 c 0
 575 403 612 354 654 306 c 0
 696 258 735 218 770 189 c 0
 805 160 828 134 838 109 c 0
 845 93 845 74 840 55 c 0
 837 41 831 28 823 16 c 0
 797 -21 760 -42 711 -49 c 2
 692 -49 l 2
EndSplineSet
Validated: 1
EndChar

StartChar: equal
Encoding: 61 61 36
Width: 1128
GlyphClass: 2
Flags: HMW
HStem: 481 219<203 271> 891 217
LayerCount: 2
Fore
SplineSet
922 1108 m 0
 959 1108 982 1098 993 1079 c 0
 1000 1066 1004 1052 1004 1035 c 0
 1004 1027 1003 1018 1001 1008 c 2
 1001 1006 l 2
 998 991 994 977 989 965 c 0
 984 953 976 940 965 927 c 0
 954 914 940 904 922 897 c 0
 910 893 897 891 885 891 c 2
 868 891 l 2
 823 892 776 893 727 893 c 2
 516 887 l 2
 427 884 361 883 319 883 c 0
 282 883 256 893 238 913 c 0
 225 928 218 946 218 966 c 0
 218 974 219 982 221 991 c 2
 221 997 l 2
 228 1026 243 1051 267 1074 c 0
 291 1097 321 1108 356 1108 c 2
 365 1108 l 2
 440 1106 521 1104 610 1104 c 0
 670 1104 733 1105 799 1106 c 0
 867 1107 908 1108 922 1108 c 0
791 489 m 2
 776 489 l 2
 747 490 720 492 694 492 c 0
 641 492 560 489 449 486 c 0
 338 483 263 481 223 481 c 0
 183 481 156 492 141 514 c 0
 131 529 126 546 126 566 c 0
 126 575 127 584 129 594 c 2
 129 598 l 2
 136 627 152 651 177 671 c 0
 202 691 233 700 270 700 c 0
 271 700 283 699 303 698 c 0
 330 698 360 698 393 698 c 0
 459 698 536 698 625 700 c 2
 827 707 l 2
 864 707 888 697 900 678 c 0
 908 665 912 649 912 632 c 0
 912 624 911 615 909 606 c 2
 909 604 l 2
 906 589 902 576 896 564 c 0
 890 552 882 540 872 528 c 0
 861 514 847 504 829 496 c 0
 817 492 805 489 791 489 c 2
EndSplineSet
Validated: 1
EndChar

StartChar: greater
Encoding: 62 62 37
Width: 1128
GlyphClass: 2
Flags: HMW
HStem: -37 43G<81 103>
LayerCount: 2
Fore
SplineSet
90 -37 m 0
 72 -37 57 -33 45 -23 c 0
 33 -13 23 -2 15 10 c 0
 7 22 3 35 -0 49 c 0
 -3 63 -2 78 1 94 c 0
 4 110 13 127 27 145 c 0
 49 172 86 204 141 238 c 0
 224 291 346 373 504 484 c 0
 662 595 769 671 825 711 c 1
 790 748 751 793 708 848 c 0
 665 903 625 953 590 999 c 0
 555 1045 516 1094 474 1142 c 0
 432 1190 394 1229 359 1258 c 0
 324 1287 303 1314 293 1339 c 0
 286 1355 286 1374 291 1393 c 0
 294 1407 299 1420 307 1432 c 0
 333 1469 371 1490 420 1497 c 2
 438 1497 l 2
 458 1497 481 1493 504 1485 c 0
 535 1474 571 1450 611 1412 c 0
 651 1374 692 1329 734 1276 c 0
 776 1223 817 1170 858 1117 c 0
 899 1064 942 1010 988 954 c 0
 1034 898 1074 854 1108 821 c 0
 1124 805 1133 783 1133 754 c 0
 1133 742 1130 728 1127 714 c 0
 1124 700 1119 685 1112 670 c 0
 1098 641 1080 620 1055 608 c 0
 970 552 870 480 753 393 c 0
 636 306 529 227 431 157 c 0
 333 87 248 31 174 -10 c 0
 144 -28 116 -37 90 -37 c 0
EndSplineSet
Validated: 1
EndChar

StartChar: question
Encoding: 63 63 38
Width: 1128
GlyphClass: 2
Flags: HMW
HStem: -53 365<229 386 252 386> 1042 43G<259 262 262 279> 1280 223<622 635>
VStem: 291 238
LayerCount: 2
Fore
SplineSet
391 412 m 0
 380 412 368 413 356 416 c 0
 309 430 286 459 286 503 c 0
 286 515 287 529 291 543 c 0
 295 562 302 582 313 604 c 0
 332 644 355 681 380 715 c 0
 405 749 431 778 458 803 c 0
 485 828 512 850 539 871 c 0
 566 892 591 913 616 931 c 0
 641 949 663 967 682 985 c 0
 723 1023 748 1063 758 1104 c 0
 764 1127 766 1148 766 1166 c 0
 766 1197 757 1221 741 1237 c 0
 714 1266 668 1280 602 1280 c 0
 587 1280 571 1277 554 1269 c 0
 537 1261 521 1253 507 1243 c 0
 493 1233 477 1220 459 1202 c 0
 441 1184 427 1170 416 1158 c 0
 405 1146 391 1131 375 1111 c 0
 359 1091 343 1076 327 1064 c 0
 311 1052 295 1045 279 1042 c 2
 262 1042 l 2
 255 1042 248 1044 240 1047 c 0
 232 1050 220 1054 205 1061 c 0
 180 1077 168 1100 168 1130 c 0
 168 1137 169 1145 170 1155 c 0
 175 1180 189 1207 209 1237 c 0
 231 1267 256 1296 283 1324 c 0
 310 1352 342 1380 380 1409 c 0
 418 1438 460 1461 506 1478 c 0
 552 1495 599 1503 645 1503 c 0
 787 1503 888 1467 947 1394 c 0
 985 1347 1005 1285 1005 1209 c 0
 1005 1167 999 1120 987 1069 c 0
 977 1029 963 992 944 959 c 0
 925 926 903 897 878 874 c 0
 853 851 827 830 800 810 c 0
 773 790 746 771 719 753 c 0
 692 735 666 715 642 695 c 0
 618 675 595 652 575 625 c 0
 555 598 539 566 528 532 c 0
 513 491 492 459 463 436 c 0
 441 420 417 412 391 412 c 0
252 -53 m 2
 207 -53 174 -37 152 -4 c 0
 134 22 125 50 125 82 c 0
 125 97 127 113 131 129 c 0
 143 180 172 222 217 256 c 0
 265 293 313 311 362 311 c 0
 408 311 444 295 469 262 c 0
 486 239 494 212 494 181 c 0
 494 166 492 151 488 135 c 0
 476 84 452 42 412 8 c 0
 372 -26 326 -46 274 -53 c 2
 252 -53 l 2
EndSplineSet
Validated: 1
EndChar

StartChar: at
Encoding: 64 64 39
Width: 1128
GlyphClass: 2
Flags: HMW
HStem: -291 225<309 425 344 425> 215 215<489 491> 757 206 1231 233<727 812>
VStem: -13 223 943 202
LayerCount: 2
Fore
SplineSet
635 303 m 1
 584 244 525 215 457 215 c 0
 375 215 317 243 284 300 c 0
 265 332 255 372 255 421 c 0
 255 459 261 501 272 549 c 0
 284 604 302 653 324 699 c 0
 346 745 370 784 397 817 c 0
 424 850 454 878 487 901 c 0
 544 942 606 963 672 963 c 0
 710 963 746 954 780 938 c 0
 810 924 833 906 848 883 c 0
 859 864 862 845 858 827 c 0
 857 817 852 808 844 797 c 0
 836 786 826 776 815 766 c 0
 804 756 792 749 780 745 c 0
 762 740 749 737 739 737 c 0
 723 737 705 740 686 745 c 0
 681 746 671 750 659 754 c 0
 645 757 633 758 620 757 c 0
 607 756 593 751 579 742 c 0
 565 733 551 723 537 709 c 0
 523 695 511 676 499 653 c 0
 487 630 478 603 473 573 c 0
 469 557 466 541 464 526 c 0
 462 511 462 495 463 479 c 0
 464 446 477 430 502 430 c 0
 517 430 529 433 539 438 c 0
 553 443 563 453 573 467 c 0
 595 497 616 549 635 623 c 0
 643 654 671 679 717 698 c 0
 743 708 766 714 786 715 c 0
 801 715 813 712 823 707 c 0
 842 698 851 683 851 663 c 0
 851 658 851 652 850 647 c 0
 850 644 849 642 846 639 c 0
 830 591 818 551 811 518 c 0
 803 481 799 450 799 424 c 0
 799 414 800 407 803 403 c 0
 806 396 810 393 815 393 c 0
 818 396 821 401 825 406 c 0
 835 422 845 443 856 469 c 0
 872 518 885 563 895 604 c 0
 911 672 923 736 931 794 c 0
 939 852 942 901 943 941 c 0
 943 945 943 950 943 954 c 0
 943 989 941 1022 936 1051 c 0
 931 1084 924 1109 916 1128 c 0
 908 1147 899 1164 886 1178 c 0
 873 1192 861 1201 851 1207 c 0
 841 1213 828 1219 814 1223 c 0
 800 1227 789 1229 781 1230 c 0
 773 1231 764 1231 750 1231 c 0
 705 1231 657 1215 609 1184 c 0
 561 1153 514 1108 469 1049 c 0
 424 990 382 916 342 828 c 0
 302 740 271 645 248 541 c 0
 226 450 213 367 210 295 c 0
 209 276 209 258 209 241 c 0
 209 193 212 153 219 121 c 0
 229 77 244 40 264 11 c 0
 284 -18 307 -38 330 -49 c 0
 353 -60 380 -66 410 -66 c 0
 440 -66 468 -62 495 -55 c 0
 522 -48 544 -41 562 -33 c 0
 580 -25 599 -13 617 2 c 0
 635 17 651 31 663 44 c 0
 675 57 689 73 705 92 c 0
 713 103 719 112 724 118 c 0
 729 124 735 131 743 140 c 0
 751 149 759 156 765 160 c 0
 771 164 778 168 786 172 c 0
 794 176 803 178 813 178 c 0
 823 178 832 176 840 172 c 0
 852 167 861 160 868 152 c 0
 875 144 880 134 882 122 c 0
 884 110 884 98 881 86 c 0
 876 63 863 35 844 2 c 0
 832 -18 820 -36 809 -51 c 0
 798 -66 784 -84 766 -106 c 0
 748 -128 731 -148 713 -164 c 0
 695 -180 672 -197 645 -214 c 0
 618 -231 590 -245 561 -255 c 0
 532 -265 500 -274 465 -281 c 0
 430 -288 393 -291 356 -291 c 2
 344 -291 l 2
 273 -291 212 -271 159 -233 c 0
 106 -195 65 -144 36 -78 c 0
 7 -12 -10 67 -13 161 c 0
 -13 172 -14 183 -14 195 c 0
 -14 279 -4 370 18 467 c 0
 47 589 82 702 124 808 c 0
 166 914 212 1005 263 1084 c 0
 314 1163 369 1231 427 1289 c 0
 485 1347 545 1391 606 1420 c 0
 667 1449 730 1464 791 1464 c 0
 835 1464 873 1461 908 1453 c 0
 943 1445 976 1432 1007 1414 c 0
 1038 1396 1062 1371 1081 1341 c 0
 1100 1311 1115 1274 1127 1229 c 0
 1139 1184 1145 1131 1145 1071 c 0
 1145 945 1122 788 1077 600 c 0
 1052 496 1018 406 973 328 c 0
 947 284 917 249 882 222 c 0
 847 195 810 182 770 182 c 0
 711 182 671 204 649 246 c 0
 641 261 636 280 635 303 c 1
EndSplineSet
Validated: 1
EndChar

StartChar: A
Encoding: 65 65 40
Width: 1128
GlyphClass: 2
Flags: HMW
HStem: -12 43G<79 95> 514 188<879 879>
VStem: 879 224 889 238
LayerCount: 2
Fore
SplineSet
223 100 m 0xe0
 197 51 168 18 137 2 c 0
 119 -8 103 -12 87 -12 c 0
 71 -12 57 -9 45 -2 c 0
 25 9 11 26 6 49 c 0
 2 67 2 87 7 108 c 0
 12 129 20 151 31 174 c 0
 49 216 107 315 205 471 c 1
 194 486 188 504 188 524 c 0
 188 528 188 533 188 537 c 0
 188 538 189 540 190 541 c 0
 195 566 212 587 238 606 c 0
 260 624 284 637 313 647 c 1
 563 1020 748 1271 868 1399 c 0
 897 1428 922 1448 944 1462 c 0
 966 1477 989 1485 1014 1485 c 0
 1021 1485 1026 1486 1030 1487 c 0
 1056 1487 1078 1480 1094 1466 c 0
 1116 1451 1127 1429 1127 1399 c 0
 1127 1396 1126 1393 1126 1389 c 0xd0
 1116 1225 1109 993 1104 694 c 0
 1102 599 1102 518 1102 452 c 0
 1102 402 1102 361 1103 327 c 0
 1105 248 1109 200 1114 182 c 0
 1118 167 1121 152 1121 138 c 0
 1121 129 1120 121 1118 113 c 0
 1117 109 1115 103 1114 98 c 0
 1106 73 1093 53 1076 36 c 0
 1059 19 1040 6 1020 -2 c 0
 997 -9 982 -12 977 -12 c 0
 961 -12 945 -8 930 2 c 0
 904 18 888 50 883 98 c 0
 879 125 876 190 876 291 c 0
 876 352 877 426 879 514 c 1
 718 507 570 493 438 473 c 1
 370 367 298 242 223 100 c 0xe0
569 680 m 1
 682 692 786 699 879 702 c 1
 889 1163 l 1
 813 1065 706 904 569 680 c 1
EndSplineSet
Validated: 1
EndChar

StartChar: B
Encoding: 66 66 41
Width: 1128
GlyphClass: 2
Flags: HMW
HStem: -47 43G<103 118> 584 201 1239 213<672 682>
LayerCount: 2
Fore
SplineSet
-12 86 m 0
 0 126 17 193 39 287 c 0
 80 466 122 664 166 881 c 0
 184 970 196 1029 203 1060 c 0
 210 1091 219 1132 233 1183 c 0
 247 1234 257 1269 262 1288 c 0
 273 1330 293 1364 321 1387 c 0
 349 1410 379 1421 410 1421 c 2
 416 1421 l 1
 453 1432 497 1441 549 1446 c 0
 571 1449 593 1450 616 1451 c 0
 639 1452 658 1452 672 1452 c 2
 713 1452 l 1
 737 1452 l 2
 834 1452 917 1435 987 1401 c 0
 1055 1367 1101 1315 1126 1247 c 0
 1142 1208 1150 1166 1150 1120 c 0
 1150 1085 1146 1049 1137 1010 c 0
 1119 932 1085 864 1034 807 c 0
 997 763 955 728 907 702 c 1
 933 688 957 673 979 655 c 0
 1014 625 1043 591 1065 553 c 0
 1081 525 1089 498 1089 471 c 0
 1089 461 1087 450 1085 440 c 0
 1085 439 1084 438 1083 438 c 0
 1071 385 1046 333 1008 281 c 0
 970 229 921 181 862 138 c 0
 803 95 730 59 643 29 c 0
 554 -1 460 -21 362 -29 c 1
 352 -22 342 -19 330 -19 c 0
 315 -19 300 -24 283 -35 c 1
 216 -40 174 -44 158 -45 c 0
 142 -46 126 -47 111 -47 c 0
 96 -47 82 -46 70 -43 c 2
 66 -43 l 2
 35 -43 10 -31 -6 -8 c 0
 -15 5 -19 19 -19 37 c 0
 -19 48 -17 60 -14 72 c 0
 -14 77 -13 82 -12 86 c 0
383 823 m 0
 380 809 378 796 375 784 c 1
 431 783 481 782 526 781 c 0
 531 781 536 781 540 781 c 0
 580 781 614 784 644 790 c 0
 677 796 706 803 730 813 c 0
 754 823 776 834 796 848 c 0
 816 862 831 875 843 889 c 0
 855 903 866 918 876 935 c 0
 886 952 894 967 899 981 c 0
 904 995 908 1009 911 1024 c 0
 915 1040 917 1055 917 1070 c 0
 917 1083 915 1096 912 1108 c 0
 906 1134 895 1154 879 1170 c 0
 863 1186 843 1199 821 1210 c 0
 783 1229 740 1239 692 1239 c 0
 689 1239 685 1239 682 1239 c 0
 616 1239 551 1233 485 1221 c 1
 478 1196 469 1159 457 1110 c 0
 428 1009 403 913 383 823 c 0
798 339 m 0
 822 366 836 389 840 408 c 0
 843 419 839 431 830 446 c 0
 821 461 805 478 781 495 c 0
 757 512 721 529 673 545 c 0
 625 561 568 574 504 584 c 1
 334 584 l 1
 296 396 268 255 250 164 c 1
 264 164 284 164 311 165 c 0
 338 166 361 167 379 168 c 0
 440 171 500 181 557 198 c 0
 614 215 662 236 702 261 c 0
 742 286 774 312 798 339 c 0
EndSplineSet
Validated: 1
EndChar

StartChar: C
Encoding: 67 67 42
Width: 1128
GlyphClass: 2
Flags: HMW
HStem: -63 233<253 380 283 380> 1245 215<853 855>
LayerCount: 2
Fore
SplineSet
1214 1417 m 0
 1214 1364 1207 1307 1192 1247 c 0
 1182 1206 1177 1182 1174 1174 c 0
 1166 1140 1146 1105 1115 1070 c 0
 1084 1035 1055 1017 1028 1014 c 0
 1023 1014 1017 1013 1010 1012 c 0
 987 1012 966 1020 948 1036 c 0
 927 1053 917 1074 917 1100 c 0
 917 1108 918 1115 920 1124 c 0
 923 1134 929 1158 940 1198 c 1
 925 1209 915 1217 911 1220 c 0
 907 1223 901 1228 893 1233 c 0
 878 1241 863 1245 848 1245 c 0
 810 1245 765 1233 713 1208 c 0
 661 1183 608 1148 555 1101 c 0
 502 1054 450 1000 400 939 c 0
 350 878 306 809 267 732 c 0
 228 655 200 578 182 502 c 0
 175 473 173 444 173 416 c 0
 173 391 175 367 180 343 c 0
 191 292 213 250 245 218 c 0
 277 186 314 170 358 170 c 0
 402 170 445 174 487 183 c 0
 529 192 569 203 604 217 c 0
 639 231 670 245 697 259 c 0
 724 273 749 288 772 303 c 0
 792 317 811 328 827 336 c 0
 843 344 862 348 880 347 c 0
 898 346 914 340 926 328 c 0
 944 310 952 290 952 267 c 0
 952 260 951 253 949 245 c 0
 941 213 919 177 879 139 c 0
 738 4 548 -64 308 -64 c 0
 306 -64 303 -63 301 -63 c 2
 283 -63 l 2
 224 -63 170 -54 121 -35 c 0
 73 -16 35 10 8 43 c 0
 -19 76 -41 114 -57 156 c 0
 -73 198 -83 243 -84 291 c 0
 -84 296 -84 302 -84 307 c 0
 -84 349 -80 392 -70 434 c 0
 -47 532 -14 628 26 720 c 0
 66 812 111 895 161 969 c 0
 211 1043 266 1111 326 1174 c 0
 387 1235 450 1286 514 1328 c 0
 578 1370 642 1402 705 1425 c 0
 768 1448 826 1460 881 1460 c 0
 925 1460 964 1457 1001 1450 c 1
 1012 1465 1025 1478 1040 1489 c 0
 1062 1505 1084 1515 1106 1516 c 0
 1114 1517 1119 1518 1121 1518 c 2
 1124 1518 l 2
 1144 1518 1164 1511 1180 1497 c 0
 1203 1478 1214 1451 1214 1417 c 0
EndSplineSet
Validated: 1
EndChar

StartChar: D
Encoding: 68 68 43
Width: 1128
GlyphClass: 2
Flags: HMW
HStem: -63 225<485 602 516 602> 1421 41G<379 417>
LayerCount: 2
Fore
SplineSet
388 176 m 0
 443 166 510 162 586 162 c 0
 619 162 653 174 688 197 c 0
 723 220 756 250 785 288 c 0
 814 326 841 368 865 414 c 0
 889 460 905 505 915 549 c 0
 929 610 937 668 937 722 c 0
 937 886 871 1018 741 1116 c 0
 680 1162 586 1211 459 1260 c 1
 417 1093 377 919 342 737 c 0
 330 678 313 593 290 480 c 0
 267 367 250 281 238 221 c 1
 283 201 333 186 388 176 c 0
-27 127 m 0
 -13 173 6 246 29 344 c 0
 70 524 115 739 166 987 c 0
 181 1061 192 1110 197 1134 c 0
 202 1158 211 1194 225 1243 c 0
 235 1281 243 1306 246 1320 c 0
 246 1321 247 1325 248 1331 c 0
 259 1373 278 1405 305 1427 c 0
 332 1450 362 1462 395 1462 c 0
 439 1462 494 1456 561 1442 c 0
 603 1434 646 1422 690 1408 c 0
 734 1394 779 1374 827 1348 c 0
 875 1322 920 1291 961 1258 c 0
 1002 1225 1038 1182 1071 1130 c 0
 1101 1079 1125 1025 1141 964 c 0
 1156 908 1163 842 1163 767 c 0
 1163 761 1163 755 1163 749 c 0
 1162 666 1150 577 1128 481 c 0
 1117 433 1100 385 1076 334 c 0
 1052 283 1022 234 986 188 c 0
 950 142 910 100 866 62 c 0
 822 24 772 -6 715 -29 c 0
 659 -52 603 -64 546 -64 c 0
 543 -64 540 -63 537 -63 c 2
 516 -63 l 2
 453 -63 391 -60 330 -54 c 0
 269 -48 219 -41 182 -33 c 0
 147 -25 117 -17 94 -10 c 0
 71 -3 56 0 51 0 c 0
 20 0 -4 12 -20 35 c 0
 -29 49 -34 64 -34 83 c 0
 -34 92 -33 103 -31 113 c 0
 -30 118 -28 123 -27 127 c 0
247 1324 m 1
 247 1326 248 1328 248 1329 c 1
 248 1327 247 1325 247 1324 c 1
EndSplineSet
Validated: 9
EndChar

StartChar: E
Encoding: 69 69 44
Width: 1128
GlyphClass: 2
Flags: HMW
HStem: -41 236 -12 236<750 872 764 872> 616 223 653 217<918 997> 1208 221<746 809 707 853>
VStem: 178 2<1311 1311>
LayerCount: 2
Fore
SplineSet
334 1442 m 2x8c
 365 1442 390 1431 406 1409 c 1
 519 1423 660 1429 831 1429 c 0
 875 1429 916 1428 956 1427 c 0
 1035 1424 1097 1420 1139 1415 c 0
 1173 1411 1195 1400 1207 1383 c 0
 1215 1371 1219 1358 1219 1341 c 0
 1219 1333 1219 1324 1217 1315 c 0
 1214 1300 1209 1286 1203 1273 c 0
 1197 1260 1190 1248 1180 1237 c 0
 1169 1223 1155 1212 1137 1204 c 0
 1125 1200 1112 1198 1098 1198 c 2
 1083 1198 l 2
 997 1205 906 1208 809 1208 c 2
 707 1208 l 2
 585 1205 478 1199 387 1188 c 1
 354 1071 325 955 299 840 c 1
 397 841 531 846 700 856 c 0
 865 866 959 870 979 870 c 0
 1016 870 1040 861 1052 842 c 0
 1059 830 1063 816 1063 800 c 0
 1063 791 1062 781 1059 770 c 2
 1059 768 l 2
 1052 735 1039 710 1020 692 c 0
 995 666 965 653 930 653 c 0x9c
 907 653 807 648 631 637 c 0
 451 625 324 617 250 616 c 1
 243 583 236 551 228 518 c 0
 220 485 214 451 207 416 c 0
 187 325 174 260 170 225 c 0
 169 213 167 203 166 195 c 1xac
 191 192 228 190 279 189 c 0
 289 189 299 189 310 189 c 0
 355 189 408 191 469 193 c 0
 648 200 762 208 811 219 c 0
 831 222 849 223 864 223 c 0
 879 223 892 220 902 213 c 0
 912 206 921 199 927 191 c 0
 933 183 937 175 938 164 c 0
 939 153 940 143 940 135 c 0
 940 127 939 119 938 109 c 0
 931 78 914 49 887 23 c 0
 862 0 834 -13 801 -14 c 1
 796 4 785 4 770 -12 c 1
 764 -12 l 2x4c
 735 -12 680 -15 598 -20 c 0
 513 -25 427 -31 338 -35 c 0
 249 -39 182 -41 137 -41 c 0
 93 -41 59 -40 33 -37 c 0
 -1 -34 -31 -17 -57 16 c 0
 -78 42 -89 74 -89 110 c 0
 -89 118 -89 125 -88 133 c 0
 -85 166 -74 223 -55 305 c 0
 -37 380 -19 455 -1 531 c 0
 17 607 33 672 45 725 c 0
 57 778 72 851 90 944 c 0
 106 1023 118 1076 124 1103 c 0
 130 1130 140 1168 154 1217 c 0
 166 1261 174 1291 177 1306 c 1
 176 1299 177 1301 180 1311 c 0
 191 1353 211 1385 238 1408 c 0
 265 1431 295 1442 326 1442 c 2
 334 1442 l 2x8c
177 1306 m 1
 177 1307 178 1309 178 1311 c 1
 178 1310 177 1308 177 1306 c 1
EndSplineSet
Validated: 9
EndChar

StartChar: F
Encoding: 70 70 45
Width: 1128
GlyphClass: 2
Flags: HMW
HStem: -43 43G<-32 -16 -16 -10> 642 218 1223 225<824 906> 1421 41G<338 348 348 365>
LayerCount: 2
Fore
SplineSet
348 1462 m 2xd0
 381 1462 405 1452 420 1430 c 1
 587 1442 747 1448 901 1448 c 0
 1002 1448 1085 1445 1149 1438 c 0
 1183 1435 1206 1425 1218 1407 c 0
 1227 1394 1230 1378 1230 1358 c 0
 1230 1351 1230 1343 1229 1335 c 0
 1225 1317 1224 1317 1227 1335 c 1
 1220 1304 1205 1276 1182 1253 c 0
 1159 1230 1129 1219 1092 1219 c 2
 1087 1219 l 2
 1019 1222 945 1223 866 1223 c 0xe0
 719 1223 563 1217 399 1206 c 1
 394 1186 385 1154 373 1112 c 0
 351 1031 332 957 317 887 c 0
 314 875 312 863 309 852 c 1
 362 857 420 860 481 860 c 0
 497 860 514 859 530 858 c 0
 620 857 702 853 774 848 c 0
 848 843 903 836 939 828 c 0
 975 820 999 810 1010 794 c 0
 1018 783 1022 768 1022 750 c 0
 1022 743 1021 736 1020 729 c 1
 1020 730 1019 730 1018 729 c 0
 1011 700 999 675 983 653 c 0
 972 639 957 630 938 623 c 0
 926 619 913 616 899 616 c 2
 885 616 l 2
 848 623 793 630 719 635 c 0
 649 640 575 642 500 642 c 0
 491 642 481 642 472 642 c 0
 387 641 316 638 260 633 c 1
 225 456 188 269 150 72 c 0
 138 35 113 6 78 -14 c 0
 49 -33 20 -43 -10 -43 c 2
 -16 -43 l 2
 -47 -43 -72 -31 -88 -8 c 0
 -97 5 -101 19 -101 37 c 0
 -101 48 -99 60 -96 72 c 0
 -95 76 -94 81 -94 86 c 0
 -82 128 -64 199 -39 299 c 0
 5 487 48 696 92 924 c 0
 110 1013 122 1072 130 1103 c 0
 138 1134 149 1175 163 1226 c 0
 177 1277 186 1312 190 1331 c 0
 201 1373 221 1405 248 1427 c 0
 275 1450 305 1462 338 1462 c 2
 348 1462 l 2xd0
EndSplineSet
Validated: 1
EndChar

StartChar: G
Encoding: 71 71 46
Width: 1128
GlyphClass: 2
Flags: HMW
HStem: -63 233<259 377> 1268 215<863 865>
LayerCount: 2
Fore
SplineSet
-82 291 m 2
 -82 307 l 2
 -82 350 -78 391 -68 434 c 0
 -45 534 -12 631 29 725 c 0
 70 819 115 905 166 981 c 0
 217 1057 273 1125 332 1188 c 0
 395 1251 459 1305 522 1348 c 0
 585 1391 648 1423 711 1446 c 0
 774 1471 836 1483 893 1483 c 0
 950 1483 1012 1469 1075 1442 c 0
 1138 1413 1178 1389 1194 1366 c 0
 1206 1348 1212 1329 1212 1309 c 0
 1212 1299 1210 1288 1208 1278 c 0
 1204 1262 1198 1243 1188 1225 c 0
 1176 1200 1155 1181 1126 1171 c 0
 1112 1165 1099 1163 1085 1163 c 0
 1071 1163 1061 1165 1053 1169 c 0
 1045 1173 1026 1184 1001 1202 c 0
 976 1220 953 1237 926 1249 c 0
 899 1261 877 1268 854 1268 c 0
 815 1268 772 1256 721 1231 c 0
 670 1206 616 1169 561 1120 c 0
 506 1071 455 1015 406 952 c 0
 357 889 311 819 272 739 c 0
 233 659 202 582 184 502 c 0
 178 473 174 445 174 416 c 0
 174 391 176 369 182 344 c 0
 192 293 215 252 248 219 c 0
 281 186 319 170 362 170 c 0
 391 170 424 181 459 199 c 0
 494 217 530 239 563 270 c 0
 596 301 629 334 662 373 c 0
 713 432 756 492 791 553 c 1
 717 549 641 542 563 532 c 0
 485 522 430 508 397 494 c 0
 381 486 366 481 350 481 c 0
 334 481 319 486 305 496 c 0
 285 510 274 530 274 553 c 2
 274 565 l 2
 274 571 274 580 276 586 c 0
 282 615 299 641 326 664 c 0
 344 680 368 695 399 707 c 0
 446 727 537 742 670 752 c 0
 766 758 844 762 907 764 c 0
 930 764 953 764 971 762 c 0
 1006 760 1030 751 1044 737 c 0
 1056 725 1063 709 1063 686 c 0
 1063 676 1061 665 1059 653 c 0
 1049 612 1028 583 993 565 c 1
 985 541 l 2
 983 535 979 522 975 506 c 0
 955 447 912 373 846 283 c 0
 815 240 778 199 737 156 c 0
 694 115 649 78 602 45 c 0
 555 12 506 -13 451 -33 c 0
 396 -53 342 -63 291 -63 c 0
 228 -63 172 -53 125 -35 c 0
 78 -17 41 10 12 43 c 0
 -17 76 -39 113 -55 156 c 0
 -71 199 -80 244 -82 291 c 2
EndSplineSet
Validated: 1
EndChar

StartChar: H
Encoding: 72 72 47
Width: 1128
GlyphClass: 2
Flags: HMW
HStem: -43 43G<-18 -2 -2 4> 639 176 1421 41G<371 379 379 394>
LayerCount: 2
Fore
SplineSet
-84 70 m 0
 -83 75 -81 81 -78 86 c 0
 -67 123 -45 213 -12 358 c 0
 7 441 31 544 62 663 c 2
 118 878 l 2
 124 902 130 925 135 949 c 0
 140 973 149 1013 161 1069 c 0
 173 1125 180 1163 185 1181 c 0
 190 1199 195 1218 200 1237 c 0
 205 1256 208 1268 209 1273 c 0
 210 1278 212 1283 213 1289 c 0
 214 1295 216 1302 218 1308 c 0
 220 1314 222 1319 223 1324 c 2
 225 1331 l 2
 236 1373 256 1405 283 1427 c 0
 310 1450 340 1462 371 1462 c 2
 379 1462 l 2
 409 1462 433 1453 451 1434 c 0
 464 1420 471 1400 471 1376 c 0
 471 1363 469 1349 465 1333 c 0
 462 1318 453 1288 439 1243 c 0
 425 1198 414 1157 406 1121 c 0
 398 1085 387 1035 373 969 c 0
 359 903 348 852 340 815 c 1
 452 816 589 829 750 852 c 0
 798 859 835 863 862 866 c 0
 863 871 865 881 867 894 c 0
 869 907 876 937 886 985 c 0
 896 1033 904 1070 910 1097 c 0
 916 1124 927 1166 942 1223 c 0
 957 1280 967 1315 971 1327 c 0
 982 1371 1001 1404 1030 1427 c 0
 1059 1450 1088 1462 1118 1462 c 2
 1126 1462 l 2
 1157 1462 1182 1453 1198 1434 c 0
 1211 1419 1217 1399 1217 1375 c 0
 1217 1363 1215 1350 1212 1335 c 0
 1207 1309 1194 1258 1174 1182 c 0
 1149 1086 1128 1001 1111 925 c 0
 1094 849 1081 788 1071 744 c 0
 1061 700 1054 659 1047 621 c 0
 1029 546 1004 450 973 333 c 0
 942 216 921 134 911 88 c 2
 907 72 l 2
 896 35 874 6 840 -14 c 0
 811 -33 782 -43 752 -43 c 2
 745 -43 l 2
 714 -43 690 -31 674 -8 c 0
 664 6 659 22 659 41 c 0
 659 51 661 62 664 74 c 0
 665 78 666 83 666 88 c 0
 718 259 768 450 817 662 c 2
 825 698 l 1
 781 694 698 684 575 667 c 0
 452 650 359 640 293 639 c 1
 290 629 289 624 289 621 c 0
 269 553 247 473 226 383 c 0
 205 293 184 190 162 74 c 0
 148 36 125 6 92 -14 c 0
 63 -33 34 -43 4 -43 c 2
 -2 -43 l 2
 -33 -43 -58 -31 -74 -8 c 0
 -83 6 -87 21 -87 40 c 0
 -87 49 -86 60 -84 70 c 0
EndSplineSet
Validated: 1
EndChar

StartChar: I
Encoding: 73 73 48
Width: 1128
GlyphClass: 2
Flags: HMW
HStem: -23 211<817 841 817 817> -12 201<606 860> 1231 223<387 763 403 763>
LayerCount: 2
Fore
SplineSet
170 -25 m 1x60
 85 -28 27 -29 -4 -29 c 0
 -42 -29 -70 -20 -86 -2 c 0
 -99 11 -105 26 -105 45 c 0
 -105 52 -104 60 -102 68 c 2
 -102 74 l 2
 -97 101 -82 124 -57 144 c 0
 -32 164 -1 175 37 178 c 1
 40 189 40 189 39 178 c 1
 91 181 182 183 313 186 c 1
 355 328 395 477 430 631 c 0
 449 712 467 792 483 874 c 0
 494 933 507 997 522 1065 c 0
 525 1080 528 1094 531 1108 c 0
 534 1122 541 1142 549 1170 c 0
 557 1198 563 1219 567 1231 c 1
 403 1231 l 2
 370 1231 336 1230 301 1229 c 2
 297 1229 l 2
 262 1229 235 1238 219 1257 c 0
 207 1271 201 1290 201 1311 c 0
 201 1318 202 1325 203 1333 c 0
 203 1334 204 1336 205 1339 c 0
 212 1368 227 1393 252 1416 c 0
 277 1439 308 1450 348 1450 c 0
 459 1453 564 1454 664 1454 c 0
 863 1454 1025 1448 1149 1436 c 0
 1178 1433 1199 1424 1214 1409 c 0
 1228 1395 1236 1376 1236 1353 c 0
 1236 1345 1235 1336 1233 1327 c 0
 1226 1297 1211 1269 1188 1243 c 0
 1176 1228 1160 1216 1141 1208 c 0
 1129 1204 1117 1201 1106 1200 c 0
 1099 1200 1092 1201 1085 1202 c 0
 1052 1207 966 1215 825 1225 c 1
 821 1210 815 1183 805 1143 c 0
 795 1105 787 1075 782 1055 c 0
 777 1035 771 1013 766 991 c 0
 747 909 732 843 722 791 c 0
 712 739 700 686 687 631 c 0
 674 576 655 499 628 399 c 0
 601 299 583 230 573 190 c 1
 628 190 672 189 705 188 c 2
 860 188 l 1
 863 199 863 199 862 188 c 1xa0
 865 199 865 199 864 188 c 1
 867 199 867 199 866 188 c 1x60
 869 199 869 199 868 188 c 1
 905 188 929 179 941 161 c 0
 949 148 953 133 953 116 c 0
 953 108 952 99 950 90 c 0
 947 76 943 63 938 51 c 0
 933 39 925 26 915 14 c 0
 903 -1 888 -11 870 -16 c 0
 859 -20 850 -23 841 -23 c 2
 817 -23 l 2xa0
 784 -18 728 -13 647 -12 c 0
 564 -12 488 -13 418 -16 c 1
 385 -10 351 -8 317 -8 c 0
 269 -8 220 -14 170 -25 c 1x60
EndSplineSet
Validated: 1
EndChar

StartChar: J
Encoding: 74 74 49
Width: 1128
GlyphClass: 2
Flags: HMW
HStem: -72 258<331 343> 1229 225<584 645>
LayerCount: 2
Fore
SplineSet
702 444 m 0
 626 206 546 54 461 -14 c 0
 416 -52 368 -72 317 -72 c 0
 266 -72 220 -63 176 -45 c 0
 132 -27 97 -4 68 23 c 0
 42 52 19 83 -1 116 c 0
 -21 149 -36 182 -47 215 c 0
 -58 248 -66 277 -70 304 c 0
 -73 324 -74 342 -74 357 c 0
 -74 362 -74 367 -74 371 c 0
 -74 386 -71 403 -65 421 c 0
 -59 439 -51 457 -43 473 c 0
 -33 493 -19 511 -1 525 c 0
 17 539 38 550 63 555 c 0
 71 556 80 556 88 555 c 0
 114 555 133 546 145 530 c 0
 156 515 162 499 162 479 c 0
 162 469 161 457 158 446 c 0
 155 434 154 421 154 407 c 0
 154 384 157 359 164 330 c 0
 169 304 178 280 191 259 c 0
 204 238 225 221 252 207 c 0
 279 193 312 186 350 186 c 0
 351 186 353 187 356 188 c 0
 366 195 377 211 391 236 c 0
 422 293 453 382 483 502 c 2
 484 506 l 2
 485 509 489 523 494 548 c 0
 499 573 514 641 537 752 c 0
 571 917 607 1076 645 1229 c 1
 574 1231 507 1232 445 1232 c 0
 383 1232 324 1231 270 1229 c 2
 266 1229 l 2
 231 1229 204 1238 188 1257 c 0
 176 1270 171 1287 171 1307 c 0
 171 1315 172 1324 174 1333 c 2
 174 1339 l 2
 181 1368 197 1393 222 1416 c 0
 247 1439 279 1450 317 1450 c 0
 429 1453 535 1454 633 1454 c 0
 832 1454 994 1448 1118 1436 c 0
 1147 1433 1168 1424 1182 1409 c 0
 1197 1394 1204 1375 1204 1350 c 0
 1204 1343 1203 1335 1202 1327 c 0
 1195 1297 1180 1269 1157 1243 c 0
 1145 1228 1129 1216 1110 1208 c 0
 1098 1204 1086 1201 1075 1200 c 0
 1068 1200 1061 1201 1053 1202 c 0
 1015 1209 954 1216 872 1221 c 1
 865 1187 843 1067 803 862 c 0
 792 806 782 759 773 721 c 0
 764 683 759 659 758 649 c 0
 738 563 718 495 702 444 c 0
EndSplineSet
Validated: 1
EndChar

StartChar: K
Encoding: 75 75 50
Width: 1128
GlyphClass: 2
Flags: HMW
HStem: -43 43G<5 20 20 27> 1421 43G
LayerCount: 2
Fore
SplineSet
27 -43 m 2
 20 -43 l 2
 -11 -43 -35 -34 -53 -16 c 0
 -63 -5 -69 9 -69 25 c 0
 -69 32 -68 40 -66 49 c 0
 -65 54 -62 61 -59 66 c 0
 -45 110 -28 182 -6 283 c 0
 39 478 85 694 131 930 c 0
 149 1016 161 1075 168 1108 c 0
 175 1139 187 1184 203 1241 c 0
 219 1300 229 1337 233 1352 c 0
 243 1387 261 1416 287 1436 c 0
 312 1454 340 1462 369 1462 c 0
 371 1462 373 1462 375 1462 c 2
 381 1462 l 2
 411 1462 436 1455 455 1440 c 0
 470 1427 477 1409 477 1387 c 0
 477 1378 475 1369 473 1358 c 0
 466 1325 450 1260 424 1163 c 0
 398 1067 379 989 365 928 c 1
 421 969 501 1028 606 1104 c 0
 835 1286 972 1391 1014 1421 c 0
 1040 1439 1063 1451 1083 1458 c 0
 1097 1462 1108 1464 1118 1464 c 0
 1128 1464 1136 1463 1141 1462 c 0
 1156 1458 1169 1451 1180 1440 c 0
 1195 1424 1200 1404 1196 1384 c 0
 1188 1347 1164 1308 1126 1266 c 0
 1100 1240 1014 1165 868 1042 c 0
 719 927 589 828 477 743 c 1
 514 694 574 621 657 524 c 0
 742 433 816 350 877 276 c 0
 908 231 930 196 944 170 c 0
 959 139 967 116 967 104 c 0
 967 86 966 69 963 53 c 0
 960 42 955 31 948 20 c 0
 934 1 916 -14 893 -25 c 0
 863 -37 843 -43 834 -43 c 0
 833 -43 832 -43 831 -43 c 2
 829 -43 l 2
 795 -43 767 -26 745 8 c 0
 737 24 700 72 633 150 c 0
 566 226 494 310 418 401 c 0
 361 461 315 513 281 555 c 1
 182 51 l 2
 171 21 149 -2 115 -20 c 0
 86 -35 57 -43 27 -43 c 2
EndSplineSet
Validated: 1
EndChar

StartChar: L
Encoding: 76 76 51
Width: 1128
GlyphClass: 2
Flags: HMW
HStem: -18 215 1405 41G<524 530 530 546>
LayerCount: 2
Fore
SplineSet
37 53 m 0
 37 63 39 74 41 84 c 0
 43 88 43 94 45 102 c 0
 47 110 72 185 119 326 c 0
 166 467 209 602 244 731 c 0
 254 770 267 820 281 877 c 0
 293 928 325 1072 376 1309 c 0
 376 1311 377 1313 377 1315 c 0
 387 1358 405 1390 434 1413 c 0
 463 1436 493 1446 524 1446 c 2
 530 1446 l 2
 561 1446 586 1435 604 1417 c 0
 618 1403 627 1385 627 1360 c 0
 627 1348 625 1335 621 1321 c 0
 613 1282 600 1231 582 1165 c 0
 559 1077 536 993 516 915 c 0
 493 831 469 745 446 657 c 0
 432 602 408 524 377 426 c 0
 346 328 325 252 311 197 c 1
 317 213 317 213 315 197 c 1
 424 197 552 203 702 217 c 0
 847 231 946 244 995 256 c 0
 1003 258 1012 260 1022 260 c 0
 1032 260 1041 258 1049 256 c 0
 1063 250 1075 237 1083 221 c 0
 1089 207 1092 192 1092 178 c 0
 1094 162 1092 147 1090 135 c 0
 1084 104 1069 81 1049 61 c 0
 1029 41 1002 26 963 20 c 0
 871 2 728 -10 535 -18 c 0
 342 -26 205 -31 121 -31 c 0
 90 -31 65 -19 51 4 c 0
 43 18 37 35 37 53 c 0
EndSplineSet
Validated: 1
EndChar

StartChar: M
Encoding: 77 77 52
Width: 1128
GlyphClass: 2
Flags: HMW
HStem: -20 43G<-23 -16 -16 -12>
LayerCount: 2
Fore
SplineSet
133 129 m 2
 129 109 l 2
 121 72 104 41 78 16 c 0
 49 -9 19 -20 -12 -20 c 2
 -16 -20 l 2
 -30 -20 -42 -17 -53 -12 c 0
 -68 -4 -78 11 -82 33 c 0
 -83 38 -83 44 -83 50 c 0
 -83 72 -79 99 -72 131 c 0
 -68 149 -59 178 -47 219 c 0
 -35 259 -18 311 4 377 c 0
 27 447 53 529 82 625 c 0
 111 721 135 797 154 854 c 0
 215 1051 261 1188 291 1264 c 0
 310 1312 327 1345 342 1364 c 0
 364 1393 392 1413 426 1425 c 0
 455 1436 483 1442 510 1442 c 2
 522 1442 l 2
 553 1442 578 1437 596 1427 c 0
 622 1415 636 1395 639 1366 c 0
 639 1355 640 1342 640 1329 c 0
 640 1268 635 1182 625 1069 c 0
 613 931 595 774 575 598 c 0
 571 558 567 521 563 487 c 1
 594 585 624 679 653 766 c 0
 691 879 734 992 782 1104 c 0
 830 1217 869 1305 899 1366 c 0
 910 1386 928 1403 954 1417 c 0
 977 1429 1001 1437 1024 1440 c 0
 1039 1441 1051 1442 1061 1443 c 0
 1071 1444 1078 1443 1083 1442 c 2
 1092 1442 l 1
 1121 1442 l 2
 1129 1442 1139 1440 1151 1436 c 0
 1165 1433 1176 1428 1184 1423 c 0
 1192 1418 1199 1410 1204 1399 c 0
 1209 1387 1212 1372 1212 1356 c 0
 1208 1315 1177 1116 1118 760 c 0
 1061 405 1032 204 1032 158 c 0
 1032 131 1029 105 1022 82 c 0
 1018 63 1010 47 999 33 c 0
 984 14 964 0 938 -8 c 0
 923 -12 908 -14 893 -15 c 0
 878 -16 863 -12 848 -4 c 0
 822 10 807 38 803 80 c 0
 803 85 802 90 802 97 c 0
 802 200 853 512 954 1032 c 1
 913 927 879 827 850 733 c 0
 801 577 750 430 698 291 c 0
 645 152 608 66 586 35 c 0
 559 2 509 -14 438 -14 c 2
 428 -14 l 2
 401 -14 378 -10 360 -2 c 0
 338 8 327 21 324 39 c 0
 324 44 323 50 323 56 c 0
 323 128 331 271 346 487 c 0
 357 647 369 802 381 952 c 1
 373 925 358 876 336 805 c 2
 305 696 l 1
 250 516 l 2
 234 460 216 402 197 342 c 0
 182 296 167 248 152 197 c 0
 142 167 136 144 133 129 c 2
EndSplineSet
Validated: 1
EndChar

StartChar: N
Encoding: 78 78 53
Width: 1128
GlyphClass: 2
Flags: HMW
HStem: -25 43G<-38 -3> 1403 41G<355 374 1118 1150>
VStem: -90 205
LayerCount: 2
Fore
SplineSet
334 995 m 1
 322 934 311 883 301 842 c 0
 291 798 277 736 258 657 c 0
 239 579 215 486 186 375 c 0
 157 262 139 191 131 162 c 0
 124 133 120 114 119 106 c 0
 118 99 116 93 115 88 c 0
 107 51 91 23 66 4 c 0
 40 -15 12 -25 -18 -25 c 0
 -56 -25 -80 -13 -90 12 c 0
 -92 21 -93 32 -93 43 c 0
 -93 63 -90 86 -84 113 c 0
 -79 140 -52 246 -6 430 c 0
 65 714 113 910 139 1016 c 0
 164 1122 185 1220 201 1307 c 0
 202 1312 204 1318 205 1325 c 0
 209 1345 217 1363 229 1378 c 0
 243 1397 261 1411 281 1421 c 0
 310 1436 340 1444 371 1444 c 0
 378 1444 384 1443 391 1442 c 0
 420 1442 443 1437 461 1427 c 0
 487 1415 501 1395 504 1366 c 0
 512 1279 555 1117 631 881 c 0
 695 682 752 515 803 383 c 1
 833 500 868 654 909 844 c 0
 962 1086 994 1245 1004 1323 c 0
 1005 1331 1007 1339 1008 1346 c 0
 1013 1371 1027 1391 1047 1409 c 0
 1073 1432 1102 1444 1135 1444 c 0
 1165 1444 1188 1438 1204 1427 c 0
 1212 1422 1219 1414 1223 1403 c 0
 1224 1392 1225 1382 1225 1374 c 0
 1225 1364 1224 1350 1221 1331 c 0
 1220 1308 1196 1199 1151 1004 c 0
 1144 975 1138 947 1133 918 c 0
 1093 747 1050 571 1004 389 c 0
 974 272 949 184 930 127 c 0
 912 72 898 38 887 23 c 0
 861 -10 816 -28 750 -29 c 2
 741 -29 l 2
 716 -29 696 -24 680 -14 c 0
 660 -3 647 11 643 27 c 0
 636 54 617 114 586 207 c 0
 553 304 518 396 483 485 c 0
 449 586 415 698 381 821 c 0
 362 884 346 942 334 995 c 1
EndSplineSet
Validated: 1
EndChar

StartChar: O
Encoding: 79 79 54
Width: 1128
GlyphClass: 2
Flags: HMW
HStem: -49 221<322 409> 1253 217<737 752>
VStem: 6 229<331 501>
LayerCount: 2
Fore
SplineSet
1135 983 m 0
 1134 978 1134 978 1135 983 c 1
 1112 831 1078 683 1034 537 c 0
 1009 456 987 394 967 350 c 0
 936 286 901 230 865 184 c 0
 829 138 792 100 754 70 c 0
 716 40 673 16 625 -2 c 0
 576 -20 527 -32 480 -39 c 0
 433 -46 381 -49 322 -49 c 0
 232 -48 157 -22 100 29 c 0
 45 81 11 148 -4 233 c 0
 -10 266 -13 301 -13 337 c 0
 -13 389 -7 443 6 500 c 0
 6 503 7 507 8 512 c 0
 11 527 13 538 16 545 c 0
 30 604 41 651 51 687 c 0
 61 723 74 771 92 831 c 0
 127 948 174 1058 233 1159 c 0
 289 1250 367 1325 465 1384 c 0
 570 1441 680 1470 795 1470 c 0
 854 1470 907 1460 956 1438 c 0
 1004 1416 1043 1384 1073 1343 c 0
 1103 1302 1124 1251 1135 1190 c 0
 1140 1159 1143 1126 1143 1092 c 0
 1143 1058 1140 1021 1135 983 c 0
300 193 m 0
 320 179 344 172 373 172 c 0
 445 172 514 189 578 223 c 0
 611 239 642 263 672 292 c 0
 702 321 728 355 750 393 c 0
 758 408 772 446 792 507 c 0
 812 568 832 640 854 725 c 0
 861 750 867 774 872 799 c 0
 886 858 897 916 905 975 c 0
 908 995 909 1014 909 1032 c 0
 909 1089 896 1137 870 1176 c 0
 836 1228 786 1253 719 1253 c 0
 652 1253 592 1230 537 1184 c 0
 480 1135 429 1066 385 979 c 0
 337 881 299 767 270 639 c 0
 251 558 240 489 236 432 c 0
 235 415 233 398 233 381 c 0
 233 364 235 348 236 331 c 0
 239 298 245 270 255 247 c 0
 265 224 280 207 300 193 c 0
EndSplineSet
Validated: 9
EndChar

StartChar: P
Encoding: 80 80 55
Width: 1128
GlyphClass: 2
Flags: HMW
HStem: -39 43G<46 78> 446 217<492 511 492 543> 1239 217<680 801>
VStem: -29 246 236 2
LayerCount: 2
Fore
SplineSet
324 684 m 1
 367 670 416 663 475 663 c 0
 480 663 487 664 492 664 c 0
 530 664 566 667 599 672 c 0
 632 677 661 684 686 692 c 0
 711 700 734 711 754 725 c 0
 774 739 792 752 807 766 c 0
 822 780 836 796 848 814 c 0
 860 832 871 849 879 864 c 0
 887 879 894 898 901 919 c 0
 908 940 913 957 917 970 c 0
 921 983 926 1000 930 1020 c 0
 934 1038 936 1054 936 1070 c 0
 936 1083 935 1096 932 1108 c 0
 925 1134 914 1154 899 1170 c 0
 884 1186 865 1199 841 1210 c 0
 817 1221 793 1229 770 1233 c 0
 747 1237 724 1239 702 1239 c 0
 657 1239 576 1235 459 1227 c 1
 417 1065 389 954 375 897 c 0
 356 821 339 750 324 684 c 1
240 223 m 0
 226 125 218 73 217 66 c 0
 209 32 187 6 152 -12 c 0
 123 -30 93 -39 63 -39 c 0
 28 -39 2 -28 -16 -6 c 0
 -26 7 -32 23 -32 42 c 0
 -32 51 -31 60 -29 70 c 0
 -28 75 -26 84 -23 96 c 0
 -18 115 -9 149 2 195 c 0
 20 271 43 376 72 510 c 0
 120 737 148 870 156 911 c 0
 179 1019 206 1135 237 1259 c 1
 234 1249 235 1251 236 1264 c 1
 233 1253 232 1254 233 1266 c 0
 226 1284 225 1301 229 1319 c 0
 230 1324 232 1329 233 1333 c 0
 241 1353 254 1373 272 1389 c 0
 290 1405 309 1415 328 1419 c 0
 377 1430 449 1440 543 1448 c 0
 626 1454 688 1456 729 1456 c 0
 737 1456 745 1456 752 1456 c 0
 850 1456 935 1440 1006 1407 c 0
 1069 1373 1113 1321 1140 1252 c 0
 1155 1213 1162 1170 1162 1123 c 0
 1162 1087 1158 1049 1149 1008 c 0
 1131 930 1103 856 1063 788 c 0
 1023 720 977 661 923 610 c 0
 869 559 805 519 733 489 c 0
 659 460 583 446 504 446 c 0
 411 446 336 452 279 463 c 1
 264 385 251 305 240 223 c 0
EndSplineSet
Validated: 1
EndChar

StartChar: Q
Encoding: 81 81 56
Width: 1128
GlyphClass: 2
Flags: HMW
HStem: -49 43G<341 392> 1254 216
VStem: 367 213
LayerCount: 2
Fore
SplineSet
776 -418 m 0
 757 -429 738 -434 719 -434 c 0
 709 -434 700 -433 690 -430 c 0
 663 -422 643 -405 631 -379 c 0
 617 -352 595 -306 565 -241 c 0
 535 -176 506 -110 479 -43 c 1
 446 -47 411 -49 373 -49 c 0
 309 -49 252 -38 201 -18 c 0
 150 2 111 29 82 63 c 0
 53 98 30 140 14 186 c 0
 -2 236 -9 291 -9 352 c 0
 -9 401 -4 454 6 510 c 0
 13 544 21 578 29 612 c 0
 78 826 145 1006 231 1151 c 0
 287 1242 365 1319 463 1380 c 0
 568 1440 678 1470 791 1470 c 0
 911 1470 1003 1432 1069 1356 c 0
 1099 1318 1119 1266 1130 1202 c 0
 1136 1168 1139 1131 1139 1091 c 0
 1139 1056 1137 1020 1133 981 c 0
 1123 907 1106 822 1083 725 c 0
 1043 553 1006 424 969 338 c 0
 910 199 827 97 719 31 c 1
 746 -29 780 -98 821 -176 c 0
 844 -221 856 -245 856 -249 c 0
 856 -250 l 0
 860 -260 862 -270 862 -281 c 0
 862 -287 862 -294 860 -301 c 0
 859 -305 857 -310 856 -315 c 0
 848 -335 836 -356 821 -375 c 0
 806 -394 791 -408 776 -418 c 0
365 233 m 0
 363 249 361 265 361 279 c 0
 361 297 363 314 367 330 c 0
 377 374 400 407 438 432 c 0
 461 447 484 456 506 457 c 0
 524 457 539 450 553 438 c 0
 567 426 576 407 580 381 c 0
 588 322 604 257 627 186 c 1
 678 221 718 274 748 344 c 0
 756 363 769 404 788 465 c 0
 807 526 828 603 850 696 c 2
 858 729 l 2
 877 810 891 887 899 961 c 0
 901 982 902 1001 902 1020 c 0
 902 1084 889 1137 864 1178 c 0
 833 1229 784 1254 718 1254 c 0
 717 1254 717 1254 716 1254 c 0
 648 1253 586 1230 530 1182 c 0
 471 1131 421 1061 377 971 c 0
 328 865 290 754 264 639 c 0
 254 598 247 556 240 514 c 0
 233 473 230 434 230 398 c 0
 230 368 232 339 237 312 c 0
 247 253 268 206 299 172 c 0
 325 145 356 129 391 125 c 1
 377 169 369 204 365 233 c 0
EndSplineSet
Validated: 1
EndChar

StartChar: R
Encoding: 82 82 57
Width: 1128
GlyphClass: 2
Flags: HMW
HStem: -39 43G<38 53 53 59> 1421 41G<381 413>
LayerCount: 2
Fore
SplineSet
240 264 m 0
 225 151 216 87 213 72 c 0
 205 37 184 8 150 -12 c 0
 121 -30 90 -39 59 -39 c 2
 53 -39 l 2
 22 -39 -2 -28 -20 -6 c 0
 -31 7 -37 22 -37 40 c 0
 -37 49 -36 60 -33 70 c 0
 -32 75 -30 81 -27 86 c 0
 -7 154 9 212 20 258 c 0
 23 270 29 297 39 339 c 0
 49 381 62 438 78 512 c 0
 94 586 105 631 109 649 c 0
 113 667 122 704 137 760 c 0
 162 854 181 938 195 1010 c 0
 205 1055 215 1116 227 1192 c 0
 239 1268 248 1315 252 1331 c 1
 251 1321 251 1325 254 1341 c 0
 254 1344 255 1347 256 1350 c 0
 261 1375 277 1399 304 1424 c 0
 331 1449 362 1462 399 1462 c 0
 426 1462 447 1457 461 1446 c 1
 570 1441 670 1426 760 1402 c 0
 850 1378 923 1349 979 1315 c 0
 1034 1281 1076 1240 1106 1194 c 0
 1136 1148 1154 1101 1161 1055 c 0
 1164 1036 1165 1016 1165 996 c 0
 1165 969 1163 941 1157 913 c 0
 1132 807 1074 727 983 674 c 0
 954 656 924 643 893 633 c 0
 860 622 822 612 778 603 c 0
 734 594 698 588 668 584 c 0
 638 580 613 576 594 575 c 1
 692 515 776 447 844 369 c 0
 923 276 971 195 987 127 c 0
 988 112 988 97 985 83 c 0
 982 69 977 55 969 43 c 0
 954 18 934 -1 911 -16 c 0
 891 -30 870 -37 850 -37 c 0
 812 -37 783 -16 764 25 c 0
 750 54 728 88 697 129 c 0
 666 170 629 215 584 266 c 0
 539 317 485 367 424 416 c 0
 375 456 325 488 276 514 c 1
 265 446 254 362 240 264 c 0
389 920 m 0
 378 886 361 832 336 758 c 1
 346 758 359 758 376 757 c 0
 393 756 413 757 438 760 c 0
 495 763 544 765 582 768 c 0
 680 776 753 787 799 801 c 0
 825 809 847 818 867 829 c 0
 887 840 902 852 912 865 c 0
 922 878 930 893 934 911 c 0
 936 919 937 928 937 937 c 0
 937 960 929 984 916 1008 c 0
 898 1041 871 1070 836 1096 c 0
 801 1122 758 1145 709 1167 c 0
 660 1189 614 1207 573 1219 c 0
 532 1231 495 1240 461 1247 c 1
 443 1161 428 1086 416 1020 c 0
 411 993 401 960 389 920 c 0
EndSplineSet
Validated: 1
EndChar

StartChar: S
Encoding: 83 83 58
Width: 1128
GlyphClass: 2
Flags: HMW
HStem: -59 223<244 369> 1272 211<783 898>
VStem: 784 244
LayerCount: 2
Fore
SplineSet
-74 150 m 0
 -78 167 -79 183 -79 198 c 0
 -79 210 -78 221 -76 233 c 0
 -75 241 -72 249 -68 256 c 0
 -53 287 -29 311 2 326 c 0
 20 334 34 339 44 341 c 0
 54 343 63 344 69 344 c 2
 86 344 l 2
 101 343 113 336 123 324 c 0
 133 312 142 295 152 276 c 0
 166 242 189 215 224 195 c 0
 259 175 302 164 354 164 c 0
 384 164 418 168 454 176 c 0
 490 184 526 197 562 214 c 0
 598 231 632 250 663 272 c 0
 694 294 719 319 741 348 c 0
 763 377 777 407 784 438 c 0
 788 456 792 472 793 487 c 0
 794 502 793 519 790 535 c 0
 787 551 780 566 771 580 c 0
 762 594 749 607 731 621 c 0
 713 635 691 646 663 658 c 0
 635 670 599 680 557 690 c 0
 515 700 468 708 415 713 c 0
 362 718 317 732 279 754 c 0
 244 774 217 799 199 829 c 0
 181 859 169 892 163 926 c 0
 160 941 159 955 159 970 c 0
 159 990 161 1008 166 1028 c 0
 177 1076 195 1122 221 1166 c 0
 247 1210 281 1252 323 1290 c 0
 365 1328 412 1362 465 1391 c 0
 521 1420 583 1442 653 1458 c 0
 724 1474 800 1483 879 1483 c 0
 917 1483 967 1480 1030 1473 c 0
 1089 1466 1130 1458 1153 1448 c 0
 1180 1437 1197 1419 1204 1393 c 0
 1207 1383 1208 1372 1208 1361 c 0
 1208 1350 1207 1340 1204 1329 c 0
 1197 1299 1184 1276 1165 1260 c 0
 1150 1246 1133 1238 1114 1235 c 0
 1106 1234 1099 1233 1093 1233 c 0
 1087 1233 1079 1234 1071 1235 c 0
 1057 1236 1044 1240 1030 1245 c 0
 1010 1250 993 1254 981 1257 c 0
 967 1260 945 1264 915 1267 c 0
 885 1270 851 1272 813 1272 c 0
 753 1272 694 1263 637 1246 c 0
 580 1229 532 1205 492 1174 c 0
 452 1143 428 1107 420 1069 c 0
 418 1059 417 1050 417 1041 c 0
 417 1010 430 981 455 958 c 0
 490 927 547 909 625 905 c 0
 703 901 770 889 827 870 c 0
 883 851 926 828 955 799 c 0
 984 770 1007 736 1021 697 c 0
 1035 660 1041 624 1041 588 c 0
 1041 564 1039 520 1028 467 c 0
 1013 404 988 345 954 288 c 0
 920 231 880 182 834 140 c 0
 788 98 736 63 680 33 c 0
 620 3 558 -21 492 -37 c 0
 426 -52 361 -59 295 -59 c 0
 194 -59 110 -40 43 0 c 0
 -20 40 -59 90 -74 150 c 0
EndSplineSet
Validated: 1
EndChar

StartChar: T
Encoding: 84 84 59
Width: 1128
GlyphClass: 2
Flags: HMW
HStem: -27 43G<243 260 260 268> 1221 215
LayerCount: 2
Fore
SplineSet
362 2 m 0
 331 -17 299 -27 268 -27 c 2
 260 -27 l 2
 226 -27 200 -15 182 8 c 0
 172 21 167 37 167 57 c 0
 167 66 168 76 170 86 c 0
 171 91 174 100 177 112 c 0
 180 124 187 151 197 193 c 0
 219 287 253 455 301 698 c 0
 349 941 385 1115 410 1217 c 0
 411 1221 412 1225 412 1229 c 0
 252 1237 160 1243 135 1247 c 0
 104 1252 81 1262 66 1274 c 0
 48 1288 39 1305 39 1327 c 0
 39 1333 39 1341 41 1348 c 0
 41 1349 42 1351 43 1354 c 0
 50 1383 65 1409 90 1432 c 0
 112 1452 137 1462 166 1462 c 0
 174 1462 182 1461 190 1460 c 0
 256 1448 526 1440 1001 1436 c 0
 1038 1436 1063 1425 1077 1405 c 0
 1086 1390 1091 1375 1091 1358 c 0
 1091 1350 1089 1340 1087 1331 c 0
 1080 1300 1065 1272 1040 1247 c 0
 1015 1222 986 1210 952 1210 c 2
 668 1221 l 1
 609 953 531 575 434 88 c 0
 422 53 397 24 362 2 c 0
EndSplineSet
Validated: 1
EndChar

StartChar: U
Encoding: 85 85 60
Width: 1128
GlyphClass: 2
Flags: HMW
HStem: -59 236<288 429> 1411 41G<269 304>
VStem: -63 238
LayerCount: 2
Fore
SplineSet
653 35 m 0
 615 15 576 -3 535 -18 c 0
 494 -33 455 -44 419 -50 c 0
 383 -56 345 -59 307 -59 c 0
 269 -59 229 -54 188 -42 c 0
 147 -30 108 -11 70 16 c 0
 35 43 5 78 -18 120 c 0
 -41 162 -56 215 -63 280 c 0
 -65 299 -66 319 -66 339 c 0
 -66 388 -61 441 -49 498 c 0
 2 745 41 929 69 1051 c 0
 97 1173 118 1261 133 1317 c 0
 144 1359 165 1392 194 1416 c 0
 223 1440 254 1452 285 1452 c 0
 323 1452 347 1438 358 1409 c 0
 362 1399 365 1387 365 1373 c 0
 365 1359 362 1344 358 1327 c 0
 256 882 197 613 182 520 c 0
 177 482 174 448 174 419 c 0
 174 390 177 360 184 329 c 0
 191 298 202 272 217 250 c 0
 232 228 254 211 282 197 c 0
 310 183 343 176 383 176 c 0
 474 176 555 205 625 263 c 0
 695 321 747 412 784 535 c 0
 800 591 818 654 836 725 c 0
 861 821 879 901 893 965 c 0
 923 1103 940 1182 945 1203 c 2
 967 1298 l 2
 974 1329 982 1356 993 1379 c 0
 1004 1402 1017 1419 1032 1430 c 0
 1047 1441 1060 1447 1072 1450 c 0
 1084 1453 1098 1454 1114 1454 c 0
 1145 1454 1168 1442 1182 1417 c 0
 1191 1401 1195 1381 1195 1359 c 0
 1195 1348 1194 1336 1192 1323 c 0
 1173 1219 1148 1102 1118 971 c 0
 1088 840 1053 695 1012 537 c 0
 996 476 974 418 948 364 c 0
 922 310 894 263 863 223 c 0
 832 183 799 148 763 115 c 0
 727 82 690 55 653 35 c 0
EndSplineSet
Validated: 1
EndChar

StartChar: V
Encoding: 86 86 61
Width: 1128
GlyphClass: 2
Flags: HMW
HStem: -25 43G<262 279> 1415 41G<137 152 1025 1041>
VStem: 6 229
LayerCount: 2
Fore
SplineSet
262 -25 m 2
 248 -25 l 2
 218 -25 192 -19 172 -8 c 0
 146 4 130 23 123 49 c 0
 100 194 72 419 41 725 c 0
 18 1002 6 1180 6 1260 c 0
 6 1268 6 1276 6 1282 c 0
 6 1309 9 1335 16 1358 c 0
 20 1378 28 1395 39 1409 c 0
 54 1427 73 1440 98 1448 c 0
 113 1453 128 1456 144 1456 c 0
 160 1456 175 1453 190 1446 c 0
 216 1432 232 1404 236 1360 c 0
 237 1330 254 1124 285 743 c 0
 300 570 313 438 324 348 c 1
 407 493 516 688 653 932 c 2
 893 1360 l 2
 918 1402 947 1431 981 1446 c 0
 1000 1453 1017 1456 1033 1456 c 0
 1049 1456 1063 1453 1075 1448 c 0
 1091 1441 1104 1431 1112 1417 c 0
 1120 1402 1123 1384 1122 1364 c 0
 1122 1360 1121 1356 1120 1352 c 0
 1115 1327 1103 1301 1087 1272 c 0
 1043 1202 934 1011 758 700 c 0
 575 385 455 170 399 55 c 0
 387 32 371 14 352 0 c 0
 326 -16 296 -25 262 -25 c 2
EndSplineSet
Validated: 1
EndChar

StartChar: W
Encoding: 87 87 62
Width: 1128
GlyphClass: 2
Flags: HMW
HStem: -23 2 1421 41G<233 235>
VStem: 555 260
LayerCount: 2
Fore
SplineSet
983 1294 m 2
 991 1331 l 2
 999 1369 1016 1400 1042 1425 c 0
 1068 1448 1096 1460 1124 1460 c 0
 1126 1460 1126 1460 1128 1460 c 0
 1175 1460 1199 1434 1199 1380 c 0
 1199 1361 1196 1337 1190 1311 c 0
 1174 1239 1143 1130 1098 985 c 0
 1041 802 1011 707 1010 700 c 0
 991 643 963 557 926 444 c 0
 889 331 859 243 834 180 c 0
 809 121 788 80 772 57 c 0
 750 28 721 8 686 -6 c 0
 657 -17 631 -23 606 -23 c 2
 592 -23 l 2
 562 -23 536 -17 516 -6 c 0
 490 6 476 26 473 53 c 0
 473 68 472 84 472 100 c 0
 472 224 486 381 514 573 c 2
 565 940 l 1
 519 799 471 656 422 510 c 0
 341 275 283 123 248 53 c 0
 236 33 216 16 190 2 c 0
 165 -10 143 -17 121 -18 c 0
 106 -19 94 -21 84 -22 c 0
 74 -23 66 -23 59 -23 c 2
 53 -23 l 2
 41 -23 31 -21 23 -20 c 0
 15 -20 4 -19 -8 -16 c 0
 -22 -15 -33 -11 -41 -4 c 0
 -49 1 -56 11 -61 23 c 0
 -66 35 -70 50 -70 66 c 0
 -70 76 -66 120 -59 199 c 0
 -54 277 -47 348 -39 414 c 0
 -17 570 25 861 88 1290 c 0
 89 1302 92 1314 96 1325 c 0
 111 1389 144 1432 195 1454 c 0
 207 1458 219 1461 233 1462 c 0
 236 1462 241 1461 246 1460 c 0
 261 1459 275 1455 287 1450 c 0
 302 1445 312 1435 317 1421 c 0
 322 1405 322 1387 317 1368 c 2
 313 1352 l 2
 293 1262 248 976 180 494 c 0
 176 461 171 420 166 369 c 1
 173 389 186 425 205 477 c 0
 261 634 296 736 311 782 c 0
 443 1152 525 1361 555 1407 c 0
 582 1440 631 1456 702 1456 c 2
 713 1456 l 2
 740 1456 762 1452 780 1444 c 0
 802 1434 814 1421 815 1403 c 0
 815 1378 813 1337 809 1280 c 0
 799 1175 788 1056 774 924 c 0
 759 790 748 696 743 641 c 0
 736 577 730 505 723 426 c 1
 776 588 836 783 903 1010 c 0
 944 1147 971 1241 983 1294 c 2
EndSplineSet
Validated: 1
EndChar

StartChar: X
Encoding: 88 88 63
Width: 1128
GlyphClass: 2
Flags: HMW
HStem: -49 43G<-36 -18> 1405 41G<346 357>
LayerCount: 2
Fore
SplineSet
12 -43 m 0
 -2 -47 -13 -49 -23 -49 c 0
 -49 -49 -71 -39 -90 -20 c 0
 -105 -6 -113 10 -113 29 c 0
 -113 35 -113 42 -111 49 c 0
 -104 82 -86 118 -57 156 c 0
 -43 174 28 258 156 410 c 0
 287 556 382 664 442 735 c 1
 225 1237 l 2
 216 1264 212 1290 212 1315 c 0
 212 1330 214 1344 217 1358 c 0
 222 1383 240 1403 270 1419 c 0
 288 1430 307 1439 326 1444 c 0
 334 1445 342 1446 350 1446 c 0
 364 1446 378 1443 393 1438 c 0
 416 1430 437 1414 453 1391 c 0
 483 1336 548 1184 649 934 c 1
 855 1189 985 1344 1040 1399 c 0
 1062 1421 1084 1436 1106 1444 c 0
 1124 1451 1141 1453 1157 1452 c 2
 1171 1452 l 2
 1189 1449 1205 1444 1217 1434 c 0
 1235 1420 1243 1403 1243 1383 c 0
 1243 1377 1243 1371 1241 1364 c 0
 1234 1333 1219 1301 1196 1270 c 0
 1182 1254 1115 1170 993 1018 c 0
 867 873 781 772 733 715 c 1
 756 662 793 567 844 432 c 0
 888 295 920 206 940 164 c 0
 951 135 957 110 958 90 c 0
 958 68 957 50 954 35 c 0
 950 19 940 4 922 -10 c 0
 904 -24 885 -34 866 -41 c 0
 856 -44 847 -45 835 -44 c 0
 823 -43 811 -42 797 -39 c 0
 774 -31 753 -15 735 10 c 0
 715 39 693 83 668 143 c 0
 643 203 618 274 592 356 c 0
 563 432 542 489 530 526 c 1
 473 465 387 366 274 231 c 0
 161 93 96 16 80 0 c 0
 58 -22 35 -36 12 -43 c 0
EndSplineSet
Validated: 1
EndChar

StartChar: Y
Encoding: 89 89 64
Width: 1128
GlyphClass: 2
Flags: HMW
HStem: -82 43G<55 73> 1413 41G<214 230>
LayerCount: 2
Fore
SplineSet
260 -76 m 0
 248 -80 236 -82 225 -82 c 0
 200 -82 179 -73 160 -55 c 0
 139 -36 128 -13 128 15 c 0
 128 23 129 32 131 41 c 1
 131 47 l 2
 135 67 152 85 162 109 c 0
 230 273 248 334 305 508 c 1
 290 554 270 613 243 685 c 0
 216 757 198 808 188 838 c 0
 180 868 165 912 145 970 c 0
 125 1028 108 1078 96 1121 c 0
 84 1164 75 1207 70 1249 c 0
 68 1261 67 1272 67 1283 c 0
 67 1297 69 1311 72 1323 c 0
 73 1328 75 1334 78 1339 c 0
 88 1365 100 1387 115 1403 c 0
 130 1419 148 1432 168 1442 c 0
 187 1450 205 1454 223 1454 c 0
 237 1454 250 1452 262 1448 c 0
 278 1441 292 1428 303 1409 c 0
 314 1390 321 1365 322 1335 c 0
 323 1309 326 1282 331 1255 c 0
 336 1228 340 1206 343 1189 c 0
 346 1172 354 1147 364 1115 c 0
 374 1083 380 1064 382 1056 c 0
 384 1048 392 1025 406 987 c 0
 420 949 427 929 428 928 c 0
 451 864 469 799 483 735 c 1
 490 745 498 756 506 768 c 0
 535 810 584 879 654 975 c 0
 724 1071 777 1145 811 1198 c 0
 822 1216 839 1242 864 1275 c 0
 889 1308 907 1334 918 1352 c 0
 933 1378 950 1399 968 1417 c 0
 986 1435 1004 1447 1021 1454 c 0
 1038 1461 1054 1464 1070 1464 c 0
 1086 1464 1100 1461 1112 1454 c 0
 1135 1440 1150 1419 1157 1389 c 0
 1158 1383 1159 1376 1159 1369 c 0
 1159 1359 1157 1347 1155 1335 c 0
 1150 1310 1138 1286 1122 1260 c 0
 1111 1244 1092 1217 1065 1179 c 0
 1038 1141 1016 1110 1001 1087 c 0
 983 1058 949 1010 896 940 c 0
 843 870 801 812 768 766 c 0
 735 720 619 594 580 522 c 4
 534 436 529 467 504 403 c 0
 444 250 394 137 389 137 c 0
 389 137 l 5
 387 115 386 100 386 88 c 0
 386 74 387 65 387 58 c 0
 387 43 382 38 348 -10 c 0
 325 -43 295 -65 260 -76 c 0
EndSplineSet
Validated: 1
EndChar

StartChar: Z
Encoding: 90 90 65
Width: 1128
GlyphClass: 2
Flags: HMW
HStem: -6 211 1210 240<270 395 287 395> 1214 211
LayerCount: 2
Fore
SplineSet
456 497 m 0xa0
 353 386 268 288 201 205 c 1
 325 212 440 215 547 215 c 0
 565 215 583 215 600 215 c 0
 720 215 807 211 860 203 c 1
 863 215 863 215 862 203 c 1
 900 195 926 182 939 166 c 0
 949 154 954 138 954 119 c 0
 954 113 953 107 952 100 c 0
 952 97 951 95 950 92 c 0
 943 62 929 36 907 16 c 0
 882 -7 848 -18 803 -18 c 0
 795 -18 733 -16 618 -12 c 0
 449 -8 320 -6 233 -6 c 0
 147 -6 65 -7 -14 -10 c 2
 -16 -10 l 2
 -46 -10 -68 6 -82 39 c 0
 -90 58 -94 77 -94 96 c 0
 -94 106 -92 117 -90 127 c 0
 -86 145 -74 170 -54 202 c 0
 -34 234 -3 277 39 332 c 0
 98 407 223 549 414 758 c 0
 609 966 757 1120 858 1221 c 1
 790 1220 689 1217 555 1214 c 0xa0
 424 1213 337 1211 293 1210 c 2
 287 1210 l 2
 254 1210 232 1221 220 1243 c 0
 212 1258 208 1274 208 1293 c 0
 208 1302 209 1311 211 1321 c 0
 211 1322 212 1324 213 1325 c 0
 220 1356 240 1385 273 1411 c 0
 306 1437 343 1450 381 1450 c 0xc0
 410 1450 449 1446 500 1438 c 0
 552 1430 594 1425 627 1425 c 0
 687 1425 748 1426 809 1428 c 0
 870 1430 941 1435 1020 1440 c 0
 1105 1445 1148 1448 1149 1448 c 0
 1176 1448 1196 1435 1210 1410 c 0
 1219 1393 1224 1375 1224 1355 c 0
 1224 1345 1223 1334 1221 1323 c 2
 1221 1321 l 2
 1217 1305 1203 1286 1180 1263 c 0
 1157 1240 1131 1216 1103 1190 c 0
 1075 1164 1054 1144 1042 1130 c 0
 987 1064 902 971 786 848 c 0
 669 725 559 608 456 497 c 0xa0
EndSplineSet
Validated: 1
EndChar

StartChar: bracketleft
Encoding: 91 91 66
Width: 1128
GlyphClass: 2
Flags: HMW
HStem: -201 217<602 674 602 674> 1534 233<1005 1053>
LayerCount: 2
Fore
SplineSet
807 1765 m 2
 862 1763 l 2
 929 1763 992 1764 1049 1767 c 2
 1053 1767 l 2
 1087 1767 1110 1757 1124 1736 c 0
 1134 1721 1139 1704 1139 1684 c 0
 1139 1676 1139 1668 1137 1659 c 1
 1135 1659 l 1
 1132 1645 1127 1631 1119 1616 c 0
 1111 1601 1102 1587 1090 1573 c 0
 1078 1559 1062 1548 1044 1540 c 0
 1032 1535 1020 1533 1008 1534 c 0
 1003 1534 996 1535 989 1536 c 0
 941 1543 867 1546 766 1546 c 0
 725 1546 680 1545 629 1544 c 1
 619 1506 600 1433 573 1327 c 0
 528 1156 495 1026 474 935 c 0
 453 844 439 783 432 750 c 0
 417 676 388 551 346 374 c 0
 304 197 279 92 271 59 c 0
 263 26 259 8 258 4 c 1
 291 4 l 2
 352 4 426 6 512 10 c 0
 598 14 645 16 655 16 c 0
 692 16 716 7 728 -12 c 0
 736 -25 740 -41 740 -58 c 0
 740 -66 739 -75 737 -84 c 2
 737 -86 l 2
 730 -116 718 -142 700 -164 c 0
 689 -179 674 -190 655 -195 c 0
 644 -199 634 -201 623 -201 c 2
 602 -201 l 2
 568 -197 527 -195 481 -194 c 0
 472 -194 463 -193 454 -193 c 0
 418 -193 385 -195 354 -197 c 0
 224 -204 137 -207 92 -207 c 0
 55 -207 28 -198 12 -182 c 0
 -1 -169 -8 -152 -8 -133 c 0
 -8 -125 -6 -115 -4 -106 c 0
 -1 -92 3 -78 10 -63 c 2
 14 -47 l 2
 36 23 70 150 116 334 c 0
 162 518 204 703 244 887 c 0
 259 968 286 1086 324 1243 c 0
 351 1355 372 1439 386 1495 c 0
 400 1551 409 1583 410 1593 c 2
 412 1599 l 2
 409 1613 410 1631 414 1651 c 0
 421 1680 437 1704 463 1726 c 0
 489 1748 520 1759 557 1759 c 0
 648 1763 732 1765 807 1765 c 2
EndSplineSet
Validated: 1
EndChar

StartChar: backslash
Encoding: 92 92 67
Width: 1128
GlyphClass: 2
Flags: HMW
HStem: 1528 41G<373 395>
VStem: 649 244
LayerCount: 2
Fore
SplineSet
236 1450 m 0
 239 1461 242 1471 246 1481 c 0
 261 1512 284 1536 317 1554 c 0
 340 1564 363 1569 384 1569 c 0
 405 1569 424 1561 441 1547 c 0
 458 1533 470 1514 475 1489 c 0
 521 1291 568 1113 616 956 c 0
 690 701 782 410 891 84 c 0
 896 67 899 49 899 30 c 0
 899 14 897 -2 893 -20 c 0
 892 -27 890 -34 887 -41 c 0
 872 -89 849 -120 819 -135 c 0
 801 -146 784 -151 766 -151 c 0
 717 -137 l 0
 686 -119 663 -89 649 -47 c 0
 642 -24 628 38 605 138 c 0
 582 238 566 310 555 352 c 0
 539 418 485 587 395 859 c 0
 305 1131 252 1303 236 1374 c 0
 233 1388 231 1401 231 1414 c 0
 231 1427 233 1438 236 1450 c 0
EndSplineSet
Validated: 1
EndChar

StartChar: bracketright
Encoding: 93 93 68
Width: 1128
GlyphClass: 2
Flags: HMW
HStem: -193 209<115 205 115 248> 1534 233<474 547 481 547>
LayerCount: 2
Fore
SplineSet
1128 1651 m 0
 1124 1632 1118 1614 1108 1599 c 2
 1106 1593 l 2
 1105 1582 1098 1552 1087 1503 c 0
 1067 1406 1054 1345 1049 1319 c 0
 1044 1293 1036 1259 1026 1217 c 0
 1001 1106 975 996 948 887 c 0
 902 704 859 520 819 335 c 0
 779 150 754 23 743 -47 c 2
 739 -63 l 2
 739 -78 738 -92 735 -106 c 0
 728 -137 712 -163 686 -182 c 0
 661 -198 630 -207 592 -207 c 0
 547 -207 460 -203 332 -195 c 0
 299 -194 271 -193 248 -193 c 2
 205 -193 l 2
 160 -193 120 -196 86 -201 c 0
 66 -204 48 -202 34 -195 c 0
 20 -188 9 -178 4 -164 c 0
 0 -152 -2 -139 -1 -126 c 0
 0 -113 1 -100 4 -86 c 2
 4 -84 l 1
 12 -55 27 -31 47 -12 c 0
 67 7 96 16 133 16 c 0
 143 16 189 14 273 10 c 0
 357 6 431 4 492 4 c 2
 524 4 l 2
 525 8 530 26 538 59 c 0
 546 92 563 171 590 297 c 0
 642 529 678 686 698 768 c 0
 728 894 751 992 766 1063 c 2
 812 1283 l 2
 830 1371 843 1433 851 1470 c 0
 859 1507 863 1532 866 1544 c 1
 815 1545 770 1546 729 1546 c 0
 628 1546 553 1543 502 1536 c 0
 492 1535 486 1534 484 1534 c 2
 481 1534 l 2
 467 1534 456 1536 446 1540 c 0
 431 1547 421 1558 416 1573 c 0
 409 1590 406 1607 406 1625 c 0
 406 1636 407 1647 410 1659 c 1
 412 1659 l 1
 420 1689 435 1715 457 1736 c 0
 479 1757 508 1767 543 1767 c 2
 547 1767 l 2
 603 1766 665 1764 733 1763 c 2
 788 1765 l 2
 863 1765 945 1763 1034 1759 c 0
 1072 1759 1099 1748 1115 1726 c 0
 1126 1711 1132 1695 1132 1676 c 0
 1132 1668 1130 1660 1128 1651 c 0
EndSplineSet
Validated: 1
EndChar

StartChar: asciicircum
Encoding: 94 94 69
Width: 1128
GlyphClass: 2
Flags: HW
LayerCount: 2
Fore
SplineSet
164 1206 m 0
 150 1198 138 1194 127 1194 c 0
 101 1194 79 1206 61 1231 c 0
 53 1242 47 1255 43 1271 c 0
 39 1287 39 1304 43 1323 c 0
 50 1353 67 1382 94 1409 c 0
 127 1444 170 1487 224 1538 c 0
 278 1589 337 1645 401 1708 c 0
 465 1771 531 1839 598 1913 c 0
 618 1935 643 1949 672 1956 c 0
 684 1959 697 1960 710 1960 c 0
 723 1960 736 1958 748 1954 c 0
 773 1946 789 1931 797 1909 c 0
 828 1839 856 1781 880 1734 c 0
 904 1687 922 1652 936 1631 c 0
 950 1610 970 1578 999 1536 c 0
 1029 1490 1054 1451 1073 1421 c 0
 1083 1403 1089 1385 1089 1365 c 0
 1089 1356 1087 1346 1085 1337 c 0
 1081 1318 1073 1301 1060 1285 c 0
 1047 1269 1033 1255 1017 1243 c 0
 1001 1231 986 1221 971 1214 c 0
 959 1207 946 1204 933 1205 c 0
 920 1206 909 1211 899 1219 c 0
 884 1231 864 1256 838 1294 c 0
 831 1304 826 1312 823 1317 c 0
 767 1399 730 1457 711 1490 c 0
 692 1523 668 1572 639 1636 c 1
 604 1598 570 1563 537 1532 c 0
 504 1501 478 1476 458 1460 c 0
 438 1444 411 1422 378 1394 c 0
 345 1366 309 1336 274 1303 c 2
 252 1280 l 2
 211 1242 182 1217 164 1206 c 0
EndSplineSet
Validated: 1
EndChar

StartChar: underscore
Encoding: 95 95 70
Width: 1128
GlyphClass: 2
Flags: HMW
HStem: -229 203 -229 223<114 797>
LayerCount: 2
Fore
SplineSet
190 -6 m 2x80
 283 -6 l 2
 355 -7 433 -7 519 -7 c 0
 605 -7 697 -7 797 -6 c 0
 898 -5 960 -3 983 -2 c 0
 1020 -2 1044 -13 1055 -35 c 0
 1062 -48 1066 -62 1066 -80 c 0
 1066 -89 1065 -99 1063 -109 c 2
 1063 -111 l 2
 1056 -142 1043 -167 1024 -186 c 0
 999 -211 969 -223 932 -223 c 2
 602 -226 l 2
 382 -228 230 -229 147 -229 c 0x40
 91 -229 64 -204 64 -152 c 0
 64 -141 66 -130 68 -117 c 0
 68 -114 69 -112 70 -109 c 0
 78 -72 95 -45 121 -27 c 0
 140 -13 163 -6 190 -6 c 2x80
EndSplineSet
Validated: 1
EndChar

StartChar: grave
Encoding: 96 96 71
Width: 1128
GlyphClass: 2
Flags: HMW
HStem: 1253 430<479 672 479 690>
VStem: 337 456
LayerCount: 2
Fore
SplineSet
362 1626 m 2
 365 1628 l 2
 388 1654 418 1671 453 1679 c 0
 463 1680 471 1682 479 1683 c 0
 504 1683 526 1675 545 1659 c 0
 549 1654 581 1619 641 1556 c 0
 651 1545 666 1531 686 1513 c 0
 706 1495 724 1483 739 1473 c 0
 768 1454 786 1428 793 1395 c 0
 797 1377 797 1359 794 1343 c 0
 791 1327 783 1312 772 1300 c 0
 752 1274 724 1258 690 1253 c 2
 672 1253 l 2
 646 1253 620 1262 594 1278 c 0
 530 1322 491 1349 477 1359 c 0
 463 1369 445 1384 422 1403 c 0
 397 1423 378 1441 364 1455 c 0
 350 1469 340 1487 337 1508 c 0
 334 1529 334 1550 338 1569 c 0
 342 1588 350 1607 362 1626 c 2
EndSplineSet
Validated: 1
EndChar

StartChar: a
Encoding: 97 97 72
Width: 1128
GlyphClass: 2
Flags: HMW
HStem: -78 43G<907 943> -57 211<431 570> 811 233<780 862 795 862>
VStem: 844 186
LayerCount: 2
Fore
SplineSet
682 1024 m 0x70
 737 1038 795 1044 858 1044 c 0
 865 1044 873 1043 883 1042 c 0
 1021 1039 1103 1006 1130 940 c 0
 1148 895 1158 840 1158 775 c 0
 1158 706 1147 626 1126 535 c 0
 1116 491 1105 440 1090 383 c 0
 1075 326 1067 296 1067 295 c 0
 1060 266 1052 206 1042 113 c 0
 1039 83 1035 55 1030 29 c 0
 1018 -23 998 -56 969 -70 c 0
 959 -75 949 -78 938 -78 c 0xb0
 875 -78 844 -57 844 -16 c 0
 845 7 845 27 845 45 c 0
 845 72 844 91 842 106 c 1
 791 53 741 13 690 -14 c 0
 635 -43 557 -57 455 -57 c 0
 407 -57 358 -45 309 -20 c 0
 264 3 230 39 205 87 c 0
 180 135 165 187 158 240 c 0
 159 247 160 248 160 244 c 1
 168 279 181 316 199 356 c 0
 219 402 249 442 287 473 c 0
 338 515 373 542 395 553 c 0
 471 588 519 607 535 610 c 0
 652 639 713 653 717 653 c 0
 789 660 834 666 852 670 c 0
 857 671 887 680 942 696 c 1
 946 707 949 719 950 733 c 0
 950 737 947 745 942 756 c 0
 932 772 919 785 903 794 c 0
 887 803 857 808 813 811 c 2
 795 811 l 2
 766 811 734 807 700 798 c 0
 666 789 636 777 610 762 c 0
 565 737 532 716 512 700 c 0
 461 647 416 621 375 621 c 0
 353 621 333 627 317 641 c 0
 295 660 285 684 285 710 c 0
 285 719 287 727 289 737 c 0
 296 767 315 801 346 838 c 0
 371 867 399 892 430 915 c 0
 487 960 571 997 682 1024 c 0x70
452 184 m 0
 477 164 509 154 547 154 c 0x70
 593 154 641 170 690 201 c 0
 717 219 743 239 768 264 c 0
 793 289 816 320 838 360 c 0
 856 391 871 426 883 461 c 1
 639 438 474 382 389 295 c 1
 405 242 427 204 452 184 c 0
EndSplineSet
Validated: 1
EndChar

StartChar: b
Encoding: 98 98 73
Width: 1128
GlyphClass: 2
Flags: HMW
HStem: -29 225<477 529> 797 217<613 758> 1534 41G<506 520>
LayerCount: 2
Fore
SplineSet
1075 778 m 0
 1080 751 1083 722 1083 692 c 0
 1083 646 1077 597 1065 545 c 0
 1065 542 1064 539 1063 534 c 0
 1062 529 1060 523 1059 518 c 0
 1044 454 1023 393 996 335 c 0
 969 277 938 225 901 181 c 0
 864 137 824 99 782 68 c 0
 738 37 693 12 647 -4 c 0
 599 -20 552 -29 506 -29 c 0
 398 -29 312 -2 246 51 c 1
 236 32 224 16 209 4 c 0
 187 -12 162 -22 135 -23 c 2
 129 -23 l 2
 89 -23 64 -6 53 25 c 0
 49 36 47 48 47 63 c 0
 47 78 49 95 53 113 c 0
 88 275 142 508 213 811 c 0
 284 1114 335 1322 365 1434 c 0
 376 1483 393 1518 416 1539 c 0
 439 1560 466 1572 496 1573 c 0
 500 1573 503 1574 506 1575 c 0
 535 1575 557 1564 573 1542 c 0
 583 1527 589 1509 589 1484 c 0
 589 1467 587 1447 582 1425 c 0
 522 1171 483 1010 467 942 c 1
 558 990 656 1014 758 1014 c 0
 848 1013 921 991 977 950 c 0
 1029 908 1061 850 1075 778 c 0
782 754 m 0
 751 781 707 796 651 797 c 0
 575 797 495 770 412 715 c 1
 379 572 343 419 303 258 c 1
 322 236 348 221 379 211 c 0
 410 201 451 197 502 197 c 0
 587 197 658 225 716 282 c 0
 774 339 815 414 838 510 c 0
 845 540 848 568 848 595 c 0
 848 616 846 636 842 655 c 0
 832 695 812 728 782 754 c 0
EndSplineSet
Validated: 1
EndChar

StartChar: c
Encoding: 99 99 74
Width: 1128
GlyphClass: 2
Flags: HMW
HStem: -63 233<399 504 399 504> 844 236<707 849>
VStem: 801 244
LayerCount: 2
Fore
SplineSet
633 1053 m 0
 688 1071 743 1079 799 1079 c 0
 803 1079 807 1079 811 1079 c 0
 886 1079 944 1050 985 993 c 0
 1023 938 1043 873 1044 797 c 0
 1044 775 1042 754 1038 735 c 0
 1031 702 1017 675 995 653 c 0
 977 634 957 620 934 610 c 0
 916 603 901 600 888 600 c 0
 875 600 863 602 852 606 c 0
 838 611 827 623 817 639 c 0
 807 655 802 675 801 700 c 0
 800 737 798 759 797 766 c 0
 794 791 790 806 786 813 c 0
 776 827 766 836 752 840 c 0
 742 843 731 844 717 844 c 0
 697 844 674 841 651 834 c 0
 628 827 602 814 573 796 c 0
 544 778 517 754 490 725 c 0
 463 696 438 658 412 611 c 0
 386 564 364 512 348 453 c 0
 345 441 342 429 338 418 c 0
 330 383 326 352 326 324 c 0
 326 294 331 269 340 248 c 0
 362 199 409 173 481 170 c 2
 504 170 l 2
 560 170 608 179 649 196 c 0
 690 213 717 232 731 252 c 0
 746 278 762 299 778 315 c 0
 803 341 829 354 856 354 c 0
 857 354 859 354 860 354 c 0
 875 354 890 350 905 342 c 0
 920 334 932 322 940 307 c 0
 946 295 949 283 949 269 c 0
 949 260 947 252 945 242 c 0
 939 217 926 191 907 162 c 0
 888 133 865 106 837 81 c 0
 809 56 775 31 735 8 c 0
 695 -15 647 -33 590 -45 c 0
 531 -57 471 -63 410 -63 c 2
 399 -63 l 2
 332 -62 274 -49 225 -23 c 0
 181 3 149 38 127 80 c 0
 105 122 92 169 87 221 c 0
 86 234 85 249 85 262 c 0
 85 300 90 339 100 377 c 0
 100 381 101 384 102 387 c 0
 124 478 153 562 189 638 c 0
 225 714 266 779 311 833 c 0
 356 887 406 933 459 971 c 0
 516 1008 574 1035 633 1053 c 0
EndSplineSet
Validated: 1
EndChar

StartChar: d
Encoding: 100 100 75
Width: 1128
GlyphClass: 2
Flags: HMW
HStem: -29 231<288 385> 817 229<526 532 526 526> 1534 41G<1055 1075>
VStem: 655 201<188 365>
LayerCount: 2
Fore
SplineSet
723 -18 m 0
 713 -19 704 -20 694 -20 c 0
 661 -20 639 -6 627 23 c 0
 619 43 614 67 614 96 c 1
 609 91 603 85 596 80 c 0
 574 61 549 43 520 26 c 0
 491 9 459 -4 424 -14 c 0
 389 -24 351 -29 311 -29 c 0
 265 -29 222 -20 182 -4 c 0
 141 11 106 35 76 68 c 0
 47 101 24 139 7 185 c 0
 -5 217 -19 271 -19 355 c 0
 -19 415 -12 477 4 543 c 0
 5 548 6 553 7 556 c 0
 8 559 8 563 8 567 c 0
 28 654 64 734 113 805 c 0
 164 879 225 937 297 981 c 0
 375 1025 458 1047 547 1047 c 0
 651 1047 737 1024 805 979 c 1
 860 1207 898 1355 920 1425 c 0
 932 1467 950 1501 973 1526 c 0
 1002 1559 1035 1575 1075 1575 c 0
 1106 1574 1129 1561 1141 1538 c 0
 1147 1527 1149 1513 1149 1496 c 0
 1149 1481 1147 1464 1143 1444 c 0
 1142 1437 1140 1429 1137 1421 c 0
 1115 1343 1077 1199 1022 987 c 0
 967 775 928 615 903 506 c 0
 888 432 876 368 868 313 c 0
 860 258 856 221 856 199 c 0
 856 177 856 158 855 142 c 0
 854 126 853 114 850 106 c 0
 840 66 821 35 791 12 c 0
 772 -3 749 -13 723 -18 c 0
228 289 m 0
 256 232 308 203 383 203 c 1
 387 219 388 219 385 203 c 1
 405 203 424 205 442 208 c 0
 460 211 475 215 488 220 c 0
 501 225 515 232 529 242 c 0
 543 252 555 259 565 266 c 0
 575 273 586 283 598 296 c 0
 610 309 620 320 626 328 c 0
 632 336 638 343 645 351 c 0
 652 359 655 364 655 365 c 0
 665 410 674 450 684 487 c 0
 689 509 694 531 698 551 c 0
 701 566 706 586 713 612 c 0
 720 638 725 658 729 672 c 1
 711 714 685 749 651 776 c 0
 617 803 577 817 532 817 c 2
 526 817 l 2
 477 816 431 802 389 775 c 0
 347 748 312 716 283 676 c 0
 254 632 233 583 221 530 c 0
 210 483 205 442 205 404 c 0
 205 359 213 320 228 289 c 0
EndSplineSet
Validated: 1
EndChar

StartChar: e
Encoding: 101 101 76
Width: 1128
GlyphClass: 2
Flags: HMW
HStem: -57 217<403 481 403 481> 805 209<636 770>
LayerCount: 2
Fore
SplineSet
729 -6 m 0
 655 -39 556 -56 430 -57 c 2
 403 -57 l 2
 262 -56 168 -8 117 86 c 0
 90 137 76 198 76 269 c 0
 76 322 83 380 98 444 c 0
 120 537 153 619 195 691 c 0
 237 763 285 822 340 868 c 0
 395 914 456 950 526 975 c 0
 597 1001 672 1014 748 1014 c 0
 793 1014 839 1002 885 979 c 0
 929 956 966 923 998 880 c 0
 1030 837 1049 790 1053 739 c 0
 1053 731 1052 723 1051 713 c 0
 1044 684 1027 655 1001 625 c 0
 968 588 936 559 903 539 c 0
 846 504 764 468 659 434 c 0
 607 418 563 404 525 392 c 0
 487 380 455 370 427 362 c 0
 399 354 358 342 303 326 c 1
 303 306 305 285 309 267 c 0
 313 249 321 231 332 215 c 0
 357 181 401 163 465 160 c 2
 481 160 l 2
 510 160 540 164 572 172 c 0
 604 180 633 191 659 205 c 0
 685 219 706 231 721 241 c 0
 736 251 747 258 752 262 c 0
 798 311 841 336 879 336 c 0
 899 336 918 329 934 315 c 0
 955 295 965 273 965 247 c 0
 965 239 965 231 963 223 c 0
 956 194 937 162 907 127 c 0
 880 97 853 71 826 51 c 0
 799 31 767 12 729 -6 c 0
748 774 m 0
 723 794 692 805 657 805 c 0
 613 805 568 791 520 762 c 0
 494 746 470 725 447 702 c 0
 424 679 403 649 381 612 c 0
 365 585 352 555 342 524 c 1
 570 576 725 628 807 680 c 1
 791 724 771 755 748 774 c 0
EndSplineSet
Validated: 1
EndChar

StartChar: f
Encoding: 102 102 77
Width: 1128
GlyphClass: 2
Flags: HMW
HStem: -37 225 776 227 793 217<859 939> 1339 227
LayerCount: 2
Fore
SplineSet
449 184 m 1xb0
 575 180 649 178 674 178 c 0
 709 178 734 170 748 152 c 0
 757 140 761 125 761 108 c 0
 761 99 760 90 758 80 c 0
 751 50 736 24 711 2 c 0
 686 -21 655 -33 618 -33 c 0
 479 -34 390 -36 352 -37 c 0
 221 -37 127 -34 68 -29 c 0
 30 -29 5 -16 -6 10 c 0
 -13 24 -17 39 -17 56 c 0
 -17 64 -16 73 -14 82 c 0
 -14 83 -13 85 -12 88 c 0
 -5 118 9 144 32 164 c 0
 55 184 84 195 119 195 c 2
 123 195 l 2
 135 194 151 192 171 191 c 0
 191 190 205 190 215 190 c 1
 218 204 220 220 222 237 c 0
 224 254 228 275 233 302 c 0
 238 329 246 367 256 416 c 0
 294 632 315 751 319 776 c 1
 252 776 l 2xd0
 226 776 207 784 195 799 c 0
 185 810 180 827 180 849 c 0
 180 861 181 874 184 889 c 0
 184 892 185 894 186 897 c 0
 194 935 211 963 236 981 c 0
 255 995 278 1003 305 1004 c 2
 367 1004 l 1
 371 1023 376 1046 381 1073 c 0
 397 1141 422 1204 453 1260 c 0
 486 1316 524 1363 570 1401 c 0
 616 1439 667 1471 722 1496 c 0
 777 1521 834 1538 893 1548 c 0
 949 1559 1004 1566 1059 1567 c 0
 1088 1567 1110 1558 1128 1540 c 0
 1140 1527 1147 1510 1147 1490 c 0
 1147 1481 1146 1471 1143 1460 c 0
 1135 1426 1120 1398 1100 1376 c 0
 1077 1351 1053 1339 1028 1339 c 0
 926 1339 836 1312 758 1257 c 0
 682 1205 633 1138 614 1053 c 0
 610 1035 607 1020 604 1006 c 1
 653 999 701 995 750 995 c 0
 807 995 865 1000 922 1010 c 0
 956 1010 978 1000 988 981 c 0
 995 969 998 954 998 937 c 0
 998 928 997 919 995 909 c 0
 991 891 991 891 995 907 c 1
 988 874 976 848 958 829 c 0
 935 804 906 793 872 793 c 0
 846 793 797 791 725 788 c 0
 649 785 594 784 561 784 c 1
 532 634 514 534 504 483 c 0
 493 426 482 367 471 307 c 0
 460 247 453 206 449 184 c 1xb0
EndSplineSet
Validated: 1
EndChar

StartChar: g
Encoding: 103 103 78
Width: 1128
GlyphClass: 2
Flags: HMW
HStem: -598 221<257 298 257 311> -63 229<500 507> 819 223<782 918>
LayerCount: 2
Fore
SplineSet
1135 786 m 0
 1089 580 1059 452 1047 401 c 0
 1003 210 963 56 926 -61 c 0
 904 -132 875 -198 840 -257 c 0
 805 -316 765 -367 723 -409 c 0
 681 -451 633 -485 580 -514 c 0
 476 -570 367 -598 254 -598 c 0
 210 -598 169 -592 131 -580 c 0
 96 -568 67 -554 45 -539 c 0
 42 -536 38 -531 31 -526 c 0
 16 -516 7 -509 4 -502 c 0
 4 -501 3 -499 0 -496 c 0
 -5 -489 -8 -481 -8 -473 c 0
 -8 -472 -8 -469 -9 -464 c 0
 -10 -459 -9 -453 -8 -446 c 2
 -4 -426 l 2
 4 -393 20 -365 45 -342 c 0
 67 -323 87 -313 106 -313 c 2
 123 -313 l 2
 134 -314 147 -321 162 -333 c 0
 177 -345 193 -355 209 -365 c 0
 228 -373 247 -377 266 -377 c 0
 330 -377 394 -363 455 -336 c 0
 516 -309 572 -269 620 -218 c 0
 668 -167 704 -109 729 -45 c 0
 736 -26 744 0 752 33 c 1
 669 -31 566 -63 446 -63 c 0
 312 -60 227 -14 190 76 c 0
 172 118 164 170 164 231 c 0
 164 297 174 373 195 461 c 0
 215 542 243 615 278 681 c 0
 313 747 351 803 395 847 c 0
 439 891 488 928 543 958 c 0
 599 988 655 1010 711 1024 c 0
 763 1036 815 1043 867 1043 c 0
 883 1042 l 0
 954 1042 1003 1039 1031 1033 c 0
 1059 1027 1086 1014 1112 995 c 0
 1126 985 1134 972 1137 954 c 0
 1138 940 1138 926 1135 912 c 0
 1132 898 1126 884 1118 872 c 1
 1132 860 1139 843 1139 821 c 0
 1139 811 1138 799 1135 786 c 0
445 182 m 0
 463 171 487 166 514 166 c 0
 551 166 587 171 620 182 c 0
 653 193 682 206 705 222 c 0
 728 238 749 256 768 276 c 0
 787 296 803 318 815 338 c 0
 826 358 836 379 846 399 c 0
 856 436 870 497 889 580 c 0
 908 663 923 726 934 770 c 0
 935 780 939 789 944 799 c 1
 898 813 853 819 809 819 c 0
 805 819 801 819 797 819 c 0
 767 819 738 816 709 808 c 0
 680 800 652 789 624 773 c 0
 596 757 570 739 545 717 c 0
 520 695 497 668 477 635 c 0
 457 602 440 564 426 522 c 0
 414 474 404 434 398 402 c 0
 393 376 391 350 391 325 c 0
 391 319 391 314 391 308 c 0
 392 277 398 251 406 230 c 0
 414 209 427 193 445 182 c 0
EndSplineSet
Validated: 1
EndChar

StartChar: h
Encoding: 104 104 79
Width: 1128
GlyphClass: 2
Flags: HMW
HStem: -43 43G<121 135 135 139> 848 193<768 924> 1532 41G<535 541 541 556>
VStem: 450 175
LayerCount: 2
Fore
SplineSet
1073 793 m 0
 1070 749 1063 703 1051 655 c 0
 1048 640 1045 630 1044 623 c 0
 1026 549 1007 455 987 341 c 0
 967 227 951 147 941 101 c 0
 931 55 912 20 883 -6 c 0
 856 -32 827 -45 797 -45 c 0
 796 -45 794 -45 793 -45 c 0
 763 -45 738 -32 719 -6 c 0
 705 12 698 32 698 56 c 0
 698 67 699 79 702 91 c 0
 712 130 730 199 755 298 c 0
 780 397 797 466 806 505 c 0
 815 544 821 570 825 584 c 0
 838 644 844 694 844 735 c 0
 844 755 843 773 840 788 c 0
 837 807 831 823 822 833 c 0
 813 843 801 848 786 848 c 0
 749 848 714 841 681 829 c 0
 648 817 619 801 594 782 c 0
 569 763 546 742 524 717 c 0
 502 692 484 668 470 644 c 0
 456 620 443 596 432 573 c 0
 414 536 402 508 397 489 c 0
 395 480 389 458 380 423 c 1
 380 424 379 420 377 410 c 0
 370 384 362 351 353 312 c 0
 344 273 337 243 332 221 c 0
 320 169 305 120 289 72 c 0
 277 35 254 6 223 -14 c 0
 196 -33 168 -43 139 -43 c 2
 135 -43 l 2
 106 -43 84 -31 68 -8 c 0
 61 4 57 19 57 35 c 0
 57 46 58 57 61 70 c 0
 62 74 63 79 63 84 c 0
 79 137 104 223 136 341 c 0
 168 459 191 545 203 598 c 0
 207 614 210 629 213 641 c 0
 238 768 265 897 295 1028 c 0
 326 1167 359 1304 393 1436 c 0
 404 1480 423 1513 450 1537 c 0
 477 1561 505 1573 535 1573 c 2
 541 1573 l 2
 571 1573 594 1562 610 1542 c 0
 623 1527 629 1508 629 1484 c 0
 629 1472 628 1459 625 1444 c 0
 594 1307 552 1122 500 887 c 1
 533 917 570 945 612 971 c 0
 650 993 694 1010 744 1022 c 0
 794 1034 846 1040 901 1040 c 0
 947 1040 984 1029 1010 1006 c 0
 1037 984 1055 953 1064 915 c 0
 1071 886 1074 855 1074 823 c 0
 1074 813 1074 803 1073 793 c 0
EndSplineSet
Validated: 1
EndChar

StartChar: i
Encoding: 105 105 80
Width: 1128
GlyphClass: 2
Flags: HMW
HStem: -35 227 791 205 1090 367<754 879>
VStem: 498 242
LayerCount: 2
Fore
SplineSet
565 -31 m 0
 414 -34 305 -35 236 -35 c 0
 213 -35 194 -35 180 -35 c 0
 145 -35 123 -23 113 2 c 0
 109 13 106 25 106 39 c 0
 106 50 108 63 111 76 c 0
 111 79 112 81 113 84 c 0
 120 114 133 140 152 160 c 0
 172 182 199 193 233 193 c 2
 498 193 l 1
 509 242 517 283 524 317 c 0
 532 363 541 402 549 432 c 0
 572 534 603 656 641 795 c 1
 612 795 l 2
 600 795 579 794 548 793 c 0
 517 792 491 791 471 791 c 2
 430 791 l 2
 403 791 383 800 371 820 c 0
 362 834 358 849 358 865 c 0
 358 872 358 879 360 887 c 0
 360 888 361 890 362 893 c 0
 367 919 380 943 399 963 c 0
 418 985 441 995 468 995 c 0
 470 995 471 995 473 995 c 0
 567 1002 655 1007 737 1008 c 0
 759 1008 781 1007 801 1006 c 0
 827 1006 848 1000 864 989 c 0
 880 978 891 963 895 944 c 0
 899 928 901 913 901 900 c 0
 901 889 899 879 897 870 c 0
 895 863 895 861 895 862 c 1
 864 759 835 648 807 530 c 0
 797 486 788 442 778 397 c 0
 768 352 755 284 739 193 c 1
 946 193 l 2
 980 193 1003 182 1014 162 c 0
 1018 152 1020 142 1020 129 c 0
 1020 116 1018 102 1014 86 c 0
 1006 55 993 29 975 10 c 0
 952 -13 924 -25 891 -25 c 0
 872 -25 763 -27 565 -31 c 0
799 1092 m 0
 792 1092 785 1091 778 1090 c 0
 730 1090 695 1107 672 1141 c 0
 653 1167 643 1197 643 1230 c 0
 643 1245 645 1260 649 1276 c 0
 660 1325 689 1367 735 1401 c 0
 781 1435 830 1453 879 1456 c 2
 889 1456 l 2
 891 1456 893 1456 895 1456 c 0
 941 1456 975 1440 999 1409 c 0
 1017 1386 1026 1359 1026 1328 c 0
 1026 1313 1024 1297 1020 1281 c 0
 1008 1230 981 1187 941 1153 c 0
 901 1119 854 1099 799 1092 c 0
895 862 m 1
 895 863 896 864 897 868 c 1
 896 866 896 864 895 862 c 1
EndSplineSet
Validated: 5
EndChar

StartChar: j
Encoding: 106 106 81
Width: 1128
GlyphClass: 2
Flags: HMW
HStem: -588 236<32 134> 772 229<562 931 678 931> 1407 41G<1019 1066>
VStem: 815 346
LayerCount: 2
Fore
SplineSet
-39 -510 m 0
 -39 -502 -39 -493 -37 -483 c 0
 -29 -450 -13 -420 12 -393 c 0
 37 -366 63 -352 90 -352 c 0
 178 -352 264 -334 348 -299 c 0
 391 -281 428 -260 463 -233 c 0
 498 -206 528 -174 553 -135 c 0
 578 -96 596 -51 608 -2 c 0
 610 8 619 57 633 145 c 0
 656 270 676 377 696 465 c 0
 716 553 743 655 774 772 c 1
 678 772 l 1
 561 772 l 1
 500 772 l 2
 492 772 481 772 469 774 c 2
 436 774 l 1
 410 774 l 1
 397 774 l 2
 364 774 340 786 326 811 c 0
 316 827 311 846 311 864 c 0
 311 872 311 881 313 889 c 0
 313 891 313 893 315 895 c 0
 321 922 335 945 360 963 c 0
 385 981 413 989 444 989 c 0
 485 991 553 995 647 999 c 0
 710 1001 762 1001 803 1001 c 2
 854 1001 l 1
 930 1001 l 1
 950 1001 l 2
 973 1001 990 997 1004 985 c 0
 1018 973 1026 958 1030 940 c 0
 1032 926 1034 911 1034 899 c 0
 1034 887 1032 874 1030 864 c 0
 1030 862 1028 860 1028 858 c 0
 1022 844 1018 827 1010 807 c 0
 1002 784 995 768 991 754 c 0
 987 740 983 721 977 696 c 0
 971 671 950 569 911 389 c 0
 872 209 842 69 819 -31 c 0
 805 -90 787 -148 762 -199 c 0
 737 -250 709 -295 678 -332 c 0
 647 -369 612 -403 573 -434 c 0
 532 -465 489 -490 446 -508 c 0
 403 -526 356 -543 307 -555 c 0
 258 -567 213 -576 168 -580 c 0
 127 -584 86 -586 47 -588 c 0
 16 -588 -6 -579 -20 -561 c 0
 -32 -547 -39 -530 -39 -510 c 0
809 1235 m 0
 809 1251 811 1268 815 1284 c 0
 825 1333 854 1372 901 1403 c 0
 948 1434 995 1448 1042 1448 c 0
 1089 1448 1125 1432 1145 1399 c 0
 1161 1376 1167 1350 1167 1319 c 0
 1167 1305 1165 1286 1161 1270 c 0
 1149 1219 1124 1176 1085 1139 c 0
 1046 1102 1001 1083 952 1083 c 0
 897 1083 857 1104 834 1145 c 0
 818 1174 809 1202 809 1235 c 0
EndSplineSet
Validated: 1
EndChar

StartChar: k
Encoding: 107 107 82
Width: 1128
GlyphClass: 2
Flags: HMW
HStem: -47 43G<139 156> 1532 41G<509 540>
VStem: 729 209
LayerCount: 2
Fore
SplineSet
289 84 m 0
 288 77 286 71 285 66 c 0
 273 25 252 -6 223 -25 c 0
 198 -40 171 -47 141 -47 c 0
 137 -47 133 -46 129 -45 c 0
 100 -44 77 -34 61 -18 c 0
 48 -6 42 9 42 27 c 0
 42 34 43 41 45 49 c 2
 49 66 l 2
 68 126 94 223 127 360 c 0
 160 498 190 626 217 745 c 0
 236 826 292 1067 383 1470 c 0
 391 1504 409 1530 436 1548 c 0
 463 1564 493 1573 524 1573 c 0
 555 1573 580 1564 598 1548 c 0
 611 1537 618 1521 618 1501 c 0
 618 1492 616 1483 614 1473 c 0
 574 1301 510 1035 420 676 c 1
 499 736 598 810 717 897 c 0
 836 984 903 1035 918 1049 c 0
 943 1068 964 1080 983 1085 c 0
 995 1088 1006 1091 1016 1092 c 0
 1039 1092 1058 1083 1073 1067 c 0
 1087 1051 1090 1033 1085 1014 c 0
 1077 977 1055 937 1020 893 c 0
 990 864 886 783 707 649 c 1
 723 601 753 535 795 449 c 0
 835 368 866 303 891 252 c 0
 914 196 929 157 936 137 c 0
 939 126 941 117 942 109 c 0
 942 98 941 89 940 82 c 0
 939 77 938 70 938 63 c 0
 928 23 905 -7 868 -27 c 0
 846 -39 826 -45 807 -45 c 0
 793 -45 780 -42 768 -35 c 0
 753 -27 740 -12 729 8 c 0
 726 18 713 46 688 94 c 0
 663 139 639 185 616 231 c 0
 590 272 567 316 545 362 c 0
 525 414 510 458 502 492 c 1
 344 371 l 1
 340 350 l 2
 330 308 321 260 311 207 c 0
 301 152 294 111 289 84 c 0
EndSplineSet
Validated: 1
EndChar

StartChar: l
Encoding: 108 108 83
Width: 1128
GlyphClass: 2
Flags: HMW
HStem: -57 225<524 629 524 629>
LayerCount: 2
Fore
SplineSet
268 371 m 0
 276 406 286 443 297 483 c 0
 297 484 298 492 301 504 c 0
 305 520 313 547 323 584 c 0
 333 621 340 645 344 657 c 0
 424 925 425 925 459 1071 c 0
 479 1157 493 1228 500 1284 c 0
 500 1287 500 1289 501 1292 c 2
 502 1296 l 2
 507 1319 519 1342 535 1364 c 0
 558 1391 585 1405 616 1405 c 0
 645 1405 673 1394 700 1374 c 0
 727 1353 741 1330 741 1304 c 0
 741 1303 741 1274 719 1183 c 0
 653 907 653 906 588 683 c 0
 574 636 565 603 560 584 c 0
 555 565 548 535 536 493 c 0
 524 451 517 426 515 418 c 0
 513 410 512 402 511 397 c 0
 510 392 507 373 500 342 c 0
 498 328 497 315 497 303 c 0
 497 269 505 240 522 217 c 0
 545 186 557 169 612 168 c 2
 629 168 l 2
 697 168 789 214 856 244 c 0
 867 249 878 251 889 250 c 0
 903 250 914 246 922 238 c 0
 937 223 944 198 944 164 c 0
 944 157 943 150 940 143 c 0
 935 117 921 94 901 72 c 0
 876 46 849 26 819 14 c 0
 751 -13 645 -57 551 -57 c 2
 524 -57 l 2
 472 -56 453 -46 412 -29 c 0
 371 -13 336 12 307 43 c 0
 278 73 260 112 252 158 c 0
 249 177 247 196 247 216 c 0
 247 246 251 279 258 313 c 0
 259 327 263 346 268 371 c 0
EndSplineSet
Validated: 1
EndChar

StartChar: m
Encoding: 109 109 84
Width: 1128
GlyphClass: 2
Flags: HMW
HStem: 803 244
LayerCount: 2
Fore
SplineSet
727 977 m 0
 735 950 740 917 741 879 c 1
 838 990 944 1045 1057 1045 c 0
 1058 1045 1060 1044 1061 1044 c 0
 1083 1044 1100 1036 1112 1020 c 0
 1122 1009 1127 993 1130 973 c 0
 1134 955 1136 936 1136 914 c 0
 1136 885 1132 852 1126 815 c 0
 1112 728 1092 625 1065 508 c 0
 1053 456 1041 409 1031 367 c 0
 1021 325 1011 283 1001 242 c 0
 991 201 983 155 973 104 c 0
 973 101 972 97 971 92 c 0
 959 39 940 3 917 -16 c 0
 905 -27 893 -36 881 -41 c 0
 869 -45 855 -47 841 -46 c 0
 827 -45 814 -44 804 -41 c 0
 794 -38 783 -31 772 -20 c 0
 761 -9 755 8 752 31 c 0
 752 35 751 39 751 44 c 0
 751 61 753 82 757 106 c 0
 762 137 768 173 776 211 c 0
 781 236 790 267 801 307 c 0
 835 444 864 566 889 672 c 0
 903 729 911 777 915 815 c 0
 916 833 916 845 915 852 c 0
 889 851 861 834 831 803 c 0
 796 765 762 714 729 653 c 1
 715 577 690 476 655 350 c 0
 632 264 616 204 608 169 c 0
 600 134 595 111 594 101 c 0
 593 91 591 83 588 76 c 0
 584 57 578 41 571 27 c 0
 560 5 547 -12 532 -22 c 0
 517 -32 504 -38 492 -41 c 0
 480 -44 467 -45 455 -45 c 2
 446 -45 l 2
 415 -45 392 -34 377 -14 c 0
 367 -1 361 18 361 45 c 0
 361 57 363 71 365 86 c 0
 366 94 369 108 373 127 c 0
 383 169 400 236 427 326 c 0
 454 416 473 489 487 545 c 0
 488 553 493 569 498 592 c 0
 520 688 532 749 535 776 c 0
 535 786 533 794 532 799 c 0
 531 802 529 803 526 803 c 0
 503 803 473 785 436 748 c 0
 395 708 358 661 324 606 c 0
 321 596 318 588 315 580 c 0
 303 525 289 460 274 385 c 0
 263 340 252 282 239 212 c 0
 226 142 217 98 213 82 c 0
 208 59 199 38 188 20 c 0
 177 1 165 -14 151 -24 c 0
 137 -34 123 -40 111 -43 c 0
 99 -46 86 -47 72 -47 c 0
 43 -46 21 -35 6 -16 c 0
 -2 -5 -5 9 -5 28 c 0
 -5 43 -3 61 2 82 c 0
 5 93 10 127 20 184 c 0
 43 314 69 439 97 559 c 0
 125 679 155 801 186 924 c 0
 198 976 221 1013 252 1038 c 0
 279 1063 307 1075 335 1075 c 0
 336 1075 338 1075 340 1075 c 2
 346 1075 l 2
 377 1075 400 1061 412 1034 c 0
 417 1023 419 1010 419 995 c 0
 419 982 418 968 414 952 c 0
 413 945 411 939 408 932 c 1
 483 1007 563 1045 647 1045 c 0
 649 1045 649 1044 651 1044 c 0
 688 1044 713 1022 727 977 c 0
EndSplineSet
Validated: 1
EndChar

StartChar: n
Encoding: 110 110 85
Width: 1128
GlyphClass: 2
Flags: HMW
HStem: -47 43G<162 164> 805 240<743 892>
VStem: 80 12
LayerCount: 2
Fore
SplineSet
325 214 m 0
 317 145 310 100 305 80 c 0
 294 35 274 2 244 -18 c 0
 219 -36 193 -46 164 -47 c 0
 160 -47 156 -46 152 -45 c 0
 125 -44 103 -32 88 -12 c 0
 79 1 75 17 75 38 c 0
 75 50 77 65 80 80 c 0
 83 94 83 94 80 82 c 1
 81 92 85 122 92 175 c 0
 99 228 107 272 115 309 c 0
 119 334 124 360 129 389 c 0
 147 463 174 563 211 689 c 0
 248 815 269 890 276 913 c 0
 288 961 310 997 340 1022 c 0
 369 1044 399 1055 430 1055 c 2
 436 1055 l 2
 467 1055 491 1043 506 1020 c 0
 515 1007 519 991 519 972 c 0
 519 960 517 948 514 934 c 0
 514 931 513 927 510 922 c 1
 541 948 576 971 616 991 c 0
 684 1026 761 1044 844 1044 c 0
 941 1044 1003 1008 1032 936 c 0
 1047 899 1055 856 1055 804 c 0
 1055 757 1048 704 1036 645 c 0
 1020 566 1005 465 993 343 c 0
 981 221 972 139 965 98 c 0
 965 94 964 89 961 84 c 0
 951 44 935 14 915 -8 c 0
 892 -33 866 -45 836 -45 c 0
 834 -45 833 -45 831 -45 c 2
 825 -45 l 2
 795 -45 772 -34 756 -12 c 0
 743 4 736 26 736 54 c 0
 736 66 737 78 739 92 c 0
 749 162 757 223 762 276 c 0
 776 387 789 478 801 549 c 0
 815 628 822 688 822 727 c 0
 822 741 821 753 819 762 c 0
 816 777 810 788 799 795 c 0
 789 800 776 804 758 805 c 0
 729 805 700 799 669 789 c 0
 638 779 611 767 586 753 c 0
 561 739 537 720 512 699 c 0
 487 678 467 658 450 639 c 0
 433 620 416 601 401 582 c 1
 381 511 364 445 352 385 c 0
 341 341 333 284 325 214 c 0
EndSplineSet
Validated: 1
EndChar

StartChar: o
Encoding: 111 111 86
Width: 1128
GlyphClass: 2
Flags: HMW
HStem: -55 223<397 504 397 504> 860 211<677 679>
LayerCount: 2
Fore
SplineSet
84 288 m 0
 84 298 83 307 83 317 c 0
 83 370 89 424 102 479 c 0
 102 483 103 488 106 492 c 0
 125 573 153 647 188 717 c 0
 223 787 266 847 315 900 c 0
 364 953 424 994 492 1024 c 0
 563 1055 638 1071 717 1071 c 0
 768 1071 813 1064 854 1049 c 0
 896 1035 933 1012 963 981 c 0
 993 950 1015 910 1029 864 c 0
 1041 825 1047 778 1047 723 c 0
 1047 712 1047 701 1047 690 c 0
 1046 639 1037 585 1022 526 c 0
 1017 504 1011 482 1006 459 c 0
 983 377 954 305 921 244 c 0
 888 183 847 128 799 82 c 0
 751 36 695 2 629 -20 c 0
 561 -43 487 -55 406 -55 c 2
 397 -55 l 2
 330 -54 272 -37 223 -4 c 0
 178 27 145 68 122 119 c 0
 99 170 87 226 84 288 c 0
670 254 m 0
 726 322 768 416 795 535 c 0
 808 590 814 638 814 678 c 0
 814 718 808 751 795 776 c 0
 768 832 716 860 641 860 c 0
 612 860 585 855 559 844 c 0
 528 829 498 804 469 770 c 0
 416 706 372 615 338 496 c 0
 327 455 319 418 316 387 c 0
 314 373 314 359 314 346 c 0
 314 330 315 314 317 299 c 0
 321 272 330 249 342 231 c 0
 354 213 372 199 397 187 c 0
 422 175 454 169 494 168 c 2
 504 168 l 2
 534 168 562 174 588 186 c 0
 618 202 645 225 670 254 c 0
EndSplineSet
Validated: 1
EndChar

StartChar: p
Encoding: 112 112 87
Width: 1128
GlyphClass: 2
Flags: HMW
HStem: -608 43G<-6 213 -6 -6> -63 166<451 539 451 573> -47 160 819 223<750 858>
VStem: 379 207 893 243
LayerCount: 2
Fore
SplineSet
284 -287 m 0xbc
 263 -387 249 -450 244 -479 c 1
 247 -464 246 -465 242 -483 c 2
 213 -608 l 1
 -6 -608 l 1
 23 -477 l 2
 46 -357 85 -171 140 82 c 0
 195 335 235 511 258 611 c 0
 281 711 298 783 309 827 c 0
 324 890 337 939 348 973 c 0
 359 1007 369 1032 379 1047 c 0
 397 1074 419 1094 446 1108 c 0
 466 1119 487 1123 506 1122 c 0
 537 1122 560 1109 575 1083 c 0
 586 1065 590 1046 586 1026 c 0
 585 1019 582 1011 577 1001 c 0
 572 991 566 981 561 967 c 1
 654 1018 742 1042 825 1042 c 0
 827 1042 829 1042 831 1042 c 0
 884 1042 931 1037 971 1026 c 0
 1009 1015 1041 996 1068 968 c 0
 1095 940 1113 903 1124 858 c 0
 1132 824 1137 783 1137 735 c 0
 1137 720 1137 704 1136 688 c 0
 1133 620 1121 541 1102 451 c 0
 1102 448 1101 445 1100 442 c 0
 1090 400 1075 356 1055 310 c 0
 1035 264 1008 220 976 176 c 0
 944 132 908 92 870 57 c 0
 832 22 787 -7 735 -29 c 0
 682 -52 628 -63 573 -63 c 2
 539 -63 l 2xdc
 452 -63 384 -58 336 -47 c 1
 322 -107 305 -187 284 -287 c 0xbc
496 713 m 1
 492 693 491 688 494 700 c 1
 490 678 471 592 438 440 c 0
 407 288 384 180 369 113 c 1xbc
 389 108 417 103 451 102 c 0
 496 102 542 103 588 106 c 0
 623 107 657 119 689 141 c 0
 721 163 749 192 774 229 c 0
 818 297 850 377 870 467 c 2
 875 487 l 2
 886 543 892 592 893 633 c 0
 893 641 893 648 893 656 c 0
 893 686 891 711 887 730 c 0
 882 754 873 772 861 786 c 0
 849 800 836 809 822 813 c 0
 808 817 790 819 770 819 c 0
 730 819 685 808 633 787 c 0
 581 766 536 742 496 713 c 1
EndSplineSet
Validated: 5
EndChar

StartChar: q
Encoding: 113 113 88
Width: 1128
GlyphClass: 2
Flags: HMW
HStem: -608 43G<467 694 467 467> -63 219<367 509 367 509> 778 233<657 802>
LayerCount: 2
Fore
SplineSet
831 -20 m 2
 694 -608 l 1
 467 -608 l 1
 600 -37 l 1
 541 -55 471 -63 389 -63 c 2
 367 -63 l 2
 312 -62 263 -51 221 -31 c 0
 180 -11 149 16 126 47 c 0
 103 78 86 115 74 155 c 0
 62 195 55 236 55 278 c 0
 55 320 60 359 70 399 c 0
 70 402 71 405 72 406 c 0
 94 493 122 571 157 641 c 0
 192 711 230 768 274 814 c 0
 318 860 366 898 418 928 c 0
 475 958 533 979 590 991 c 0
 647 1005 706 1012 766 1012 c 0
 838 1012 900 1000 952 977 c 0
 1003 954 1038 924 1057 887 c 0
 1067 869 1072 852 1073 836 c 0
 1074 820 1074 805 1071 793 c 0
 1067 773 1057 754 1042 739 c 0
 1031 728 1020 720 1006 713 c 1
 943 440 904 275 889 219 c 0
 873 151 853 71 831 -20 c 2
444 158 m 0
 454 158 463 157 473 156 c 0
 544 156 605 166 657 186 c 1
 679 267 729 458 805 760 c 1
 791 767 776 771 758 774 c 0
 740 777 710 778 668 778 c 0
 648 778 625 775 602 769 c 0
 579 763 553 752 524 737 c 0
 495 722 469 704 444 681 c 0
 419 658 397 629 374 591 c 0
 351 553 333 511 319 465 c 0
 318 457 316 452 315 449 c 0
 306 411 303 375 303 342 c 0
 303 311 306 283 313 256 c 0
 321 227 336 204 358 186 c 0
 380 168 409 159 444 158 c 0
EndSplineSet
Validated: 1
EndChar

StartChar: r
Encoding: 114 114 89
Width: 1128
GlyphClass: 2
Flags: HMW
HStem: 821 215 1014 41G<406 438>
LayerCount: 2
Fore
SplineSet
231 -27 m 0x00
 211 -41 189 -47 163 -47 c 0
 161 -47 158 -47 156 -47 c 0
 122 -47 97 -38 82 -20 c 0
 70 -7 65 9 65 32 c 0
 65 41 66 52 68 63 c 0
 75 107 79 140 80 160 c 0
 87 220 94 269 102 309 c 0
 106 329 111 352 115 375 c 0
 133 450 160 550 197 674 c 0
 234 798 256 878 266 915 c 0
 278 963 300 998 330 1020 c 0
 359 1043 389 1055 422 1055 c 0
 455 1055 479 1043 494 1020 c 0
 503 1007 507 991 507 970 c 0
 507 957 506 942 502 926 c 0
 501 919 499 913 498 909 c 0
 490 878 485 866 485 866 c 1
 530 900 584 933 647 963 c 0
 700 988 758 1006 821 1018 c 0
 884 1030 942 1036 995 1036 c 0
 1011 1036 1021 1035 1024 1034 c 0
 1043 1030 1056 1012 1061 981 c 0
 1063 965 1065 947 1065 928 c 0
 1065 915 1064 903 1063 889 c 0
 1059 848 1054 811 1046 778 c 0
 1038 745 1030 719 1020 700 c 0
 1008 671 992 650 973 635 c 0
 953 619 930 607 905 602 c 0
 898 601 891 600 883 600 c 0
 863 600 845 608 831 623 c 0
 814 640 806 660 806 684 c 0
 806 687 807 690 807 694 c 0
 807 709 810 728 815 750 c 0
 820 772 823 787 823 797 c 0
 823 807 822 814 819 821 c 0
 784 820 745 812 703 797 c 0
 661 782 624 763 590 740 c 0
 556 717 523 693 492 665 c 0
 461 637 436 612 418 591 c 0
 400 570 387 553 379 539 c 0
 364 482 354 445 351 430 c 0
 348 415 345 401 342 389 c 0
 331 341 320 279 309 201 c 0
 297 112 291 65 291 61 c 0
 280 21 260 -8 231 -27 c 0x00
EndSplineSet
Validated: 1
EndChar

StartChar: s
Encoding: 115 115 90
Width: 1128
GlyphClass: 2
Flags: HMW
HStem: -72 229<332 458> 788 221<794 1012>
LayerCount: 2
Fore
SplineSet
118 23 m 0
 91 57 78 98 78 147 c 0
 78 170 80 193 85 213 c 0
 90 233 99 252 111 268 c 0
 126 290 145 308 168 322 c 0
 190 330 211 334 231 334 c 0
 251 334 271 326 287 310 c 0
 303 294 314 273 319 246 c 0
 322 230 325 218 327 210 c 0
 329 202 332 194 337 186 c 0
 342 178 347 173 354 170 c 0
 361 167 371 165 384 162 c 0
 397 159 417 158 444 158 c 0
 471 158 510 165 559 181 c 0
 608 197 655 218 700 244 c 0
 740 269 764 292 774 315 c 0
 775 325 775 325 774 317 c 1
 775 325 772 334 764 342 c 0
 753 353 734 363 705 371 c 0
 678 379 608 397 496 424 c 0
 448 435 408 446 377 457 c 0
 310 482 267 509 247 540 c 0
 235 558 229 581 229 609 c 0
 229 628 232 650 238 674 c 0
 252 733 282 785 328 831 c 0
 363 866 409 898 465 924 c 0
 597 981 778 1010 1006 1010 c 0
 1018 1010 1027 1003 1034 991 c 0
 1041 979 1046 962 1049 940 c 0
 1052 915 1053 892 1053 869 c 0
 1053 857 1053 846 1052 835 c 0
 1050 802 1047 776 1044 760 c 0
 1043 752 1041 743 1039 735 c 0
 1037 727 1035 720 1032 713 c 0
 1027 694 1018 675 1004 659 c 0
 989 643 970 632 948 625 c 0
 936 621 924 618 913 618 c 0
 895 618 880 623 866 633 c 0
 843 647 829 664 825 684 c 0
 817 718 812 753 809 788 c 1
 779 788 745 785 706 779 c 0
 667 773 628 765 590 754 c 0
 552 743 520 729 494 711 c 0
 475 697 464 683 461 668 c 0
 461 665 460 663 459 662 c 0
 460 659 464 655 469 651 c 0
 474 647 484 642 496 637 c 0
 526 625 571 612 631 598 c 0
 683 588 729 578 769 568 c 0
 809 558 847 544 881 526 c 0
 915 510 943 491 963 470 c 0
 983 449 997 423 1004 393 c 0
 1006 383 1007 372 1007 361 c 0
 1007 347 1005 333 1001 319 c 0
 1000 311 997 303 993 293 c 0
 966 218 921 152 859 96 c 0
 797 40 723 -2 637 -29 c 0
 548 -58 455 -72 358 -72 c 0
 305 -72 258 -64 217 -49 c 0
 177 -35 145 -11 118 23 c 0
EndSplineSet
Validated: 1
EndChar

StartChar: t
Encoding: 116 116 91
Width: 1128
GlyphClass: 2
Flags: HMW
HStem: -57 225<449 553 449 553> 778 227<199 283 256 279> 784 205<868 933>
LayerCount: 2
Fore
SplineSet
166 371 m 0xa0
 174 406 184 443 195 483 c 0
 195 484 196 492 199 504 c 0
 203 520 210 547 220 584 c 0
 230 621 238 645 242 657 c 0
 250 684 263 725 279 778 c 1
 213 778 l 2
 186 778 167 785 156 799 c 0
 145 812 139 829 139 851 c 0
 139 862 140 874 143 887 c 0
 143 890 144 892 145 895 c 0
 155 935 173 964 199 983 c 0
 219 998 242 1006 269 1006 c 0xc0
 296 1006 320 1005 340 1004 c 1
 345 1026 351 1048 356 1071 c 0
 376 1157 390 1228 397 1284 c 0
 397 1287 397 1289 398 1292 c 2
 399 1296 l 2
 404 1319 416 1342 432 1364 c 0
 455 1391 483 1405 514 1405 c 0
 543 1405 571 1394 598 1374 c 0
 625 1353 639 1330 639 1304 c 0
 639 1303 638 1274 616 1183 c 0
 604 1132 589 1069 571 997 c 1
 741 991 849 989 895 989 c 0
 904 989 911 989 915 989 c 0
 949 989 972 977 983 952 c 0
 988 941 990 929 990 914 c 0
 990 904 989 893 987 881 c 0
 984 870 984 869 985 879 c 1
 977 850 963 827 945 810 c 0
 927 793 901 784 868 784 c 0
 820 781 771 780 722 780 c 0
 653 780 584 782 514 788 c 1
 509 765 499 730 485 683 c 0
 471 636 463 603 458 584 c 0
 453 565 445 535 433 493 c 0
 421 451 415 426 413 418 c 0
 411 410 410 402 409 397 c 0
 408 392 404 373 397 342 c 0
 395 328 394 315 394 303 c 0
 394 269 403 240 420 217 c 0
 443 186 482 169 537 168 c 2
 553 168 l 2
 621 168 689 183 756 213 c 0
 767 218 777 220 788 219 c 0
 802 219 813 215 821 207 c 0
 836 192 844 167 844 133 c 0
 844 126 843 120 840 113 c 0
 835 87 821 63 801 41 c 0
 776 15 749 -4 719 -16 c 0
 651 -43 569 -57 475 -57 c 2
 449 -57 l 2
 397 -56 350 -47 309 -29 c 0
 268 -13 234 12 205 43 c 0
 176 73 158 112 150 158 c 0
 147 177 145 196 145 216 c 0
 145 246 149 279 156 313 c 0
 157 327 161 346 166 371 c 0xa0
EndSplineSet
Validated: 1
EndChar

StartChar: u
Encoding: 117 117 92
Width: 1128
GlyphClass: 2
Flags: HMW
HStem: -49 43G<729 743> -35 242<279 411> 991 41G<329 359 963 992>
LayerCount: 2
Fore
SplineSet
1022 674 m 0x60
 999 559 956 363 893 86 c 0
 883 42 866 10 840 -12 c 0
 815 -35 788 -47 758 -47 c 0
 751 -47 746 -48 743 -49 c 0
 714 -49 692 -39 676 -20 c 0
 663 -5 656 15 656 41 c 0
 656 55 658 71 662 88 c 0
 662 90 663 92 663 94 c 1
 636 76 608 60 580 45 c 0
 534 20 480 1 420 -14 c 0
 372 -28 327 -35 285 -35 c 0
 273 -35 260 -34 248 -33 c 0
 200 -29 161 -10 130 23 c 0
 99 56 79 93 68 136 c 0
 61 162 58 190 58 218 c 0
 58 236 58 254 61 272 c 0
 76 362 98 468 125 588 c 0
 135 630 148 682 166 745 c 0
 184 808 195 850 199 870 c 0
 202 882 205 896 209 911 c 0
 217 949 234 979 260 1001 c 0
 286 1021 314 1032 344 1032 c 0
 374 1032 398 1021 416 1001 c 0
 431 986 438 968 438 944 c 0
 438 935 436 924 434 913 c 0
 431 901 420 862 402 796 c 0
 384 730 369 674 358 629 c 0
 357 621 355 612 352 602 c 0
 322 471 304 371 299 301 c 0
 298 291 298 282 298 274 c 0
 298 246 302 228 313 221 c 0
 321 216 330 212 340 210 c 0
 350 208 365 207 385 207 c 0
 437 207 493 219 552 243 c 0
 611 267 667 295 719 326 c 1
 727 356 733 381 737 401 c 0
 755 475 770 541 782 600 c 0
 815 742 836 846 846 913 c 1
 843 901 843 901 846 915 c 0
 854 949 871 977 897 997 c 0
 923 1020 950 1032 977 1032 c 0
 1007 1032 1032 1021 1051 999 c 0
 1065 984 1072 965 1072 942 c 0
 1072 934 1071 924 1069 915 c 0
 1068 893 1060 850 1046 787 c 0
 1032 724 1023 686 1022 674 c 0x60
EndSplineSet
Validated: 1
EndChar

StartChar: v
Encoding: 118 118 93
Width: 1128
GlyphClass: 2
Flags: HMW
HStem: -55 43G<339 353>
LayerCount: 2
Fore
SplineSet
385 -51 m 0
 373 -54 360 -55 346 -55 c 0
 332 -55 319 -53 305 -49 c 0
 278 -42 260 -30 252 -12 c 0
 170 290 116 569 90 827 c 0
 90 832 90 837 90 842 c 0
 90 866 92 887 98 909 c 0
 102 928 109 944 119 958 c 0
 137 983 159 1001 186 1012 c 0
 201 1019 216 1022 232 1023 c 0
 248 1024 262 1021 276 1014 c 0
 290 1007 301 996 311 981 c 0
 321 963 327 941 330 915 c 0
 335 815 344 724 358 639 c 0
 363 602 368 573 371 553 c 0
 374 534 379 497 387 444 c 0
 397 396 405 362 412 340 c 0
 416 315 419 300 420 293 c 1
 595 536 730 749 827 932 c 0
 852 977 880 1007 911 1022 c 0
 929 1030 946 1033 961 1032 c 0
 976 1032 989 1029 1001 1024 c 0
 1026 1012 1039 989 1039 954 c 0
 1039 949 1039 943 1038 938 c 0
 1038 933 1037 928 1036 924 c 0
 1031 899 1021 872 1006 842 c 0
 979 789 945 732 907 672 c 0
 867 609 802 505 711 362 c 0
 617 223 531 98 455 -14 c 0
 440 -33 416 -46 385 -51 c 0
EndSplineSet
Validated: 1
EndChar

StartChar: w
Encoding: 119 119 94
Width: 1128
GlyphClass: 2
Flags: HMW
HStem: -55 43G<575 590 590 621> 981 41G<625 633 633 633>
VStem: 33 217
LayerCount: 2
Fore
SplineSet
250 -6 m 0
 236 -28 218 -44 195 -55 c 0
 172 -67 148 -74 125 -74 c 0
 102 -74 81 -67 63 -55 c 0
 45 -43 36 -23 33 6 c 0
 31 80 29 151 29 221 c 0
 29 474 45 700 76 899 c 0
 77 909 79 918 82 928 c 0
 87 951 99 969 115 981 c 0
 135 999 159 1010 188 1014 c 0
 198 1014 204 1014 205 1015 c 2
 207 1016 l 1
 229 1016 248 1010 264 999 c 0
 281 986 290 968 290 942 c 0
 290 937 290 932 289 926 c 0
 269 781 248 576 229 311 c 1
 274 422 l 2
 323 544 366 649 403 739 c 0
 440 829 471 897 494 942 c 0
 506 965 521 983 539 997 c 0
 564 1013 592 1022 625 1022 c 2
 633 1022 l 2
 658 1021 678 1013 694 1001 c 0
 710 989 721 969 725 940 c 0
 725 933 722 884 715 791 c 0
 708 698 701 604 696 510 c 0
 691 416 687 343 684 291 c 1
 739 434 813 646 907 926 c 0
 919 963 939 987 965 1001 c 0
 983 1011 1001 1015 1020 1014 c 0
 1027 1014 1034 1013 1044 1012 c 0
 1071 1007 1089 994 1096 975 c 0
 1099 967 1100 958 1100 947 c 0
 1100 936 1099 924 1096 911 c 0
 1093 900 1091 891 1090 881 c 0
 1045 743 988 587 918 412 c 0
 850 239 791 107 745 20 c 0
 729 -9 707 -29 678 -41 c 0
 655 -51 636 -55 621 -55 c 2
 590 -55 l 2
 561 -55 538 -51 520 -41 c 0
 500 -30 486 -11 479 18 c 0
 475 54 473 95 473 140 c 0
 473 167 473 195 475 225 c 0
 479 307 488 403 502 514 c 0
 505 536 507 558 510 578 c 1
 502 556 492 533 481 508 c 0
 446 421 409 333 369 244 c 0
 331 155 291 72 250 -6 c 0
EndSplineSet
Validated: 1
EndChar

StartChar: x
Encoding: 120 120 95
Width: 1128
GlyphClass: 2
Flags: HMW
HStem: -49 43G<76 93> 995 41G<1049 1059>
LayerCount: 2
Fore
SplineSet
121 -43 m 0
 109 -47 98 -49 88 -49 c 0
 65 -49 45 -39 27 -20 c 0
 13 -5 6 12 6 31 c 0
 6 37 7 43 8 49 c 0
 15 82 32 118 59 156 c 0
 81 185 116 221 162 266 c 0
 207 304 254 345 305 389 c 0
 361 438 407 482 444 522 c 1
 417 566 381 619 336 682 c 0
 294 753 268 799 258 821 c 0
 250 845 246 869 246 893 c 0
 246 910 248 926 252 942 c 0
 257 967 274 988 303 1006 c 0
 319 1017 336 1024 354 1028 c 0
 359 1029 366 1029 373 1028 c 0
 387 1028 400 1026 414 1022 c 0
 434 1014 453 999 469 977 c 0
 491 946 518 899 551 838 c 0
 585 777 614 721 637 672 c 1
 726 769 781 828 801 850 c 0
 864 916 909 960 938 983 c 0
 980 1017 1018 1035 1049 1036 c 0
 1069 1036 1086 1031 1098 1020 c 0
 1108 1010 1114 999 1118 985 c 0
 1122 973 1123 959 1120 944 c 0
 1112 909 1096 877 1071 848 c 2
 729 498 l 1
 749 457 773 415 799 373 c 0
 825 336 849 301 874 268 c 0
 899 226 917 191 928 164 c 0
 938 135 942 110 942 90 c 0
 942 68 941 50 938 35 c 0
 934 19 923 4 905 -10 c 0
 889 -24 872 -34 856 -41 c 0
 848 -44 838 -45 827 -44 c 0
 816 -43 805 -42 793 -39 c 0
 771 -31 751 -15 735 10 c 0
 659 132 594 245 539 350 c 1
 491 302 424 237 338 154 c 0
 252 69 200 18 184 0 c 0
 162 -22 141 -36 121 -43 c 0
EndSplineSet
Validated: 1
EndChar

StartChar: y
Encoding: 121 121 96
Width: 1128
GlyphClass: 2
Flags: HMW
HStem: 1006 41G<1083 1098>
VStem: 186 231
LayerCount: 2
Fore
SplineSet
518 270 m 1
 701 536 844 758 948 934 c 0
 963 960 979 981 996 999 c 0
 1013 1017 1030 1029 1046 1036 c 0
 1062 1043 1077 1047 1091 1047 c 0
 1105 1047 1117 1043 1128 1036 c 0
 1150 1022 1164 1001 1169 971 c 0
 1172 956 1170 938 1165 918 c 0
 1160 893 1150 868 1135 842 c 0
 1090 766 1024 663 938 535 c 0
 852 405 768 282 686 166 c 0
 558 -7 427 -191 293 -385 c 0
 234 -470 189 -535 156 -580 c 0
 134 -611 106 -633 72 -645 c 0
 61 -648 51 -649 41 -649 c 0
 21 -649 2 -642 -14 -627 c 0
 -32 -607 -41 -582 -41 -553 c 0
 -41 -544 -41 -535 -39 -526 c 0
 -39 -523 -38 -521 -37 -518 c 0
 -33 -498 -22 -477 -6 -457 c 0
 109 -284 223 -119 338 35 c 1
 259 337 208 602 186 831 c 0
 185 842 185 853 185 863 c 0
 185 878 186 892 188 905 c 0
 189 910 192 917 195 922 c 0
 205 948 215 969 229 985 c 0
 243 1001 260 1014 279 1024 c 0
 297 1034 314 1037 330 1036 c 0
 342 1036 355 1033 367 1028 c 0
 382 1021 393 1008 401 989 c 0
 411 970 417 947 418 918 c 0
 422 846 430 763 444 671 c 0
 458 579 470 507 480 455 c 0
 490 403 503 341 518 270 c 1
EndSplineSet
Validated: 1
EndChar

StartChar: z
Encoding: 122 122 97
Width: 1128
GlyphClass: 2
Flags: HMW
HStem: -6 211 791 213<514 836>
LayerCount: 2
Fore
SplineSet
870 18 m 0
 847 -7 814 -18 772 -18 c 0
 762 -18 715 -16 629 -12 c 0
 498 -8 398 -6 328 -6 c 0
 257 -6 187 -7 117 -10 c 2
 115 -10 l 2
 86 -10 66 6 55 39 c 0
 48 57 45 76 45 93 c 0
 45 104 46 114 49 125 c 0
 52 137 56 149 63 161 c 0
 70 173 84 190 104 213 c 0
 124 236 153 264 190 297 c 0
 213 319 271 367 362 442 c 0
 459 518 546 588 622 650 c 0
 698 712 755 761 793 795 c 1
 710 792 635 791 571 791 c 0
 456 791 375 795 324 805 c 0
 299 809 280 819 268 834 c 0
 257 847 252 864 252 886 c 0
 252 894 253 902 254 911 c 0
 254 912 255 915 256 918 c 0
 263 947 276 971 296 994 c 0
 316 1017 340 1028 369 1028 c 0
 373 1028 377 1027 381 1026 c 0
 507 1011 635 1003 766 1003 c 0
 777 1003 788 1004 799 1004 c 0
 874 1004 946 1006 1014 1010 c 2
 1018 1010 l 2
 1044 1010 1062 998 1074 973 c 0
 1081 958 1085 940 1085 922 c 0
 1085 911 1084 901 1081 889 c 2
 1081 885 l 2
 1078 871 1070 852 1055 828 c 0
 1040 804 1016 773 985 735 c 0
 937 678 884 622 827 567 c 0
 766 512 710 467 659 430 c 0
 517 325 417 250 360 205 c 1
 460 211 548 213 621 213 c 0
 711 213 779 209 829 201 c 1
 832 211 832 211 831 201 c 1
 866 193 891 180 903 164 c 0
 912 153 916 139 916 122 c 0
 916 115 915 106 913 98 c 0
 913 95 912 93 911 92 c 0
 904 63 890 38 870 18 c 0
EndSplineSet
Validated: 1
EndChar

StartChar: braceleft
Encoding: 123 123 98
Width: 1128
GlyphClass: 2
Flags: HMW
HStem: -229 223<530 621> 631 256<89 166> 1544 223<947 976>
VStem: 425 243 451 240
LayerCount: 2
Fore
SplineSet
700 -113 m 0xe8
 693 -142 678 -167 655 -190 c 0
 630 -216 599 -229 561 -229 c 0
 498 -229 440 -223 387 -210 c 0
 334 -197 287 -178 246 -153 c 0
 205 -128 175 -93 157 -50 c 0
 146 -24 140 3 140 33 c 0
 140 53 142 74 147 96 c 0
 157 136 170 174 186 212 c 0
 202 250 221 282 239 311 c 0
 257 340 275 368 291 395 c 0
 329 455 355 509 367 555 c 0
 362 562 351 571 335 581 c 0
 319 591 301 599 281 605 c 0
 261 611 235 618 204 623 c 0
 173 628 141 631 107 631 c 0
 73 631 47 645 31 672 c 0
 20 691 14 711 14 733 c 0
 14 743 15 753 17 764 c 0
 25 798 41 827 64 850 c 0
 89 875 117 887 150 887 c 0
 183 887 213 888 240 889 c 0
 267 890 295 893 322 897 c 0
 349 901 371 906 388 914 c 0
 405 922 419 930 430 940 c 0
 441 950 448 961 451 973 c 0xe8
 452 980 449 993 444 1011 c 0
 439 1029 433 1050 425 1074 c 0
 421 1087 413 1122 413 1185 c 0
 413 1228 418 1273 430 1321 c 0
 461 1458 531 1566 637 1647 c 0
 743 1728 872 1767 1022 1767 c 0
 1052 1767 1077 1758 1096 1739 c 0
 1110 1724 1117 1707 1117 1688 c 0
 1117 1681 1116 1674 1114 1667 c 0
 1107 1637 1087 1609 1053 1583 c 0
 1019 1557 989 1544 963 1544 c 0
 881 1544 813 1525 760 1487 c 0
 708 1452 676 1403 662 1343 c 0
 657 1320 654 1295 654 1266 c 0
 654 1257 654 1248 654 1239 c 0
 656 1199 661 1166 668 1137 c 0xf0
 683 1076 690 1033 690 1008 c 0
 690 997 689 987 688 979 c 0
 681 948 666 918 642 891 c 0
 618 864 590 840 559 821 c 0
 521 798 481 780 440 766 c 1
 480 747 513 725 539 701 c 0
 565 677 582 655 590 635 c 0
 598 615 600 594 596 575 c 0
 589 542 578 510 562 477 c 0
 546 444 530 414 512 387 c 0
 494 360 477 332 461 305 c 0
 445 278 429 247 414 214 c 0
 399 181 387 147 379 113 c 0
 375 97 378 82 389 68 c 0
 411 38 453 16 516 2 c 0
 545 -3 574 -6 605 -6 c 0
 636 -6 661 -15 680 -33 c 0
 695 -48 703 -67 703 -89 c 0
 703 -96 702 -105 700 -113 c 0xe8
EndSplineSet
Validated: 1
EndChar

StartChar: bar
Encoding: 124 124 99
Width: 1128
GlyphClass: 2
Flags: HMW
VStem: 233 666
LayerCount: 2
Fore
SplineSet
301 -408 m 2
 295 -408 l 2
 264 -408 243 -396 233 -371 c 0
 229 -361 227 -348 227 -335 c 0
 227 -324 228 -312 231 -299 c 0
 232 -292 235 -284 236 -276 c 0
 252 -223 292 -63 356 203 c 2
 557 1057 l 2
 628 1360 672 1543 688 1606 c 0
 704 1672 734 1713 776 1731 c 0
 790 1736 806 1740 825 1741 c 0
 863 1741 888 1726 899 1696 c 0
 903 1685 905 1672 905 1658 c 0
 905 1644 903 1628 899 1610 c 2
 690 745 l 2
 553 180 474 -165 449 -291 c 0
 437 -329 415 -359 385 -379 c 0
 358 -398 330 -408 301 -408 c 2
EndSplineSet
Validated: 1
EndChar

StartChar: braceright
Encoding: 125 125 100
Width: 1128
GlyphClass: 2
Flags: HMW
HStem: -229 223<152 180> 672 258 1544 223<507 597>
VStem: 442 240 473 241
LayerCount: 2
Fore
SplineSet
696 217 m 0xe8
 665 80 597 -28 491 -109 c 0
 385 -190 256 -229 104 -229 c 0
 74 -229 51 -220 33 -201 c 0
 18 -185 10 -167 10 -147 c 0
 10 -141 11 -135 12 -129 c 0
 19 -99 40 -71 74 -45 c 0
 108 -19 139 -6 166 -6 c 0
 248 -6 315 13 367 51 c 0
 419 86 451 135 465 195 c 0
 471 220 473 249 473 282 c 0
 473 289 473 295 473 302 c 0xe8
 472 344 468 381 463 414 c 0
 451 485 443 531 442 553 c 0
 442 564 443 574 444 582 c 0
 451 613 467 643 491 670 c 0
 515 697 542 720 573 739 c 0
 610 762 650 781 692 795 c 1
 652 814 620 835 594 859 c 0
 568 883 551 906 543 926 c 0
 535 946 533 965 537 983 c 0
 545 1016 556 1048 571 1080 c 0
 586 1112 603 1140 620 1165 c 0
 637 1190 653 1215 669 1241 c 0
 685 1267 700 1296 714 1327 c 0
 728 1358 740 1391 748 1425 c 0
 752 1441 748 1456 737 1470 c 0
 726 1486 710 1500 687 1511 c 0
 664 1522 639 1531 610 1536 c 0
 581 1541 552 1544 522 1544 c 0
 492 1544 466 1553 446 1571 c 0
 430 1586 423 1604 423 1625 c 0
 423 1633 424 1642 426 1651 c 0
 433 1680 448 1706 471 1729 c 0
 496 1755 527 1767 565 1767 c 0
 628 1767 686 1761 739 1748 c 0
 792 1735 840 1716 882 1691 c 0
 924 1666 953 1631 971 1588 c 0
 981 1563 986 1535 986 1506 c 0
 986 1486 984 1464 979 1442 c 0
 969 1402 956 1364 940 1328 c 0
 924 1292 907 1261 889 1234 c 0
 871 1207 855 1182 840 1157 c 0
 803 1101 778 1050 766 1004 c 0
 770 997 780 989 796 979 c 0
 812 969 830 961 850 954 c 0
 870 947 897 942 928 937 c 0
 959 932 993 930 1028 930 c 0
 1059 930 1084 916 1101 889 c 0
 1113 870 1119 850 1119 827 c 0
 1119 817 1117 807 1115 796 c 0
 1107 761 1093 733 1071 711 c 0
 1046 686 1017 674 983 674 c 0
 949 674 919 673 892 672 c 0
 865 671 838 668 811 663 c 0
 784 658 761 652 744 645 c 0
 727 638 713 630 702 620 c 0
 691 610 685 599 682 588 c 0xf0
 681 581 682 567 686 545 c 0
 690 523 695 499 702 473 c 0
 705 463 714 425 714 356 c 0
 714 311 708 265 696 217 c 0xe8
EndSplineSet
Validated: 1
EndChar

StartChar: asciitilde
Encoding: 126 126 101
Width: 1128
GlyphClass: 2
Flags: HMW
HStem: 846 266<386 457>
LayerCount: 2
Fore
SplineSet
1026 1069 m 0
 1037 1073 1048 1075 1058 1076 c 0
 1068 1077 1078 1074 1088 1069 c 0
 1103 1061 1111 1047 1114 1028 c 0
 1115 1016 1115 1002 1112 987 c 0
 1111 982 1109 976 1108 969 c 0
 1101 949 1092 928 1081 909 c 0
 1070 886 1059 865 1047 846 c 0
 913 626 787 516 668 516 c 0
 608 516 561 538 530 580 c 0
 515 600 504 621 494 643 c 0
 484 665 475 692 465 725 c 0
 464 732 460 743 455 759 c 0
 450 775 445 784 444 788 c 0
 436 810 431 822 430 825 c 2
 419 837 l 2
 414 842 410 844 407 845 c 0
 404 846 398 846 390 846 c 0
 382 846 376 845 371 843 c 0
 366 841 359 835 351 827 c 0
 343 819 337 812 330 804 c 0
 323 796 314 783 302 763 c 0
 290 743 280 726 272 712 c 0
 264 698 251 674 233 643 c 0
 215 612 189 583 152 557 c 0
 122 537 95 526 72 526 c 0
 65 526 58 527 53 530 c 0
 34 535 21 554 16 584 c 0
 13 602 13 619 16 637 c 0
 19 648 24 660 31 672 c 0
 95 807 164 913 238 989 c 0
 316 1071 385 1112 446 1112 c 0
 468 1112 487 1111 502 1109 c 0
 517 1107 533 1103 549 1095 c 0
 565 1087 580 1077 592 1063 c 0
 617 1033 636 988 651 928 c 0
 654 920 657 907 660 891 c 0
 663 875 667 863 670 856 c 0
 677 830 682 814 686 809 c 0
 694 794 702 785 707 782 c 0
 711 781 716 780 723 780 c 2
 731 780 l 2
 742 780 750 780 754 781 c 0
 758 782 763 783 769 785 c 0
 775 787 779 790 782 793 c 0
 801 811 821 832 840 858 c 0
 852 876 867 898 883 924 c 0
 906 962 934 997 965 1028 c 0
 985 1047 1006 1061 1026 1069 c 0
EndSplineSet
Validated: 1
EndChar

StartChar: endash
Encoding: 8211 8211 112
Width: 1128
GlyphClass: 2
Flags: HW
HStem: 485 227<232 919>
LayerCount: 2
Fore
SplineSet
305 713 m 0
 401 713 515 712 648 710 c 0
 781 708 856 707 874 707 c 0
 911 707 935 697 947 678 c 0
 955 665 959 649 959 632 c 0
 959 624 958 615 956 606 c 2
 956 604 l 2
 949 571 937 546 918 528 c 0
 893 503 862 490 825 489 c 0
 484 486 294 485 256 485 c 0
 226 485 204 493 190 508 c 0
 178 521 172 539 172 562 c 0
 172 573 173 585 176 598 c 0
 176 601 177 603 178 606 c 0
 186 644 204 673 231 692 c 0
 251 706 276 713 305 713 c 0
EndSplineSet
Validated: 1
EndChar

StartChar: emdash
Encoding: 8212 8212 113
Width: 1128
GlyphClass: 2
Flags: HW
HStem: 485 223<118 1032> 485 203<80 505>
LayerCount: 2
Fore
SplineSet
188 709 m 2x80
 281 709 l 2
 347 708 423 708 509 708 c 0
 595 708 693 708 799 709 c 0
 901 710 964 711 987 711 c 0
 1024 711 1048 700 1059 680 c 0
 1066 667 1070 652 1070 634 c 0
 1070 625 1069 616 1067 606 c 2
 1067 604 l 2
 1060 571 1047 545 1028 526 c 0
 1003 501 973 489 936 489 c 2
 602 487 l 2
 379 486 226 485 143 485 c 0x80
 87 485 60 511 60 563 c 0
 60 574 61 585 63 598 c 0
 63 601 65 603 66 604 c 0
 74 641 91 669 117 688 c 0x40
 136 702 159 709 188 709 c 2x80
EndSplineSet
Validated: 1
EndChar

StartChar: quoteleft
Encoding: 8216 8216 114
Width: 1128
GlyphClass: 2
Flags: HW
LayerCount: 2
Fore
SplineSet
403 1382 m 0
 402 1397 404 1412 407 1428 c 0
 410 1444 417 1460 428 1475 c 0
 447 1501 470 1519 496 1530 c 0
 519 1540 540 1544 558 1544 c 0
 576 1544 593 1540 608 1532 c 0
 627 1521 638 1504 639 1479 c 0
 647 1400 675 1287 723 1141 c 0
 728 1125 729 1108 725 1090 c 1
 725 1090 l 1
 715 1048 678 1011 614 981 c 0
 591 970 570 965 551 965 c 2
 537 965 l 2
 522 966 509 972 497 983 c 0
 485 994 476 1009 471 1028 c 0
 459 1072 446 1129 432 1201 c 0
 418 1273 408 1333 403 1382 c 0
EndSplineSet
Validated: 1
EndChar

StartChar: quoteright
Encoding: 8217 8217 115
Width: 1128
GlyphClass: 2
Flags: HW
LayerCount: 2
Fore
SplineSet
467 918 m 0
 449 911 433 907 419 907 c 0
 405 907 392 911 381 918 c 0
 356 933 340 957 332 991 c 0
 328 1010 328 1030 332 1049 c 0
 336 1068 344 1087 358 1106 c 0
 388 1146 428 1203 477 1277 c 0
 526 1351 564 1411 590 1456 c 0
 605 1481 624 1498 647 1509 c 0
 665 1517 682 1523 698 1524 c 0
 718 1524 739 1518 758 1507 c 0
 778 1496 792 1478 799 1452 c 0
 803 1437 804 1422 801 1407 c 0
 798 1391 792 1376 782 1362 c 0
 681 1183 607 1060 559 993 c 0
 530 956 500 932 467 918 c 0
EndSplineSet
Validated: 1
EndChar

StartChar: quotesinglbase
Encoding: 8218 8218 116
Width: 1128
GlyphClass: 2
Flags: HW
HStem: 944 596<484 655>
VStem: 463 239<992 1511>
LayerCount: 2
Fore
SplineSet
696 1061 m 0
 691 1036 680 1015 664 997 c 0
 642 974 617 958 590 950 c 0
 574 947 557 945 541 944 c 0
 518 944 498 952 483 966 c 0
 469 979 463 997 463 1020 c 0
 463 1025 463 1025 463 1037 c 0
 463 1101 452 1217 430 1386 c 0
 427 1398 427 1410 430 1421 c 0
 431 1425 433 1431 434 1438 c 0
 439 1453 447 1466 457 1476 c 0
 467 1486 477 1494 490 1502 c 0
 503 1510 515 1516 525 1521 c 0
 535 1526 546 1529 557 1532 c 0
 577 1537 596 1540 612 1540 c 0
 628 1540 644 1534 658 1521 c 0
 672 1508 682 1488 686 1462 c 2
 686 1460 l 2
 690 1409 694 1347 698 1273 c 0
 700 1228 702 1189 702 1153 c 0
 702 1129 701 1107 700 1087 c 0
 699 1077 697 1069 696 1061 c 0
EndSplineSet
Validated: 1
EndChar

StartChar: quotedblleft
Encoding: 8220 8220 117
Width: 1128
GlyphClass: 2
Flags: HW
LayerCount: 2
Fore
SplineSet
559 1470 m 0
 558 1485 559 1501 562 1516 c 0
 565 1531 573 1547 584 1563 c 0
 603 1590 625 1608 651 1618 c 0
 674 1628 696 1632 714 1632 c 0
 732 1632 749 1628 764 1620 c 0
 782 1609 792 1592 795 1567 c 0
 803 1488 831 1375 879 1229 c 0
 884 1213 885 1196 881 1178 c 1
 881 1178 l 1
 871 1136 834 1099 770 1069 c 0
 747 1058 724 1053 702 1053 c 2
 692 1053 l 2
 677 1054 664 1060 653 1071 c 0
 642 1082 634 1097 627 1116 c 0
 615 1160 602 1217 588 1289 c 0
 574 1361 564 1421 559 1470 c 0
248 1362 m 0
 247 1377 248 1392 251 1407 c 0
 254 1422 261 1437 272 1452 c 0
 291 1478 314 1496 340 1507 c 0
 363 1517 384 1522 403 1523 c 0
 422 1524 439 1519 453 1509 c 0
 472 1498 482 1481 483 1456 c 0
 491 1377 519 1264 567 1118 c 0
 572 1102 573 1085 569 1067 c 1
 569 1067 l 1
 559 1025 524 988 461 958 c 0
 438 947 415 942 395 942 c 2
 381 942 l 2
 366 943 353 950 341 962 c 0
 329 974 320 989 315 1008 c 0
 303 1052 290 1109 276 1181 c 0
 262 1253 253 1313 248 1362 c 0
EndSplineSet
Validated: 1
EndChar

StartChar: quotedblright
Encoding: 8221 8221 118
Width: 1128
GlyphClass: 2
Flags: HW
HStem: 1024 43G<297 315>
LayerCount: 2
Fore
SplineSet
434 1104 m 0
 416 1079 396 1060 371 1046 c 0
 346 1032 324 1024 306 1024 c 0
 288 1024 271 1027 256 1034 c 0
 214 1059 192 1089 192 1124 c 0
 192 1131 193 1138 195 1145 c 0
 199 1161 207 1178 221 1196 c 0
 251 1236 293 1295 346 1376 c 0
 399 1457 439 1521 465 1567 c 0
 480 1592 499 1609 522 1620 c 0
 541 1628 559 1632 575 1632 c 0
 595 1632 615 1628 633 1618 c 0
 653 1607 668 1589 676 1563 c 0
 680 1548 680 1533 677 1517 c 0
 674 1501 667 1485 659 1470 c 0
 557 1291 482 1170 434 1104 c 0
602 918 m 0
 584 911 569 907 555 907 c 0
 541 907 528 911 516 918 c 0
 491 933 475 957 467 991 c 0
 462 1010 461 1030 465 1049 c 0
 469 1068 479 1087 494 1106 c 0
 525 1146 564 1203 612 1278 c 0
 657 1348 695 1407 725 1456 c 0
 740 1481 759 1498 782 1509 c 0
 800 1517 818 1523 836 1524 c 0
 856 1524 875 1518 893 1507 c 0
 913 1496 927 1478 934 1452 c 0
 938 1437 938 1421 934 1403 c 0
 931 1389 927 1375 920 1360 c 0
 816 1177 740 1054 694 993 c 0
 665 956 635 932 602 918 c 0
EndSplineSet
Validated: 1
EndChar

StartChar: bullet
Encoding: 8226 8226 119
Width: 1128
GlyphClass: 2
Flags: HW
HStem: 662 426<483 645>
VStem: 349 432<793 960>
LayerCount: 2
Fore
SplineSet
498 662 m 0
 446 662 406 681 379 721 c 0
 359 750 349 783 349 820 c 0
 349 839 351 859 356 879 c 0
 370 936 403 984 456 1024 c 0
 509 1064 561 1084 616 1087 c 2
 625 1087 l 2
 682 1087 725 1068 752 1030 c 0
 771 1002 781 971 781 935 c 0
 781 918 778 900 774 881 c 0
 760 822 730 773 684 733 c 0
 638 693 583 671 522 664 c 0
 514 663 506 662 498 662 c 0
EndSplineSet
Validated: 1
EndChar

StartChar: lambda
Encoding: 955 955 120
Width: 1128
Flags: HW
HStem: -56 43G<-28 -10 859 875>
LayerCount: 2
Fore
SplineSet
578 710 m 1
 525 639 480 578 443 526 c 0
 406 474 356 402 295 310 c 0
 234 218 183 135 142 63 c 0
 127 34 110 10 89 -9 c 0
 70 -28 50 -41 29 -48 c 0
 13 -53 -3 -56 -18 -56 c 0
 -38 -56 -56 -51 -72 -41 c 0
 -89 -33 -102 -21 -111 -5 c 0
 -118 9 -122 27 -122 47 c 0
 -122 51 -121 55 -121 59 c 2
 -118 75 l 2
 -115 97 -104 122 -87 149 c 0
 54 378 245 644 485 946 c 1
 425 1099 370 1262 321 1437 c 0
 313 1457 312 1479 317 1499 c 0
 319 1502 319 1504 320 1507 c 0
 332 1548 358 1581 398 1607 c 0
 425 1622 450 1630 473 1630 c 0
 484 1631 495 1630 506 1626 c 0
 539 1615 562 1593 572 1560 c 0
 588 1515 609 1451 637 1366 c 0
 698 1172 761 988 826 815 c 0
 864 699 902 576 939 446 c 0
 976 316 1003 214 1019 139 c 0
 1022 126 1022 113 1022 101 c 0
 1022 88 1021 76 1018 63 c 0
 1013 43 1006 25 996 10 c 0
 974 -20 948 -42 916 -56 c 0
 899 -63 883 -66 867 -66 c 0
 851 -66 835 -63 819 -56 c 0
 803 -49 790 -37 779 -19 c 0
 768 -1 759 21 754 47 c 0
 719 223 661 444 578 710 c 1
EndSplineSet
Validated: 1
EndChar
